<svg xmlns:xlink="http://www.w3.org/1999/xlink" width="24" height="24"><defs><path id="id-2a" d="M9.23 2.4c-2.564 0-3.477.176-4.415.678a4.143 4.143 0 0 0-1.737 1.737C2.576 5.753 2.4 6.666 2.4 9.23v5.54c0 2.564.176 3.477.678 4.415a4.143 4.143 0 0 0 1.737 1.737c.938.502 1.851.678 4.415.678h5.54c2.564 0 3.477-.176 4.415-.678a4.143 4.143 0 0 0 1.737-1.737c.502-.938.678-1.851.678-4.415V9.23c0-2.564-.176-3.477-.678-4.415a4.143 4.143 0 0 0-1.737-1.737c-.938-.502-1.851-.678-4.415-.678H9.23zm0-2.4h5.54c3.21 0 4.373.334 5.547.962a6.542 6.542 0 0 1 2.721 2.721C23.666 4.857 24 6.021 24 9.23v5.54c0 3.21-.334 4.373-.962 5.547a6.542 6.542 0 0 1-2.721 2.721c-1.174.628-2.338.962-5.547.962H9.23c-3.21 0-4.373-.334-5.547-.962a6.542 6.542 0 0 1-2.721-2.721C.334 19.143 0 17.979 0 14.77V9.23c0-3.21.334-4.373.962-5.547A6.542 6.542 0 0 1 3.683.962C4.857.334 6.021 0 9.23 0z"/></defs><use xlink:href="#id-2a"/></svg>