<svg xmlns:xlink="http://www.w3.org/1999/xlink" viewBox="0 0 20 20"><defs><path id="id-0a" d="M10 18.481a1.92 1.92 0 0 1-1.415-.59A1.91 1.91 0 0 1 8 16.5h4c0 .535-.195.998-.585 1.392a1.92 1.92 0 0 1-1.415.59zM16.185 14l.528.523c.184.182.287.43.287.689 0 .223-.18.403-.404.403H3.404A.404.404 0 0 1 3 15.212c0-.259.103-.507.287-.689L3.815 14a2.75 2.75 0 0 0 .816-1.955V8.808c0-1.205.39-2.276 1.173-3.212A5.375 5.375 0 0 1 8.767 3.77v-.577c0-.333.113-.615.338-.846C9.33 2.116 9.63 2 10 2s.67.115.895.346c.225.23.338.513.338.846v.577a5.375 5.375 0 0 1 2.963 1.827c.782.936 1.173 2.007 1.173 3.212v3.237c0 .734.294 1.438.816 1.955z"/></defs><use xlink:href="#id-0a" fill-rule="evenodd"/></svg>