<svg viewBox="0 0 24 24" xmlns:xlink="http://www.w3.org/1999/xlink"><defs><path d="M7.825 0c.8 0 1.449.626 1.449 1.399v10.022c0 .773-.649 1.4-1.449 1.4H1.448c-.8 0-1.448-.627-1.448-1.4V1.4C0 .626.648 0 1.448 0h6.377zM18.55 7.18c.801 0 1.45.627 1.45 1.401v10.017c0 .774-.65 1.402-1.45 1.402h-6.372c-.802 0-1.45-.628-1.45-1.402V8.581c0-.774.648-1.402 1.45-1.402h6.372zM7.824 14.222c.802 0 1.45.627 1.45 1.4V18.6c0 .773-.648 1.4-1.45 1.4H1.45C.65 20 0 19.373 0 18.6v-2.977c0-.773.648-1.4 1.45-1.4h6.374zM18.546 0C19.349 0 20 .628 20 1.404v2.968c0 .776-.651 1.405-1.454 1.405H12.18c-.803 0-1.454-.63-1.454-1.405V1.404c0-.776.65-1.404 1.454-1.404h6.366z" id="id-1a"/></defs><use xlink:href="#id-1a" transform="translate(2 2)" fill-rule="evenodd"/></svg>