<svg viewBox="0 0 24 24"><g fill-rule="evenodd" transform="translate(5 1)"><path fill-rule="nonzero" d="M.5 8.277a3.44 3.44 0 0 1 1.264-2.664l2.088-1.706a.676.676 0 0 0 .248-.524V1.588C4.1.988 4.587.5 5.188.5h3.624C9.412.5 9.9.987 9.9 1.588v1.795c0 .203.091.396.248.524l2.088 1.706A3.441 3.441 0 0 1 13.5 8.277v9.782a3.44 3.44 0 0 1-3.441 3.441H3.94A3.44 3.44 0 0 1 .5 18.059V8.277zm1 0v9.782A2.441 2.441 0 0 0 3.941 20.5h6.118a2.441 2.441 0 0 0 2.441-2.441V8.277c0-.732-.33-1.426-.897-1.89L9.516 4.68A1.676 1.676 0 0 1 8.9 3.383V1.588a.088.088 0 0 0-.088-.088H5.188a.088.088 0 0 0-.088.088v1.795c0 .503-.226.98-.616 1.298L2.397 6.387a2.441 2.441 0 0 0-.897 1.89z"/><path fill-rule="nonzero" d="M1.183 10.289l-.366-.931c2.114-.829 4.432-.829 6.938-.01 2.27.742 3.923.742 4.971.057l.548.837c-1.352.884-3.3.884-5.83.057-2.293-.75-4.375-.75-6.261-.01zM9.7 14.118c.28 0 .5-.216.5-.47 0-.256-.22-.472-.5-.472s-.5.216-.5.471.22.47.5.47zm0 1c-.828 0-1.5-.659-1.5-1.47 0-.813.672-1.472 1.5-1.472s1.5.659 1.5 1.471-.672 1.47-1.5 1.47z"/><ellipse cx="7.6" cy="15.706" rx="1" ry="1"/></g></svg>