<svg viewBox="0 0 24 24"><path d="M16.45 22.95a6.5 6.5 0 1 1 0-13 6.5 6.5 0 0 1 0 13zm0-1a5.5 5.5 0 1 0 0-11 5.5 5.5 0 0 0 0 11z"/><path d="M2.175 21.125h7.1a.5.5 0 1 1 0 1h-7.6a.5.5 0 0 1-.5-.5V1.675a.5.5 0 0 1 .5-.5h10.45a.5.5 0 0 1 .354.146l4.75 4.75a.5.5 0 0 1 .146.354v1.547a.5.5 0 1 1-1 0v-1.34l-4.457-4.457H2.175v18.95z"/><path d="M16.875 5.925a.5.5 0 1 1 0 1h-4.75a.5.5 0 0 1-.5-.5v-4.75a.5.5 0 1 1 1 0v4.25h4.25zm-11.85 11.4h2.987a.5.5 0 1 1 0 1H4.525a.5.5 0 0 1-.5-.5v-9.5a.5.5 0 0 1 1 0v9z"/><path d="M6.848 11.014l-1.89 3.262a.5.5 0 0 1-.866-.502L6.31 9.948a.5.5 0 0 1 .787-.102l1.307 1.314 1.47-2.862a.5.5 0 0 1 .89.457L8.979 12.23a.5.5 0 0 1-.8.124l-1.33-1.339zM14.7 15.62a.5.5 0 1 1 0-1h3.6a.5.5 0 1 1 0 1h-3.6zm0 2.58a.5.5 0 1 1 0-1h3.6a.5.5 0 1 1 0 1h-3.6z"/></svg>