<svg viewBox="0 0 24 24"><path d="M3.256 15.067a.6.6 0 1 0 0-1.2.6.6 0 0 0 0 1.2zm0 1a1.6 1.6 0 1 1 0-3.2 1.6 1.6 0 0 1 0 3.2zm5.76-6.08a.6.6 0 1 0 0-1.2.6.6 0 0 0 0 1.2zm0 1a1.6 1.6 0 1 1 0-3.2 1.6 1.6 0 0 1 0 3.2zm5.76 1.032a.6.6 0 1 0 0-1.2.6.6 0 0 0 0 1.2zm0 1a1.6 1.6 0 1 1 0-3.2 1.6 1.6 0 0 1 0 3.2zm5.76-8.111a.6.6 0 1 0 0-1.2.6.6 0 0 0 0 1.2zm0 1a1.6 1.6 0 1 1 0-3.2 1.6 1.6 0 0 1 0 3.2z"/><path d="M4.919 13.681a.5.5 0 1 1-.642-.767l3.012-2.516a.5.5 0 0 1 .64.767l-3.01 2.516zm5.477-3.201a.5.5 0 0 1 .363-.932l2.596 1.012a.5.5 0 0 1-.364.932l-2.595-1.012zm8.602-4.77a.5.5 0 0 1 .798.604l-3.24 4.29a.5.5 0 1 1-.799-.602l3.241-4.291zM1.65 21.015a.5.5 0 1 1 0-1h20.7a.5.5 0 1 1 0 1H1.65z"/><path d="M13.85 19.786h1.7V17.3h-1.7v2.486zm-.5-3.486h2.7a.5.5 0 0 1 .5.5v3.486a.5.5 0 0 1-.5.5h-2.7a.5.5 0 0 1-.5-.5V16.8a.5.5 0 0 1 .5-.5zm5.91 3.486h1.699l.132-7.286h-1.7l-.132 7.286zM18.9 11.5h2.7a.5.5 0 0 1 .5.51l-.15 8.285a.5.5 0 0 1-.5.49h-2.7a.5.5 0 0 1-.5-.508l.15-8.286a.5.5 0 0 1 .5-.491z"/></svg>