<svg xmlns:xlink="http://www.w3.org/1999/xlink" viewBox="0 0 20 20"><defs><path id="id-3a" d="M14 3.8682c0 .515-.192.9544-.578 1.3157-.3851.3632-.8493.5442-1.3918.5442-.5444 0-1.0095-.181-1.3991-.5442-.3887-.3613-.5835-.8007-.5835-1.3157 0-.514.1948-.9545.5835-1.3202.3887-.366.8547-.548 1.399-.548.5426 0 1.0068.1829 1.392.548.3859.3657.5779.8061.5779 1.3202m-.2102 12.405l-.2214.914c-.6634.2648-1.1943.466-1.5892.605-.395.1388-.8548.2078-1.3782.2078-.8037 0-1.4292-.1987-1.8752-.5939-.446-.3963-.669-.8993-.669-1.509 0-.236.0163-.479.05-.7261.0337-.2474.0875-.527.1611-.8386l.8303-2.9663c.0736-.284.1366-.5533.1867-.808.0508-.2528.0755-.4856.0755-.695 0-.379-.0774-.6438-.2321-.7926-.1548-.149-.4498-.2246-.8876-.2246-.2149 0-.4351.0351-.66.1022A8.94 8.94 0 0 0 7 9.1411l.222-.9147c.5435-.2236 1.0634-.4147 1.5602-.5738.497-.1591.9669-.239 1.411-.239.7984 0 1.4145.195 1.847.5848.4323.3897.649.8956.649 1.5188 0 .1288-.0144.356-.0445.6805-.03.3253-.0858.6233-.1666.8945l-.8266 2.9551c-.0673.2373-.1284.5084-.181.8137-.0548.3034-.0811.5353-.0811.6906 0 .3926.0864.66.2603.8026.1747.1424.476.2133.9039.2133.201 0 .4297-.0358.6837-.1066.2538-.0709.4386-.1333.5525-.1876"/></defs><use xlink:href="#id-3a" fill-rule="evenodd"/></svg>