<svg viewBox="0 0 24 24"><path d="M22.15 10.791a.5.5 0 0 1 .4.918l-10.35 4.5a.5.5 0 0 1-.4 0l-10.35-4.5a.5.5 0 0 1 .4-.918L12 15.205l10.15-4.414z"/><path d="M12 17.905l10.15-4.414a.5.5 0 1 1 .4.918l-10.35 4.5a.5.5 0 0 1-.4 0l-10.35-4.5a.5.5 0 1 1 .4-.918L12 17.905z"/><path d="M12 20.605l10.15-4.414a.5.5 0 1 1 .4.918l-10.35 4.5a.5.5 0 0 1-.4 0l-10.35-4.5a.5.5 0 1 1 .4-.918L12 20.605zM21.096 8.55L12 4.595 2.904 8.55 12 12.505l9.096-3.955zm-9.295 4.959l-10.35-4.5a.5.5 0 0 1 0-.918l10.35-4.5a.5.5 0 0 1 .398 0l10.35 4.5a.5.5 0 0 1 0 .918l-10.35 4.5a.5.5 0 0 1-.398 0z"/></svg>