<svg viewBox="0 0 24 24"><path d="M4.8 12.95a2.3 2.3 0 1 1 0-4.6 2.3 2.3 0 0 1 0 4.6zm0-1a1.3 1.3 0 1 0 0-2.6 1.3 1.3 0 0 0 0 2.6zm-2.646 2.8c.043 2.298.406 3.21 1.42 3.47a.5.5 0 0 1 .376.485v3.145h1.7v-3.145a.5.5 0 0 1 .375-.484c1.015-.261 1.378-1.173 1.42-3.471h-5.29zm-1.004-.5a.5.5 0 0 1 .5-.5h6.3a.5.5 0 0 1 .5.5c0 2.86-.395 4.272-1.8 4.82v3.28a.5.5 0 0 1-.5.5h-2.7a.5.5 0 0 1-.5-.5v-3.28c-1.405-.548-1.8-1.96-1.8-4.82zm18.05-1.3a2.3 2.3 0 1 1 0-4.6 2.3 2.3 0 0 1 0 4.6zm0-1a1.3 1.3 0 1 0 0-2.6 1.3 1.3 0 0 0 0 2.6zm-2.646 2.8c.043 2.298.406 3.21 1.42 3.47a.5.5 0 0 1 .376.485v3.145h1.7v-3.145a.5.5 0 0 1 .375-.484c1.015-.261 1.378-1.173 1.42-3.471h-5.29zm-1.004-.5a.5.5 0 0 1 .5-.5h6.3a.5.5 0 0 1 .5.5c0 2.86-.395 4.272-1.8 4.82v3.28a.5.5 0 0 1-.5.5h-2.7a.5.5 0 0 1-.5-.5v-3.28c-1.405-.548-1.8-1.96-1.8-4.82zM12 5.75a2.3 2.3 0 1 1 0-4.6 2.3 2.3 0 0 1 0 4.6zm0-1a1.3 1.3 0 1 0 0-2.6 1.3 1.3 0 0 0 0 2.6zm-2.646 2.8c.043 2.298.406 3.21 1.42 3.47a.5.5 0 0 1 .376.485v3.145h1.7v-3.145a.5.5 0 0 1 .375-.484c1.015-.261 1.378-1.173 1.42-3.471h-5.29zm-1.004-.5a.5.5 0 0 1 .5-.5h6.3a.5.5 0 0 1 .5.5c0 2.86-.395 4.272-1.8 4.82v3.28a.5.5 0 0 1-.5.5h-2.7a.5.5 0 0 1-.5-.5v-3.28c-1.405-.548-1.8-1.96-1.8-4.82z"/></svg>