<svg viewBox="0 0 24 24"><path d="M12.3 9.95a.5.5 0 1 1 .36-.932l5.954 2.304a1.7 1.7 0 0 1 1.086 1.585V19.2a.5.5 0 1 1-1 0v-6.293a.7.7 0 0 0-.447-.653L12.3 9.95z"/><path d="M2.548 10.198A.62.62 0 0 1 2.55 9.03l9.482-3.36a1.7 1.7 0 0 1 1.136 0l9.475 3.358a.62.62 0 0 1-.005 1.17l-9.684 3.337a1.7 1.7 0 0 1-1.128-.007l-9.278-3.33zm9.616 2.389a.7.7 0 0 0 .465.003l8.655-2.983-8.45-2.994a.7.7 0 0 0-.468 0L3.89 9.617l8.275 2.97z"/><path d="M4.997 10.888a.5.5 0 0 1 1 0v3.765a.7.7 0 0 0 .302.576c2.725 1.889 5.964 2.177 9.766.847a.5.5 0 1 1 .33.944c-4.09 1.43-7.662 1.113-10.666-.97a1.7 1.7 0 0 1-.732-1.396v-3.766z"/></svg>