<svg viewBox="0 0 24 24"><path d="M2.8496 19.9496a.8486.8486 0 0 0 .0009 1.2018c.3302.3319.8686.3319 1.2005-.0007l5.5598-5.5606-1.2017-1.2017-5.5595 5.5612zm-.7069 1.9083c-.723-.7218-.723-1.8927-.0003-2.6154l5.913-5.9148a.5.5 0 0 1 .7072 0l1.9089 1.9088a.5.5 0 0 1 0 .7071l-5.9129 5.9138c-.7228.724-1.8961.7239-2.6159.0005z"/><path d="M7.1023 13.0798a.5.5 0 1 1 .7072-.707l3.816 3.8178a.5.5 0 1 1-.7072.707l-3.816-3.8178z"/><path d="M18.6214 4.6714a.5.5 0 0 1 .7072.7072l-9.6192 9.6192a.5.5 0 0 1-.7072-.7072l9.6192-9.6192z"/><path d="M21.6903 3.0474l-.7483-.7483-2.3522 1.6341 1.3959 1.3948 1.7046-2.2806zm-2.0031 3.396l-2.2275-2.2257a.5.5 0 0 1 .0681-.7643l3.187-2.214a.5.5 0 0 1 .6388.057l1.35 1.35a.5.5 0 0 1 .0469.653L20.441 6.389a.5.5 0 0 1-.754.0544zm-7.4327 3.2338l-.707.7072L8.177 7.0148a.5.5 0 0 1-.107-.5484c.4887-1.1552.2394-2.5024-.6614-3.4023-.7143-.7132-1.6628-1.0148-2.5963-.8712l1.2485 1.3016a.5.5 0 0 1 .1392.3461V5.7a.5.5 0 0 1-.5.5H3.7614a.5.5 0 0 1-.346-.1391l-1.262-1.21c-.1458.9458.1576 1.9169.872 2.6306.894.8955 2.2386 1.1362 3.4004.6444a.5.5 0 0 1 .548.1065l3.3715 3.3642-.7064.7078L6.495 9.1673c-1.4539.4797-3.0728.1272-4.1769-.9788-1.1926-1.1916-1.5205-2.939-.8758-4.465.1364-.3228.5538-.4089.8066-.1664L3.9624 5.2H5.2V4.0416l-1.6815-1.753c-.2426-.2529-.1565-.6705.1664-.8067 1.5227-.6428 3.2363-.3175 4.4304.8746 1.1092 1.1082 1.4718 2.7283.996 4.1784l3.1432 3.1423zm-.5664 4.7278l.7004-.7137 3.235 3.1745a.5.5 0 0 1 .1103.5517c-.4887 1.1551-.2394 2.5014.6615 3.4016.7128.7121 1.7052 1.0167 2.6613.8706l-1.2543-1.3012a.5.5 0 0 1-.14-.347v-1.8a.5.5 0 0 1 .5-.5h1.8a.5.5 0 0 1 .3392.1327l1.3447 1.2416c.154-.9617-.1503-1.9633-.8685-2.6809-.9006-.9013-2.2469-1.1508-3.4013-.6616a.5.5 0 0 1-.5428-.101l-3.2282-3.1233.6953-.7187 3.0011 2.9035c1.451-.479 3.0733-.1167 4.183.994 1.1913 1.1903 1.5214 2.9714.8757 4.4977-.135.319-.5453.4074-.7997.1725l-1.794-1.6565h-1.1045v1.0982l1.6906 1.7538c.2436.2527.1578.6712-.1656.8076-1.5272.6447-3.3079.3153-4.4988-.8746-1.1084-1.1074-1.4712-2.7252-.9971-4.1743L11.688 14.405z"/></svg>