<svg viewBox="0 0 24 24" xmlns:xlink="http://www.w3.org/1999/xlink"><defs><path d="M11.498 17.4a2.5 2.5 0 1 1-.001 5 2.5 2.5 0 0 1 .001-5zm12.429-4.335a.669.669 0 0 1-.292.9l-8.264 4.22a.868.868 0 0 1-1.136-.32c-.184-.301-.85-1.307-1.769-1.603-1.02-.32-2.02.02-2.402.182h-.002c-.184.08-.486.211-.639.287a.668.668 0 0 1-.897-.3L2.541 4.397a1.208 1.208 0 0 0-.875-.299l-.71.338a.67.67 0 0 1-.574-1.209L2.83 2.064a.67.67 0 0 1 .887.31l5.333 10.84c.378.424.877.718 1.5.743l3.299-1.689a1.582 1.582 0 0 1 2.13.687l.782 1.511a2.065 2.065 0 0 0 1.863.557l4.403-2.25a.67.67 0 0 1 .9.292zM15.86 7.241l-.427-.835a1.349 1.349 0 0 1 .586-1.814l1.494-.765a1.348 1.348 0 0 1 1.815.585l.427.835c.34.663.077 1.476-.586 1.815l-1.493.765a1.349 1.349 0 0 1-1.816-.586zm.388 4.045a1.349 1.349 0 0 1 .586-1.816l3.14-1.607a1.349 1.349 0 0 1 1.814.586l.884 1.724a1.35 1.35 0 0 1-.586 1.816l-3.14 1.607a1.348 1.348 0 0 1-1.815-.585l-.883-1.725zm-6.577.093l-.883-1.725a1.348 1.348 0 0 1 .585-1.815l3.14-1.608a1.349 1.349 0 0 1 1.815.586l.883 1.725c.34.663.077 1.476-.586 1.815l-3.14 1.607a1.348 1.348 0 0 1-1.814-.585z" id="id-7a"/></defs><use xlink:href="#id-7a" fill-rule="evenodd"/></svg>