<?xml version="1.0" encoding="UTF-8"?>
<svg width="4px" height="14px" viewBox="0 0 4 14" version="1.1" xmlns="http://www.w3.org/2000/svg" xmlns:xlink="http://www.w3.org/1999/xlink">
    <!-- Generator: Sketch 50.2 (55047) - http://www.bohemiancoding.com/sketch -->
    <title>Count</title>
    <desc>Created with Sketch.</desc>
    <defs></defs>
    <g id="Symbols" stroke="none" stroke-width="1" fill="none" fill-rule="evenodd">
        <g id="2-Elements/Bubbles/Info" transform="translate(-14.000000, -8.000000)" fill="#FFFFFF">
            <path d="M17.0825,12.167 L17.0825,21.5 L14.2925,21.5 L14.2925,12.167 L17.0825,12.167 Z M17.4065,9.611 C17.4065,9.83300111 17.3615005,10.041499 17.2715,10.2365 C17.1814995,10.431501 17.0585008,10.6024993 16.9025,10.7495 C16.7464992,10.8965007 16.565001,11.0134996 16.358,11.1005 C16.150999,11.1875004 15.9305012,11.231 15.6965,11.231 C15.4684989,11.231 15.255501,11.1875004 15.0575,11.1005 C14.859499,11.0134996 14.6840008,10.8965007 14.531,10.7495 C14.3779992,10.6024993 14.2580004,10.431501 14.171,10.2365 C14.0839996,10.041499 14.0405,9.83300111 14.0405,9.611 C14.0405,9.38299886 14.0839996,9.17000099 14.171,8.972 C14.2580004,8.77399901 14.3779992,8.60000075 14.531,8.45 C14.6840008,8.29999925 14.859499,8.18300042 15.0575,8.099 C15.255501,8.01499958 15.4684989,7.973 15.6965,7.973 C15.9305012,7.973 16.150999,8.01499958 16.358,8.099 C16.565001,8.18300042 16.7464992,8.29999925 16.9025,8.45 C17.0585008,8.60000075 17.1814995,8.77399901 17.2715,8.972 C17.3615005,9.17000099 17.4065,9.38299886 17.4065,9.611 Z" id="Count"></path>
        </g>
    </g>
</svg>