<?xml version="1.0" encoding="UTF-8"?>
<svg width="20px" height="20px" viewBox="0 0 20 20" version="1.1" xmlns="http://www.w3.org/2000/svg" xmlns:xlink="http://www.w3.org/1999/xlink">
  <path d="M9.36692677,17.2681736 L4.55653076,19.9179913 C4.22402971,20.1011503 3.81277596,19.9672048 3.63796981,19.6188158 C3.56836109,19.4800854 3.54434084,19.3211808 3.56962769,19.1667023 L4.48833158,13.5542983 C4.56401892,13.0919209 4.41771482,12.6201274 4.09709811,12.2926699 L0.20540598,8.31794335 C-0.0635930227,8.04320489 -0.0690972269,7.59199863 0.193111996,7.31014595 C0.297525084,7.19791074 0.434337612,7.12487032 0.582369408,7.10233221 L5.96055565,6.28349351 C6.40363705,6.21603355 6.78666617,5.92444913 6.98481819,5.50376427 L9.3900162,0.397430427 C9.55626673,0.0444737522 9.96411868,-0.100441597 10.300979,0.0737529362 C10.4351186,0.143118113 10.5436936,0.256881228 10.6098955,0.397430427 L13.0150935,5.50376427 C13.2132455,5.92444913 13.5962746,6.21603355 14.039356,6.28349351 L19.4175423,7.10233221 C19.7892897,7.15893145 20.0468603,7.5205751 19.9928423,7.91008591 C19.971332,8.06519116 19.9016225,8.20854105 19.7945057,8.31794335 L15.9028136,12.2926699 C15.5821969,12.6201274 15.4358928,13.0919209 15.5115801,13.5542983 L16.430284,19.1667023 C16.493786,19.5546393 16.2451214,19.9230627 15.8748761,19.9895991 C15.7274424,20.0160942 15.5757846,19.9909262 15.4433809,19.9179913 L10.6329849,17.2681736 C10.2366808,17.0498686 9.76323083,17.0498686 9.36692677,17.2681736 Z"></path>
  <path d="M4.55653076,19.9179913 C4.22402971,20.1011503 3.81277596,19.9672048 3.63796981,19.6188158 C3.56836109,19.4800854 3.54434084,19.3211808 3.56962769,19.1667023 L4.48833158,13.5542983 C4.56401892,13.0919209 4.41771482,12.6201274 4.09709811,12.2926699 L0.20540598,8.31794335 C-0.0635930227,8.04320489 -0.0690972269,7.59199863 0.193111996,7.31014595 C0.297525084,7.19791074 0.434337612,7.12487032 0.582369408,7.10233221 L5.96055565,6.28349351 C6.40363705,6.21603355 6.78666617,5.92444913 6.98481819,5.50376427 L9.3900162,0.397430427 C9.50449178,0.154394075 9.73351844,0.00999686636 9.97504247,0.000499871936 C10.0478667,-0.0023636577 10.0478667,5.6988119 9.97504247,17.1040265 C9.70674445,17.1379292 9.50403922,17.1926449 9.36692677,17.2681736 L4.55653076,19.9179913 Z" id="half"></path>
</svg>
