<?xml version="1.0" encoding="UTF-8"?>
<svg width="5px" height="16px" viewBox="0 0 5 16" version="1.1" xmlns="http://www.w3.org/2000/svg" xmlns:xlink="http://www.w3.org/1999/xlink">
    <!-- Generator: Sketch 50.2 (55047) - http://www.bohemiancoding.com/sketch -->
    <title>!</title>
    <desc>Created with Sketch.</desc>
    <defs></defs>
    <g id="Symbols" stroke="none" stroke-width="1" fill="none" fill-rule="evenodd">
        <g id="2-Elements/Bubbles/Warning" transform="translate(-13.000000, -7.000000)" fill="#FFFFFF">
            <path d="M15.5923181,16.7971698 C14.8609577,16.7971698 14.2877379,16.5896247 13.8726415,16.1745283 C13.4575451,15.7594319 13.25,15.1862121 13.25,14.4548518 L13.25,7.60579515 C13.25,7.3685972 13.3883634,7.25 13.6650943,7.25 L15.0586253,7.25 C15.7899857,7.25 16.3632055,7.45754509 16.7783019,7.87264151 C17.1933983,8.28773792 17.4009434,8.86095771 17.4009434,9.59231806 L17.4009434,16.4413747 C17.4009434,16.6785726 17.26258,16.7971698 16.9858491,16.7971698 L15.5923181,16.7971698 Z M13.6057951,22.3712938 C13.3685972,22.3712938 13.25,22.2329304 13.25,21.9561995 L13.25,18.6947439 C13.25,18.418013 13.3685972,18.2796496 13.6057951,18.2796496 L15.0586253,18.2796496 C15.7899857,18.2796496 16.3632055,18.4871947 16.7783019,18.9022911 C17.1933983,19.3173875 17.4009434,19.8906073 17.4009434,20.6219677 L17.4009434,21.9561995 C17.4009434,22.2329304 17.2823462,22.3712938 17.0451482,22.3712938 L13.6057951,22.3712938 Z" id="!"></path>
        </g>
    </g>
</svg>