<svg viewBox="0 0 24 24"><path d="M21.5946 17.8936c-.262.454-1.368.746-3.68.196-.752-.177-1.562-.432-2.406-.745.129-.903.226-1.845.283-2.802.801-.529 1.568-1.084 2.287-1.647 2.749 2.286 3.949 4.249 3.516 4.998m-9.754 5.632c-.865 0-1.964-2.018-2.569-5.535a34.931 34.931 0 0 0 2.569-1.162c.873.438 1.733.824 2.569 1.162-.605 3.517-1.704 5.535-2.569 5.535m-6.074-5.436c-2.314.549-3.418.258-3.68-.196-.263-.454.038-1.557 1.67-3.285.528-.56 1.152-1.133 1.842-1.705.71.555 1.475 1.107 2.291 1.643.058.956.154 1.896.283 2.798-.844.313-1.654.568-2.406.745m-2.01-8.174c-1.632-1.728-1.933-2.831-1.67-3.285.161-.278.638-.495 1.515-.495.555 0 1.269.086 2.165.299.752.179 1.562.433 2.406.745-.129.903-.225 1.842-.283 2.797-.816.537-1.581 1.089-2.291 1.645-.69-.573-1.314-1.145-1.842-1.706m8.084-8.916c.866 0 1.966 2.02 2.57 5.543-.846.34-1.709.727-2.567 1.157-.874-.44-1.734-.827-2.572-1.164.605-3.518 1.704-5.536 2.569-5.536m4.005 10.221c.511.35.997.699 1.442 1.041-.445.344-.931.692-1.442 1.043.009-.348.015-.695.015-1.042 0-.347-.006-.694-.015-1.042m-2.902-2.945c.559-.268 1.102-.512 1.621-.726.074.556.133 1.15.181 1.766-.297-.183-.595-.36-.895-.534-.302-.174-.605-.342-.907-.506m-4.008 1.039c.049-.615.107-1.209.181-1.765.532.22 1.074.462 1.624.724-.306.166-.61.335-.91.508-.303.174-.6.353-.895.533m-1.1 3.989c-.5-.344-.98-.691-1.435-1.042a34.38 34.38 0 0 1 1.435-1.041c-.009.348-.015.695-.015 1.042 0 .347.006.694.015 1.041m2.905 2.947c-.55.263-1.092.505-1.624.724-.074-.555-.133-1.149-.181-1.766.295.181.592.36.895.535.303.174.607.342.91.507m4.005-1.042c-.048.617-.107 1.211-.181 1.766-.532-.219-1.074-.461-1.624-.724.303-.165.607-.333.91-.507.3-.173.598-.353.895-.535m-1.395-.331c-.505.291-1.008.563-1.51.824-.502-.261-1.006-.533-1.51-.824-.505-.291-.992-.591-1.468-.896-.025-.555-.042-1.123-.042-1.719 0-.596.017-1.165.042-1.72.476-.304.963-.605 1.468-.896.514-.297 1.015-.569 1.506-.825.503.26 1.008.533 1.514.825.516.298 1 .598 1.469.896.024.555.041 1.124.041 1.72 0 .596-.017 1.164-.041 1.72-.469.299-.953.598-1.469.895m6.753-8.737c.79 0 1.308.173 1.491.49.433.75-.767 2.713-3.516 4.998a34.7 34.7 0 0 0-2.287-1.647c-.057-.955-.154-1.894-.282-2.796 1.929-.711 3.52-1.045 4.594-1.045m-1.245 6.121c2.723-2.293 4.451-4.659 3.602-6.131-.849-1.47-3.763-1.158-7.111.054-.624-3.505-1.81-6.185-3.509-6.185-1.697 0-2.883 2.675-3.507 6.176-.816-.295-1.603-.54-2.337-.714-2.526-.6-4.178-.369-4.776.669-.599 1.037.027 2.583 1.809 4.472.515.546 1.118 1.103 1.779 1.659-.661.557-1.264 1.114-1.779 1.66-1.782 1.889-2.408 3.435-1.809 4.472.382.661 1.191.995 2.382.995.678 0 1.479-.108 2.394-.325.734-.174 1.521-.419 2.337-.714.624 3.501 1.81 6.176 3.507 6.176s2.883-2.675 3.507-6.176c.816.295 1.602.54 2.336.714.916.217 1.717.325 2.394.325 1.192 0 2.001-.334 2.383-.995.849-1.472-.879-3.839-3.602-6.132" fill-rule="evenodd"/></svg>