<svg viewBox="0 0 24 24"><g fill-rule="evenodd"><path d="M23 12H1v-1.5h22V12zm-2.917 11H3.917L2.099 13h19.802l-1.818 10zM23.5 9.5H.5c-.276 0-.5.224-.5.5v2.5c0 .276.224.5.5.5h.583l1.925 10.59c.043.237.25.41.492.41h17c.242 0 .449-.173.492-.41L22.917 13h.583c.276 0 .5-.224.5-.5V10c0-.276-.224-.5-.5-.5zM3.5 7c.128 0 .256-.049.354-.146l6-6a.5016.5016 0 0 0 0-.708.5016.5016 0 0 0-.708 0l-6 6a.5016.5016 0 0 0 0 .708c.098.097.226.146.354.146m16.6465-.1465a.498.498 0 0 0 .354.146c.127 0 .255-.048.353-.146a.5003.5003 0 0 0 0-.707l-6-6a.5003.5003 0 0 0-.707 0 .5003.5003 0 0 0 0 .707l6 6z"/><path d="M13.7681 20.9932a.409.409 0 0 0 .035.001c.26 0 .48-.201.498-.465l.371-5.293c.019-.275-.189-.514-.465-.534-.274-.014-.514.188-.533.464l-.37 5.293a.501.501 0 0 0 .464.534m3.8354-.0166c.021.003.042.004.062.004.249 0 .464-.186.495-.44l.647-5.266c.033-.274-.162-.524-.435-.557-.283-.041-.524.161-.558.436l-.646 5.266a.499.499 0 0 0 .435.557m-7.4311.0175c.012 0 .023 0 .035-.001.276-.02.484-.259.465-.534l-.371-5.293c-.019-.276-.268-.479-.533-.464-.276.02-.484.259-.465.534l.371 5.293c.018.264.238.465.498.465m-3.8619-.0136c.02 0 .041-.001.062-.004.273-.033.468-.283.435-.557l-.647-5.266c-.033-.275-.277-.479-.557-.436-.274.034-.469.284-.435.557l.646 5.267c.031.253.247.439.496.439"/></g></svg>