<svg viewBox="0 0 24 24"><path d="M19.9165 3.583c1.149 0 2.083.935 2.083 2.083 0 .276-.223.5-.5.5-.276 0-.5-.224-.5-.5 0-.597-.485-1.083-1.083-1.083h-4.997c-.526 0-1-.293-1.235-.764l-.305-.608a.3798.3798 0 0 0-.341-.211h-2.077c-.146 0-.276.081-.341.211l-.305.608c-.235.471-.709.764-1.235.764h-4.997c-.598 0-1.084.486-1.084 1.083 0 .276-.223.5-.5.5-.276 0-.5-.224-.5-.5 0-1.148.935-2.083 2.084-2.083h4.997c.145 0 .276-.081.341-.211l.304-.608c.235-.471.709-.764 1.236-.764h2.077c.526 0 1 .293 1.235.764l.305.608c.065.13.196.211.341.211h4.997zm-.8315 3.958c.276 0 .5.224.5.5v11.033c0 1.797-1.496 3.259-3.334 3.259H7.749c-1.839 0-3.334-1.462-3.334-3.259V8.041c0-.276.223-.5.5-.5.276 0 .5.224.5.5v11.033c0 1.245 1.046 2.259 2.334 2.259h8.502c1.287 0 2.334-1.014 2.334-2.259V8.041c0-.276.224-.5.5-.5zM8.1338 19.625c-.276 0-.5-.224-.5-.5v-6.334c0-.276.224-.5.5-.5s.5.224.5.5v6.334c0 .276-.224.5-.5.5zm4.3662-.5c0 .276-.224.5-.5.5s-.5-.224-.5-.5v-6.334c0-.276.224-.5.5-.5s.5.224.5.5v6.334zm3.8657 0c0 .276-.224.5-.5.5s-.5-.224-.5-.5v-6.334c0-.276.224-.5.5-.5s.5.224.5.5v6.334z" fill-rule="evenodd"/></svg>