<svg viewBox="0 0 24 24"><path d="M15.2386 7.634v-.001l.3894.2818-.3894-.2808zm-6.5298 5.2837c.001-.001.001-.001.001-.002l.2865.3876-.2875-.3856zm3.0451 3.4192l.3904-.2807-.3894.2817c-.001 0-.001-.001-.001-.001zm8.8866-1.649a.4036.4036 0 0 1-.327.1644h-2.022v3.8654c0 1.0086-.8212 1.8298-1.8299 1.8298h-2.951c-1.0153 0-1.8413.826-1.8413 1.9221 0 .3346-.273.6087-.6086.6087h-.8943v-4.428l1.3972-1.397c.0653.0134.126.0452.1923.0452a.9535.9535 0 0 0 .5596-.1808.9544.9544 0 0 0 .3875-.626.9512.9512 0 0 0-.1692-.7163c-.3087-.4289-.9106-.527-1.3424-.2183-.3403.2471-.4615.674-.347 1.0558l-1.6395 1.6394v4.826h-3.902c-.3278 0-.596-.2616-.6076-.5866l.4567-4.1057c0-1.0048-.3163-2.0808-.826-2.8097-1.0269-1.4692-1.725-2.873-2.0836-4.1548l4.1317-.0586 1.403 1.3634c-.053.2587-.0087.5366.1605.7645a.9515.9515 0 0 0 .6308.3779.9563.9563 0 0 0 .7154-.1798.9541.9541 0 0 0 .3769-.6299.9599.9599 0 0 0-.1789-.7153c-.251-.3366-.6798-.452-1.0605-.3318l-1.6626-1.6163-4.7201.0673c-.049-.3366-.0818-.6664-.076-.9808.0587-3.45 2.1433-6.3952 5.0962-7.7384v3.9125c-.2827.1682-.4808.4634-.4808.8144 0 .5307.4307.9615.9615.9615.5298 0 .9616-.4308.9616-.9615 0-.351-.199-.6462-.4808-.8144V1.3677c.826-.2606 1.7029-.4048 2.6115-.4048.0481 0 .0952 0 .1423.001.6587.0096 1.2981.1028 1.9154.2557v4.5l1.6385 1.6375c-.0423.1385-.0625.2837-.0385.4308a.9592.9592 0 0 0 .9471.8077.9421.9421 0 0 0 .1548-.0125.9597.9597 0 0 0 .627-.3866.9554.9554 0 0 0 .1692-.7163.9568.9568 0 0 0-.3865-.626.9526.9526 0 0 0-.7173-.1692c-.0183.0029-.0318.0144-.05.0183L13.651 5.3215v-3.801c3.2884 1.2376 5.651 4.4183 5.651 8.1116l1.4009 4.6952a.4007.4007 0 0 1-.0625.3606zM8.0203 6.4706h-.4808v-.001l.4808.001zm13.6029 7.5769L20.2626 9.56c-.0385-5.1933-4.273-9.474-9.4721-9.5577-5.3279-.102-9.699 4.1596-9.7894 9.4625-.0337 1.9664.8201 4.2077 2.5375 6.6615.4019.576.6519 1.4414.6548 2.2058l-.4577 4.0837-.003.0538c0 .8654.7049 1.5702 1.5703 1.5702h5.7577c.8654 0 1.5702-.7048 1.5702-1.651 0-.4855.3942-.8798.8798-.8798h2.951c1.5394 0 2.7913-1.2519 2.7913-2.7913v-2.9039h1.0606c.4384 0 .8384-.2019 1.1-.5538.2605-.352.3365-.7942.2096-1.2125z" fill-rule="evenodd"/></svg>