<svg viewBox="0 0 24 24"><g fill-rule="evenodd"><path d="M12 23C5.935 23 1 18.065 1 12S5.935 1 12 1s11 4.935 11 11-4.935 11-11 11M0 12c0 6.627 5.373 12 12 12s12-5.373 12-12S18.627 0 12 0 0 5.373 0 12z"/><path d="M12.5264 15.6958h-2.862v-3.435h2.862c.947 0 1.717.77 1.717 1.718 0 .946-.77 1.717-1.717 1.717zm-2.862-7.87h2.862c.947 0 1.717.77 1.717 1.718 0 .946-.77 1.717-1.717 1.717h-2.862v-3.435zm4.423 3.935c.697-.492 1.156-1.301 1.156-2.217 0-1.499-1.218-2.718-2.717-2.718h-.195v-1.326c0-.276-.223-.5-.5-.5-.276 0-.5.224-.5.5v1.326h-.702v-1.326c0-.276-.224-.5-.5-.5-.277 0-.5.224-.5.5v1.326h-1.129c-.277 0-.5.224-.5.5s.223.5.5.5h.164v7.87h-.164c-.277 0-.5.224-.5.5s.223.5.5.5h1.129v1.326c0 .277.223.5.5.5.276 0 .5-.223.5-.5v-1.326h.702v1.326c0 .277.224.5.5.5.277 0 .5-.223.5-.5v-1.326h.195c1.499 0 2.717-1.219 2.717-2.717 0-.917-.459-1.725-1.156-2.218z"/></g></svg>