<svg viewBox="0 0 24 24"><g fill-rule="evenodd"><path d="M15.853 22.8574H8.861c-1.577 0-2.861-1.284-2.861-2.862v-9.053c2.082-.73 4.396-.698 6.888.117 1.412.461 2.665.692 3.753.692.779 0 1.467-.127 2.073-.365v8.609c0 1.578-1.283 2.862-2.861 2.862M7.052 6.6004l2.385-1.949c.431-.353.677-.873.677-1.429v-2.05c0-.096.076-.172.172-.172h4.142c.096 0 .172.076.172.172v2.05c0 .556.247 1.076.677 1.43l2.387 1.949c.668.544 1.05 1.352 1.05 2.216v1.468c-1.236.67-3.085.617-5.516-.177-2.576-.842-4.991-.908-7.198-.221v-1.07c0-.864.383-1.672 1.052-2.217m11.244-.774l-2.385-1.948a.8456.8456 0 0 1-.311-.656v-2.05c0-.646-.526-1.172-1.172-1.172h-4.142c-.646 0-1.172.526-1.172 1.172v2.05c0 .255-.113.493-.31.656l-2.385 1.948C5.518 6.5614 5 7.6514 5 8.8174v11.178c0 2.13 1.732 3.862 3.861 3.862h6.992c2.129 0 3.861-1.732 3.861-3.862V8.8174c0-1.165-.517-2.256-1.418-2.991"/><path d="M15.0312 16.0826c-.6138 0-1.1138-.4854-1.1138-1.0835 0-.5963.5-1.0817 1.1138-1.0817.6138 0 1.1138.4854 1.1138 1.0817 0 .5981-.5 1.0835-1.1138 1.0835m0-3.0826c1.1202 0 2.0312.8963 2.0312 1.999 0 1.1028-.911 2.001-2.0312 2.001S13 16.1018 13 14.999c0-1.1027.911-1.999 2.0312-1.999zm-3.104 4c.2505-.0019.4992.0836.6892.2602.1824.169.2928.4166.3024.6595.0096.2592-.0748.506-.2515.697-.1766.189-.4176.2928-.6758.3024-.5011.0192-.9725-.4186-.9907-.9197-.0106-.2582.0892-.505.2592-.6883.169-.1824.409-.3005.6672-.311z"/></g></svg>