<svg viewBox="0 0 24 24"><path d="M20.586 2C22.4719 2 24 3.5286 24 5.414v10.4949a2.4565 2.4565 0 0 1-1.5982 2.3027c-.1998.074-.3107.2135-.3107.3614v2.6565c0 1.3412-1.622 2.013-2.5697 1.0636l-3.808-3.808a.4135.4135 0 0 0-.2918-.1206H3.4139C1.528 18.3645 0 16.8358 0 14.9495V5.414C0 3.5286 1.5282 2 3.414 2h17.172zm0 1.0914H3.414c-1.283 0-2.3226 1.0399-2.3226 2.3225v9.5356c0 1.2836 1.0395 2.3236 2.3225 2.3236h12.0077c.3984 0 .7815.1583 1.0636.4403l3.8082 3.8083c.2607.261.7063.0765.7063-.2922V18.573c0-.6345.4184-1.161 1.0219-1.3844a1.365 1.365 0 0 0 .887-1.2797V5.4139c0-1.2826-1.0396-2.3225-2.3225-2.3225z"/></svg>