<svg viewBox="0 0 24 24"><path d="M20.1616 18.2754l.7598 2.2107c.4212 1.227-.8504 2.3505-2.0158 1.7807l-4.7548-2.321c-.0616-.0298-.3894-.0775-.7175-.102-.1692.016-.4242.0293-.7476.0408-.3395.012-.6779.0198-.9226.0236C5.2616 19.8091 0 15.6457 0 10.4586 0 5.2002 5.3994 1 11.9994 1 18.6004 1 24 5.2 24 10.4586c0 2.6044-1.3416 5.0284-3.6549 6.7931-.228.3465-.2933.7053-.1835 1.0237zm2.7112-7.8168c0-4.5652-4.8418-8.3314-10.8734-8.3314-6.0306 0-10.8722 3.7663-10.8722 8.3314 0 4.5012 4.7148 8.232 10.6352 8.3225.2202-.0036.5523-.0113.8832-.023.3025-.0108.5406-.0232.766-.0382.5687.0316.9832.0919 1.2316.2118l4.7573 2.3223c.2632.1287.55-.1246.4548-.4016l-.7596-2.21c-.2454-.7119-.0852-1.4697.38-2.1151l.119-.1213c2.0888-1.567 3.278-3.6914 3.278-5.9474z"/></svg>