<svg viewBox="0 0 24 24"><g fill-rule="evenodd"><path d="M20.6563 11.0289c-.945-3.563-4.136-6.029-7.849-6.029-2.826 0-5.456 1.481-6.929 3.884-3.266.162-5.878 2.877-5.878 6.177 0 1.834.807 3.562 2.216 4.742a.471.471 0 0 0 .309.113h5.143a.48.48 0 1 0 0-.96h-4.965c-1.11-.993-1.743-2.404-1.743-3.895 0-2.866 2.332-5.21 5.198-5.224a.4805.4805 0 0 0 .416-.244c1.272-2.241 3.661-3.633 6.233-3.633 3.351 0 6.221 2.278 6.977 5.541.038.161.156.293.313.345 1.76.599 2.943 2.247 2.943 4.104 0 1.132-.43 2.192-1.217 3.006h-5.493a.48.48 0 1 0 0 .96h5.691a.484.484 0 0 0 .331-.132c1.063-1.013 1.648-2.374 1.648-3.834 0-2.178-1.333-4.123-3.344-4.921"/><path d="M12.3394 13.1382a.48.48 0 0 0-.339-.141c-.128 0-.25.051-.34.141l-3.189 3.189c-.187.188-.187.492 0 .679.188.188.492.188.679 0l2.37-2.37v4.997c0 .266.215.481.48.481s.48-.215.48-.481v-4.997l2.369 2.37a.477.477 0 0 0 .339.141c.123 0 .246-.047.339-.141a.4792.4792 0 0 0 0-.679l-3.188-3.189z"/></g></svg>