<svg viewBox="0 0 24 24"><g fill-rule="evenodd"><path d="M20.6563 11.0294c-.945-3.563-4.136-6.029-7.849-6.029-2.826 0-5.456 1.481-6.929 3.884-3.266.162-5.878 2.877-5.878 6.178 0 1.833.807 3.562 2.216 4.741a.471.471 0 0 0 .309.113h5.143a.4801.4801 0 0 0 0-.96h-4.965a5.2135 5.2135 0 0 1-1.743-3.894c0-2.866 2.332-5.21 5.198-5.224a.4805.4805 0 0 0 .416-.244c1.272-2.242 3.661-3.634 6.233-3.634 3.352 0 6.221 2.278 6.977 5.541.038.161.156.292.313.345 1.76.598 2.943 2.248 2.943 4.105 0 1.132-.43 2.191-1.216 3.005h-5.493a.4801.4801 0 0 0 0 .96h5.691c.123 0 .241-.047.331-.132 1.062-1.013 1.647-2.374 1.647-3.833 0-2.179-1.333-4.124-3.344-4.922"/><path d="M14.8491 16.1739l-2.369 2.37v-4.997c0-.265-.215-.479-.48-.479s-.48.214-.48.479v4.997l-2.37-2.37a.4798.4798 0 0 0-.678 0 .4792.4792 0 0 0 0 .679l3.189 3.189c.089.09.211.141.339.141a.48.48 0 0 0 .339-.141l3.189-3.189c.187-.188.187-.492 0-.679-.188-.187-.492-.187-.679 0"/></g></svg>