<svg viewBox="0 0 24 24"><g fill-rule="evenodd"><path d="M16.6635 22.6635c-3.3087 0-6-2.6923-6-6 0-3.3087 2.6913-6 6-6 3.3088 0 6 2.6913 6 6 0 3.3077-2.6912 6-6 6m0-13.0909c-3.9098 0-7.0909 3.1811-7.0909 7.091 0 3.9097 3.1811 7.0908 7.091 7.0908 3.9097 0 7.0908-3.181 7.0908-7.0909 0-3.9098-3.181-7.0909-7.0909-7.0909"/><path d="M12.4911 1.8622l3.3197 3.3196H12.491V1.8622zM8.8366 21.7636H1.091V1.091h10.3091v4.6364c0 .301.2444.5454.5455.5454h4.6363V7.415a.545.545 0 0 0 .5455.5455.545.545 0 0 0 .5454-.5455V5.7273a.5443.5443 0 0 0-.0425-.2095.5397.5397 0 0 0-.1178-.1767L12.3319.1604a.5397.5397 0 0 0-.1768-.1179A.5443.5443 0 0 0 11.9457 0h-11.4a.545.545 0 0 0-.5455.5455V22.309a.545.545 0 0 0 .5455.5454h8.2909a.5457.5457 0 0 0 .5454-.5454.545.545 0 0 0-.5454-.5455z"/><path d="M6.189 10.7333l1.452 1.4597a.5456.5456 0 0 0 .4702.1549.5426.5426 0 0 0 .4015-.2902L10.461 8.269a.5454.5454 0 0 0-.2368-.7342c-.2672-.1375-.5967-.0305-.7342.2356l-1.6047 3.1222-1.4247-1.4323c-.12-.1211-.2924-.1757-.456-.1571a.5467.5467 0 0 0-.4026.2672L4.2003 11.989V7.7999a.5457.5457 0 0 0-.5454-.5455.545.545 0 0 0-.5455.5455v10.3636a.545.545 0 0 0 .5455.5455h3.8029a.5457.5457 0 0 0 .5454-.5455.5457.5457 0 0 0-.5454-.5454H4.2003v-3.4528l1.9888-3.432zm12.4928 3.9337h-3.9273a.5457.5457 0 0 0-.5454.5455c0 .3011.2444.5455.5454.5455h3.9273a.5457.5457 0 0 0 .5455-.5455.5457.5457 0 0 0-.5455-.5454m0 2.8146h-3.9273a.5457.5457 0 0 0-.5454.5455c0 .301.2444.5454.5454.5454h3.9273a.5457.5457 0 0 0 .5455-.5454.5457.5457 0 0 0-.5455-.5455"/></g></svg>