<svg viewBox="0 0 24 24"><path d="M9.5335 13.5714a.5724.5724 0 0 1-.5714.5715H1.714a.5724.5724 0 0 1-.5715-.5715V2.8571c0-.3142.256-.5714.5715-.5714h7.248a.5724.5724 0 0 1 .5714.5714v10.7143zM8.962 1.143H1.714c-.9452 0-1.7143.7691-1.7143 1.7142v10.7143c0 .9452.7691 1.7143 1.7143 1.7143h7.248c.9451 0 1.7142-.7691 1.7142-1.7143V2.8571c0-.9451-.7691-1.7142-1.7142-1.7142zm5.3907 1.7141c0-.3142.256-.5714.5714-.5714h6.752a.5724.5724 0 0 1 .5714.5714V5.143a.5724.5724 0 0 1-.5714.5714h-6.752a.5724.5724 0 0 1-.5714-.5714V2.857zm.5714 4h6.752c.9452 0 1.7143-.7691 1.7143-1.7142V2.857c0-.9451-.7691-1.7142-1.7143-1.7142h-6.752c-.9451 0-1.7143.7691-1.7143 1.7142v2.286c0 .9451.7692 1.7142 1.7143 1.7142zm7.5714 14.7143a.5724.5724 0 0 1-.5714.5715h-7.248a.5724.5724 0 0 1-.5714-.5715V10.8571c0-.3142.256-.5714.5714-.5714h7.248a.5724.5724 0 0 1 .5714.5714v10.7143zM21.9241 9.143h-7.248c-.9451 0-1.7143.7691-1.7143 1.7142v10.7143c0 .9452.7692 1.7143 1.7143 1.7143h7.248c.9452 0 1.7143-.7691 1.7143-1.7143V10.8571c0-.9451-.7691-1.7142-1.7143-1.7142zM9.2857 21.5714a.5724.5724 0 0 1-.5714.5715h-6.752a.5724.5724 0 0 1-.5714-.5715v-2.2857c0-.3143.256-.5714.5714-.5714h6.752a.5724.5724 0 0 1 .5714.5714v2.2857zm-.5714-4h-6.752c-.9452 0-1.7143.7692-1.7143 1.7143v2.2857c0 .9452.7691 1.7143 1.7143 1.7143h6.752c.9451 0 1.7143-.7691 1.7143-1.7143v-2.2857c0-.9451-.7692-1.7143-1.7143-1.7143z" fill-rule="evenodd"/></svg>