<svg viewBox="0 0 24 24"><g fill-rule="evenodd"><path d="M15.2699 22.5877c-3.7586 0-6.022-.8317-6.1305-1.2522v-1.3722c1.4922.767 4.2616 1.007 6.1305 1.007 1.8688 0 4.6393-.24 6.1304-1.007v1.3649c-.1085.4278-2.3718 1.2595-6.1304 1.2595zm-13.2261-4.8v-1.3722c1.4713.7565 4.1843.9996 6.0522 1.0059v1.6163c-3.7096-.0125-5.9447-.8327-6.0522-1.25zM8.1742 3.231c3.7565 0 6.0209.8317 6.1305 1.246-.1096.4267-2.374 1.2584-6.1305 1.2584-3.7555 0-6.0188-.8306-6.1304-1.2449v-.001c.1116-.4279 2.375-1.2585 6.1304-1.2585zm13.2261 12.7753c-.1096.4279-2.3729 1.2595-6.1304 1.2595-3.7555 0-6.0188-.8306-6.1305-1.2449v-.001c.1127-.4278 2.376-1.2584 6.1305-1.2584 3.7555 0 6.0208.8316 6.1304 1.2448zM2.0438 13.7546c1.4911.767 4.2616 1.007 6.1304 1.007.2912 0 .6073-.0073.935-.0199-.6178.3246-1.0132.7388-1.0132 1.272v.3632c-3.7086-.0126-5.9437-.8327-6.0522-1.2501v-1.3722zm6.1304-1.6539c1.8689 0 4.6393-.24 6.1305-1.007v1.365c-.1096.4277-2.3719 1.2594-6.1305 1.2594-3.7586 0-6.0219-.8317-6.1304-1.2522v-1.3722c1.4911.767 4.2616 1.007 6.1304 1.007zm0-2.6609c1.8689 0 4.6393-.24 6.1305-1.007v1.366c-.1096.4268-2.374 1.2584-6.1305 1.2584-3.7575 0-6.0208-.8316-6.1304-1.2522V8.433C3.5349 9.2 6.3054 9.44 8.1742 9.44zm6.1305-3.6678v1.366c-.1096.4267-2.374 1.2583-6.1305 1.2583-3.7575 0-6.0208-.8316-6.1304-1.2521V5.772c1.4911.767 4.2616 1.007 6.1304 1.007 1.8689 0 4.6393-.24 6.1305-1.007zm7.0956 12.8963c-.1096.4268-2.3729 1.2585-6.1304 1.2585-3.7576 0-6.0209-.8317-6.1305-1.2522v-1.3722c1.4922.767 4.2616 1.007 6.1305 1.007 1.8688 0 4.6393-.24 6.1304-1.007v1.366zm-6.0532-4.9492v-.9516c0-.046-.0157-.0877-.0271-.1305.0104-.0563.0281-.1116.0281-.171V4.4832c0-1.8125-4.5099-2.2956-7.1739-2.2956-2.665 0-7.1739.483-7.1739 2.2956v13.3044c0 1.7958 4.4223 2.2862 7.0957 2.2946v1.2532c0 1.8125 4.5088 2.2956 7.1739 2.2956 2.665 0 7.1739-.4831 7.1739-2.2956v-5.3218c0-1.7958-4.4233-2.2862-7.0967-2.2946z"/><path d="M20.1315 5.0085c-.889-.2974-1.2825-.48-1.3221-.985-.0584-.7472 1.0257-.8453 1.0362-.8453.7544-.0647 1.4462.311 1.4535.3141a.5213.5213 0 0 0 .7075-.2056.5214.5214 0 0 0-.2024-.7074c-.0324-.0178-.6355-.337-1.4233-.4247V1.565a.5213.5213 0 0 0-.5218-.5217.522.522 0 0 0-.5217.5217v.6428c-.8911.217-1.6477.8786-1.5684 1.896.097 1.247 1.2147 1.6216 2.0317 1.8939.8264.2776 1.1927.4424 1.225.8588.0668.8264-.601 1.0049-1.0048 1.0372-.9997.0897-1.7082-.577-1.7124-.5812a.5222.5222 0 0 0-.7377.0115.5212.5212 0 0 0 .0115.7377c.0334.0334.7064.671 1.755.84v.5572c0 .289.2338.5218.5218.5218a.5206.5206 0 0 0 .5218-.5218v-.5697c1.1019-.2014 1.7739-1.0174 1.6852-2.1172-.0918-1.1458-1.1134-1.488-1.9346-1.7635"/></g></svg>