<svg viewBox="0 0 24 24"><path d="M16.6956 18.6534c-.76.9274-1.7544 1.5628-2.9297 1.8826-.2573.071-.2946.1188-.2836.353.0084.2186.0092.437.0048.7377-.0015.1029-.0015.1029-.0033.2048a27.034 27.034 0 0 0-.0057.4994c0 .6925-.4288 1.142-1.1196 1.159a38.7007 38.7007 0 0 1-1.5551.0045c-.716-.0163-1.1438-.4847-1.1512-1.1933a73.2576 73.2576 0 0 1-.0045-.524 72.5285 72.5285 0 0 0-.0045-.518c-.0063-.5244.1434-.3457-.3473-.4244-1.1547-.1852-2.041-.427-2.8672-.8265-.8895-.4365-1.0763-.8467-.8164-1.7911.2079-.7537.3197-1.1452.46-1.5945.2842-.8996.7853-1.1171 1.6207-.6834.8558.4448 1.7968.72 2.8573.8518.6287.079 1.2002.0086 1.7222-.2205.8383-.3676.9612-1.2775.2476-1.8674-.2608-.2194-.5763-.4003-1.0072-.5891-.2548-.113-.4879-.2094-.9181-.3826l-.0754-.0304c-1.0848-.4366-1.5731-.6563-2.1556-1.006-1.8806-1.126-2.8412-2.6385-2.7187-4.643.1392-2.3085 1.4293-3.8878 3.6959-4.7123.3048-.1104.374-.1367.4504-.1735.0714-.0344.0531.025.056-.5133.0015-.101.0016-.1829.0008-.3676-.0012-.2565-.0007-.371.0039-.5156.0255-.9143.3477-1.2419 1.261-1.2676.1176-.0026.2096-.0026.4148-.001.0995.0007.0995.0007.1967.001 1.652 0 1.8797.2232 1.885 1.862.0033.704-.0849.544.2325.6004.076.0136.1501.0254.3226.052.7733.1223 1.5236.3481 2.2706.678.608.271.8683.7902.6796 1.4307a51.6877 51.6877 0 0 0-.1543.5317l-.0325.1138c-.1628.5701-.2395.8301-.3433 1.152-.2758.85-.7809 1.068-1.5872.6776-.994-.4776-2.0415-.6835-3.153-.6231-.3188.0186-.5388.06-.7326.1448-.6889.3022-.785.9764-.2087 1.4364.362.2875.7904.5209 1.358.7558.1548.0642.1548.0642.3102.1284l.0788.0326c1.1482.4747 1.7082.726 2.3508 1.0815 3.027 1.6726 3.8373 5.4938 1.6945 8.0967zm-2.1782-7.2215c-.5995-.3317-1.135-.572-2.2492-1.0326l-.0786-.0325c-.1559-.0644-.1559-.0644-.3113-.129-.6459-.2672-1.1516-.5427-1.5978-.897-1.1702-.934-.9423-2.5327.4302-3.1348.3215-.1407.6489-.2021 1.0775-.2272 1.2807-.0696 2.4959.1692 3.6438.7208.2598.1257.1124.1894.2013-.0846.099-.3069.1735-.5595.3333-1.119l.0325-.114a52.507 52.507 0 0 1 .1569-.5405c.0427-.145.0345-.1612-.1263-.2329-.6681-.295-1.3355-.4959-2.0193-.6041-.1783-.0275-.257-.04-.3434-.0554-.8917-.1586-1.052-.4496-1.0572-1.554-.0037-1.112.2193-.893-.8852-.893-.1035-.0003-.1035-.0003-.2043-.0011-.1951-.0015-.2803-.0015-.3818.0008-.3766.0106-.276-.0917-.2869.2975-.004.1304-.0045.237-.0034.4815.0008.1914.0008.2777-.0009.3824-.0047.8908-.0825 1.1443-.6223 1.404-.1214.0585-.1947.0864-.5428.2125-1.9065.6935-2.9248 1.9401-3.039 3.833-.0976 1.5972.6515 2.7767 2.2349 3.7246.523.314.9784.519 2.0147.936l.0755.0304c.4403.1773.6815.2771.9479.3952.5091.2231.9027.4488 1.2444.7362 1.2823 1.0601 1.0361 2.8834-.4864 3.5512-.6946.3048-1.4474.3975-2.2479.297-1.1726-.1458-2.2276-.4543-3.1943-.9566-.2768-.1438-.1067-.2177-.2056.0956-.1355.4339-.2451.8175-.45 1.5604-.132.4793-.1671.402.2903.6266.7218.349 1.5208.5669 2.5875.738.9774.1567 1.177.3948 1.1889 1.3993.0019.1456.0028.2621.0046.524.0016.2597.0026.3747.0045.5188.002.187.0152.2016.1703.2052a37.715 37.715 0 0 0 1.5115-.0045c.1432-.0035.1441-.0045.1441-.1592 0-.1446.0015-.2591.0059-.5164l.0032-.2021c.0041-.2848.0034-.4875-.004-.6806-.0335-.7126.3226-1.168 1.0182-1.3602.9788-.2663 1.794-.7872 2.4215-1.553 1.7395-2.113 1.0824-5.212-1.4055-6.5867z"/></svg>