<svg viewBox="0 0 24 24"><g fill-rule="evenodd"><path d="M7.4409 13.7304h1.8545l-.1374 5.8571H7.3034l.1375-5.857zm6.4134 5.8571h1.8546v-2.712h-1.8546v2.712zm6.0458-9.4636h1.8546l-.1462 9.4636H19.754l.146-9.4635zm3.227 9.7134h-.432l.1592-10.2501a.5437.5437 0 0 0-.157-.3906.543.543 0 0 0-.3884-.1636h-2.9455c-.2978 0-.54.24-.5454.5378l-.1593 10.2665h-1.859v-3.5072a.5457.5457 0 0 0-.5454-.5455H13.309a.5457.5457 0 0 0-.5455.5455v3.5072h-2.521l.157-6.6392a.5491.5491 0 0 0-.1549-.395.5462.5462 0 0 0-.3905-.1636H6.9085a.5451.5451 0 0 0-.5454.5324l-.1571 6.6654H.5452a.545.545 0 0 0-.5454.5455c0 .301.2443.5455.5454.5455h22.5819a.5457.5457 0 0 0 .5454-.5455.545.545 0 0 0-.5454-.5455z"/><path d="M2.1792 14.4837c.7156 0 1.2982-.5825 1.2982-1.2982 0-.0894-.0327-.1669-.0502-.2509l4.3047-3.9403c.1746.0785.3644.1276.5673.1276.419 0 .7822-.1953 1.0375-.4898l4.129 1.2982c.1593.5912.6764 1.0352 1.3157 1.0352.7647 0 1.3876-.6218 1.3876-1.3876 0-.1211-.0403-.2313-.0698-.3436l4.669-4.6353c.1725.0785.36.1287.562.1287.7515 0 1.3635-.612 1.3635-1.3636 0-.7528-.612-1.3637-1.3636-1.3637-.7527 0-1.3636.611-1.3636 1.3637 0 .145.0403.2792.0829.4112l-4.6277 4.5939c-.1941-.1037-.4047-.1779-.6403-.1779-.4877 0-.8967.2684-1.1444.6502L9.6574 7.5903c-.0764-.6939-.6437-1.2426-1.3582-1.2426-.7647 0-1.3865.6218-1.3865 1.3866 0 .1592.0414.3054.0905.4483L2.777 12.051c-.181-.096-.3785-.1647-.5978-.1647-.7156 0-1.2982.5825-1.2982 1.2992 0 .7157.5826 1.2982 1.2982 1.2982"/></g></svg>