<svg viewBox="0 0 24 24"><path d="M9.5002 10.0003c.2759 0 .5-.2241.5-.5v-7c0-.2764-.2237-.5-.5-.5h-7c-.2763 0-.5.2236-.5.5v7c0 .2759.2241.5.5.5h7zm0 1h-7c-.8281 0-1.5-.6719-1.5-1.5v-7c0-.8289.6716-1.5 1.5-1.5h7c.8284 0 1.5.6711 1.5 1.5v7c0 .8281-.6719 1.5-1.5 1.5zm12-1c.2759 0 .5-.2241.5-.5v-7c0-.2764-.2237-.5-.5-.5h-7c-.2763 0-.5.2236-.5.5v7c0 .2759.2241.5.5.5h7zm0 1h-7c-.8281 0-1.5-.6719-1.5-1.5v-7c0-.8289.6716-1.5 1.5-1.5h7c.8284 0 1.5.6711 1.5 1.5v7c0 .8281-.6719 1.5-1.5 1.5zm-12 11c.2759 0 .5-.2241.5-.5v-7c0-.2764-.2237-.5-.5-.5h-7c-.2763 0-.5.2236-.5.5v7c0 .2759.2241.5.5.5h7zm0 1h-7c-.8281 0-1.5-.6719-1.5-1.5v-7c0-.8289.6716-1.5 1.5-1.5h7c.8284 0 1.5.6711 1.5 1.5v7c0 .8281-.6719 1.5-1.5 1.5zm12-1c.2759 0 .5-.2241.5-.5v-7c0-.2764-.2237-.5-.5-.5h-7c-.2763 0-.5.2236-.5.5v7c0 .2759.2241.5.5.5h7zm0 1h-7c-.8281 0-1.5-.6719-1.5-1.5v-7c0-.8289.6716-1.5 1.5-1.5h7c.8284 0 1.5.6711 1.5 1.5v7c0 .8281-.6719 1.5-1.5 1.5z"/></svg>