<svg viewBox="0 0 24 24"><path d="M1.9782 14.8122v4.1188a.428.428 0 0 0 .214.3695l3.5656 2.0592a.429.429 0 0 0 .428.0002l3.5662-2.0596a.428.428 0 0 0 .2136-.3693v-4.1188a.4279.4279 0 0 0-.2138-.3705L6.186 12.3834a.429.429 0 0 0-.428-.0001l-3.565 2.058a.4283.4283 0 0 0-.2148.3709zm-1 0c0-.51.2717-.98.714-1.2365l3.566-2.0586a1.4292 1.4292 0 0 1 1.4276.0001l3.5668 2.059c.4413.256.713.726.713 1.236v4.1188c0 .509-.2726.981-.7138 1.2355L6.6856 22.226a1.4292 1.4292 0 0 1-1.4277-.0001l-3.5656-2.0593a1.428 1.428 0 0 1-.7141-1.2356v-4.1188zm12.8187 0v4.1188a.429.429 0 0 0 .213.3695l3.5667 2.0592a.4272.4272 0 0 0 .427.0002l3.5671-2.0596a.428.428 0 0 0 .2137-.3693v-4.1188a.4279.4279 0 0 0-.2138-.3704l-3.5667-2.0584a.4272.4272 0 0 0-.4272 0l-3.5653 2.0574a.4294.4294 0 0 0-.2145.3714zm-1 0c0-.5096.2713-.9795.713-1.2366l3.5671-2.0585a1.4274 1.4274 0 0 1 1.4266.0001l3.5678 2.059c.4413.256.713.726.713 1.236v4.1188c0 .509-.2726.981-.7139 1.2355l-3.567 2.0595a1.4274 1.4274 0 0 1-1.4267-.0001l-3.5673-2.0596a1.429 1.429 0 0 1-.7126-1.2353v-4.1188zM7.8874 4.4642V8.583a.429.429 0 0 0 .2138.3705l3.5658 2.0583a.429.429 0 0 0 .428.0001l3.565-2.058a.4295.4295 0 0 0 .2148-.3709V4.4642a.4269.4269 0 0 0-.214-.3695l-3.5656-2.0592a.429.429 0 0 0-.428-.0002L8.1011 4.0949a.4268.4268 0 0 0-.2137.3693zm-1 0c0-.5097.2724-.9809.7138-1.2355l3.5662-2.0595a1.4292 1.4292 0 0 1 1.4277.0001l3.5656 2.0593c.4418.2547.7141.726.7141 1.2356V8.583a1.43 1.43 0 0 1-.7139 1.2365l-3.5661 2.0586a1.4292 1.4292 0 0 1-1.4276-.0001L7.6004 9.819a1.4295 1.4295 0 0 1-.713-1.236V4.4642z"/></svg>