<svg viewBox="0 0 24 24"><g fill-rule="evenodd"><path d="M23.6232 15.2292a.4814.4814 0 0 0-.4022-.333s-.3975-.0462-1.3527-.1114c-.9936-.0567-5.041 1.968-6.2582 2.5939a.4796.4796 0 0 0-.2074.646c.12.2343.41.3274.6461.2074 2.3453-1.2057 5.184-2.4902 5.737-2.4902.0057 0 .0115 0 .0172.001.0692.0047.1354.0086.1988.0134-2.9933 2.6016-7.2999 6.1065-8.2973 6.266-1.2816.2073-6.2199-.5876-8.016-.9102-.1325-.0259-.2669.0087-.3744.0903l-2.5594 1.9344a.4813.4813 0 0 0-.0931.673.48.48 0 0 0 .383.19.4768.4768 0 0 0 .29-.097l2.3913-1.8086c1.153.2016 6.576 1.128 8.1303.8755 1.6944-.2707 8.3174-6.0768 9.6278-7.2374a.4787.4787 0 0 0 .1392-.503"/><path d="M13.124 17.7488c-.0086.1756-.0566.3897-.2255.4704-.3552.1699-2.3492.3638-4.0704.4521a.4814.4814 0 0 0-.455.505c.0143.264.2342.458.5049.454.6163-.0316 3.7286-.2073 4.4342-.5452.7786-.3725.8343-1.2893.745-1.7722a.483.483 0 0 0-.3091-.3638c-.1844-.0663-4.5514-1.6435-6.8237-1.394C4.627 15.801.3685 19.0372.188 19.1745c-.2103.1603-.2506.4617-.0893.673a.4804.4804 0 0 0 .382.188.4758.4758 0 0 0 .29-.0978C1.94 19.0458 5.3412 16.69 7.027 16.5095c1.7366-.1824 5.0851.8938 6.097 1.2394m-1.641-7.7172v.5443c0 .266.215.48.48.48s.48-.214.48-.48v-.5577c1.0484-.1853 1.6887-.9581 1.6061-2.0007-.0873-1.081-1.055-1.4054-1.8326-1.6656-.8535-.286-1.2327-.4627-1.271-.9532-.0567-.7287.9926-.8237 1.0031-.8237.722-.0586 1.3882.2985 1.394.3014a.4805.4805 0 0 0 .6518-.1891.4795.4795 0 0 0-.1882-.6509c-.0297-.0163-.6115-.3273-1.3632-.406v-.5751a.4801.4801 0 0 0-.96 0v.625c-.8467.2016-1.5696.8284-1.4947 1.7932.0922 1.176 1.151 1.5303 1.9229 1.7885.7958.2669 1.1482.4263 1.1808.8323.0662.8324-.6586.9821-.9744 1.007-.9475.0788-1.6397-.5538-1.6445-.5586a.4795.4795 0 0 0-.6787.0105.4804.4804 0 0 0 .0106.6787c.0326.0317.6758.6423 1.678.7997"/><path d="M11.8575.96c3.2295 0 5.856 2.6266 5.856 5.856 0 3.2285-2.6265 5.856-5.856 5.856-3.2284 0-5.856-2.6275-5.856-5.856 0-3.2294 2.6276-5.856 5.856-5.856m0 12.672c3.7584 0 6.816-3.0576 6.816-6.816S15.616 0 11.8575 0s-6.816 3.0576-6.816 6.816 3.0576 6.816 6.816 6.816"/></g></svg>