<svg viewBox="0 0 24 24"><path d="M15.391 17.6868l2.2273-5.7312 2.305 5.7312H15.391zm7.465 4.7223l-4.8-11.9386a.479.479 0 0 0-.4444-.3005h-.003a.479.479 0 0 0-.4444.3063l-2.9155 7.5014c-.001.002-.001.0048-.002.0067l-1.7222 4.4304c-.096.2468.026.5252.2727.6202a.4642.4642 0 0 0 .1737.0326.4782.4782 0 0 0 .4474-.3062l1.5993-4.1146h5.2916l1.657 4.1204c.0988.2467.3782.3628.624.2659.2457-.098.3647-.3783.2658-.624zm-10.1902-5.7909a.4769.4769 0 0 0 .3072.1113.48.48 0 0 0 .3687-.1718.4808.4808 0 0 0-.0605-.6768c-.746-.622-1.967-1.7242-3.1498-2.952v-.001c.1651-.1468 3.9283-3.5539 4.8298-7.8777h3.1833a.4801.4801 0 0 0 0-.96h-7.8518V1.4396a.4801.4801 0 0 0-.96 0v2.6506H1.4799a.4801.4801 0 0 0 0 .96h12.4992c-.913 3.9245-4.4496 7.129-4.5024 7.177l-.002.0009c-1.4735-1.6205-2.7263-3.3418-2.6649-4.4304a.4787.4787 0 0 0-.4512-.5069c-.2573-.0365-.4915.1863-.5069.4522-.0816 1.4342 1.3536 3.4233 2.9328 5.1619l-5.349 5.2426c-.1902.1852-.192.4896-.0068.6787.094.096.218.144.3427.144a.485.485 0 0 0 .336-.1363l5.3328-5.2282c1.4707 1.5264 2.905 2.7456 3.2256 3.0125" fill-rule="evenodd"/></svg>