<svg viewBox="0 0 24 24"><path d="M22.0004 10.241a.5.5 0 1 1 .3988.9171l-10.35 4.5a.5.5 0 0 1-.3988 0l-10.35-4.5a.5.5 0 1 1 .3988-.917l10.1506 4.4133 10.1506-4.4133z"/><path d="M11.8498 17.3546l10.1506-4.4133a.5.5 0 1 1 .3988.917l-10.35 4.5a.5.5 0 0 1-.3988 0l-10.35-4.5a.5.5 0 1 1 .3988-.917l10.1506 4.4133z"/><path d="M11.8498 20.0548l10.1506-4.4133a.5.5 0 1 1 .3988.917l-10.35 4.5a.5.5 0 0 1-.3988 0l-10.35-4.5a.5.5 0 1 1 .3988-.917l10.1506 4.4133zm9.0964-12.0544l-9.096-3.9548-9.096 3.9548 9.096 3.9548 9.096-3.9548zm-9.2954 4.9585l-10.35-4.5c-.4008-.1742-.4008-.7428 0-.917l10.35-4.5a.5.5 0 0 1 .3988 0l10.35 4.5c.4008.1742.4008.7428 0 .917l-10.35 4.5a.5.5 0 0 1-.3988 0z"/></svg>