<svg viewBox="0 0 24 24"><path d="M3 5c-.5523 0-1 .4477-1 1s.4477 1 1 1h18c.5523 0 1-.4477 1-1s-.4477-1-1-1H3zm0-1h18c1.1046 0 2 .8954 2 2s-.8954 2-2 2H3c-1.1046 0-2-.8954-2-2s.8954-2 2-2zm0 7c-.5523 0-1 .4477-1 1s.4477 1 1 1h18c.5523 0 1-.4477 1-1s-.4477-1-1-1H3zm0-1h18c1.1046 0 2 .8954 2 2s-.8954 2-2 2H3c-1.1046 0-2-.8954-2-2s.8954-2 2-2zm0 7c-.5523 0-1 .4477-1 1s.4477 1 1 1h18c.5523 0 1-.4477 1-1s-.4477-1-1-1H3zm0-1h18c1.1046 0 2 .8954 2 2s-.8954 2-2 2H3c-1.1046 0-2-.8954-2-2s.8954-2 2-2z"/></svg>