<svg viewBox="0 0 24 24"><path d="M11.6673 11.4086c1.5132 0 2.7413-1.228 2.7413-2.7413 0-1.5138-1.2277-2.7413-2.7413-2.7413-1.5142 0-2.7413 1.2271-2.7413 2.7413 0 1.5136 1.2275 2.7413 2.7413 2.7413zm0 1.0372c-2.0866 0-3.7784-1.6922-3.7784-3.7785 0-2.087 1.6914-3.7784 3.7784-3.7784 2.0863 0 3.7785 1.6918 3.7785 3.7784 0 2.086-1.6925 3.7785-3.7785 3.7785zm0-12.4458c4.7874 0 8.6673 3.88 8.6673 8.6673 0 3.6974-1.5719 7.313-4.1819 10.7062-.9077 1.1802-1.8795 2.2493-2.8517 3.1892a24.9691 24.9691 0 0 1-.9428.868 12.4792 12.4792 0 0 1-.3669.31l-.324.2593-.324-.2592a12.4792 12.4792 0 0 1-.3668-.31 24.9692 24.9692 0 0 1-.9429-.8681c-.9722-.94-1.944-2.009-2.8517-3.1892C4.5719 15.9803 3 12.3647 3 8.6673 3 3.88 6.88 0 11.6673 0zm.9128 21.817c.9377-.9065 1.8758-1.9385 2.7506-3.0758 2.483-3.2281 3.9668-6.6411 3.9668-10.0739 0-4.2145-3.4156-7.6302-7.6302-7.6302-4.2145 0-7.6302 3.4157-7.6302 7.6302 0 3.4328 1.4839 6.8458 3.9669 10.074.8748 1.1372 1.8129 2.1692 2.7505 3.0757.3277.3167.6314.5948.9034.8319.2908-.237.5946-.5152.9222-.8319z"/></svg>