<svg viewBox="0 0 24 24"><path d="M20.3541 12.1235c0-1.361-1.053-2.5035-2.461-2.6239-.0282-.0059-.064-.0077-.1705-.0077H5.6112c-.0998 0-.1343.0015-.1643.0066-.0038.0007-.0038.0007-.067.01-1.3477.1115-2.4002 1.2535-2.4002 2.615v8.0044c0 1.4397 1.1848 2.622 2.6315 2.622h12.1114c1.4468 0 2.6315-1.1823 2.6315-2.622v-8.0044zm1 0v8.0044c0 1.9925-1.633 3.622-3.6315 3.622H5.6112c-1.9985 0-3.6315-1.6295-3.6315-3.622v-8.0044c0-1.882 1.4517-3.4572 3.2578-3.603.1455-.0256.217-.0286.3737-.0286h12.1114c.1757 0 .2565.0041.3139.02 1.8653.1544 3.3176 1.73 3.3176 3.6116z"/><path d="M11.6661 17.6168c.3726 0 .679-.3067.679-.6798v-1.633c0-.3713-.3066-.6779-.679-.6779-.3717 0-.6788.307-.6788.678v1.6329c0 .3727.3069.6798.6788.6798zm0 1c-.9243 0-1.6788-.755-1.6788-1.6798v-1.633c0-.9234.755-1.6779 1.6788-1.6779.9247 0 1.679.7543 1.679 1.678v1.6329c0 .9252-.754 1.6798-1.679 1.6798zM5.6716 6.9804a.5.5 0 0 1-1 0c0-3.8634 3.1333-7.0002 6.9906-7.0002 3.8653 0 7.0002 3.1352 7.0002 7.0002a.5.5 0 1 1-1 0c0-3.3127-2.6872-6.0002-6.0002-6.0002-3.3047 0-5.9906 2.6888-5.9906 6.0002z"/></svg>