<svg viewBox="0 0 24 24"><g fill-rule="evenodd"><path d="M10.7598 21.2357c-1.027.442-2.225-.036-2.667-1.064-.213-.498-.221-1.051-.02-1.554.202-.504.586-.9 1.085-1.113.258-.111.529-.166.802-.166.254 0 .509.048.752.146.504.2.899.586 1.113 1.084.442 1.029-.036 2.226-1.065 2.667m.323-4.681c-.752-.299-1.576-.29-2.32.031-.743.319-1.318.909-1.618 1.661-.301.752-.29 1.575.03 2.319.492 1.147 1.613 1.835 2.789 1.835.398 0 .802-.079 1.191-.246 1.535-.659 2.248-2.445 1.589-3.981-.319-.744-.909-1.318-1.661-1.619"/><path d="M23.066 13.807c-.109-.254-.403-.374-.657-.262l-8.03 3.447c-1.107-2.172-3.659-3.204-5.964-2.415L3.027 2.027a.5012.5012 0 0 0-.657-.263l-2.067.887a.5.5 0 0 0-.262.657c.108.253.401.37.656.263l1.608-.691 5.387 12.549c.054.125.157.223.285.271.127.047.269.042.392-.018a.628.628 0 0 0 .09-.052c1.982-.853 4.289.069 5.146 2.074.004.017.033.11.039.126.049.126.147.229.273.282.062.026.128.039.194.039.067 0 .134-.014.197-.041l8.496-3.647c.254-.108.371-.402.262-.656"/><path d="M14.9913 14.347l-1.356-3.159 6.19-2.658 1.357 3.159-6.191 2.658zm4.899-6.933l-7.109 3.052a.4988.4988 0 0 0-.262.656l1.75 4.079c.053.122.151.217.274.266.06.025.123.036.186.036.067 0 .134-.013.197-.041l7.11-3.052a.4982.4982 0 0 0 .267-.274.5031.5031 0 0 0-.005-.383l-1.751-4.077c-.11-.254-.403-.375-.657-.262zM11.743 8.8108l-3.159 1.356-2.428-5.654 3.159-1.356 2.428 5.654zm-6.44-5.02a.5003.5003 0 0 0-.303.46c0 .066.013.133.041.197l2.821 6.573c.052.122.151.218.274.268.123.049.26.047.382-.005l4.079-1.751a.5047.5047 0 0 0 .267-.274.4985.4985 0 0 0-.006-.383l-2.822-6.573c-.108-.254-.402-.371-.656-.262l-4.077 1.75zm10.4898-.6332l1.356 3.158-2.636 1.132-1.356-3.159 2.636-1.131zm-2.001 5.144c.081.189.265.302.459.302a.489.489 0 0 0 .197-.04l3.555-1.525a.5006.5006 0 0 0 .262-.657l-1.75-4.078a.4981.4981 0 0 0-.274-.267.4897.4897 0 0 0-.383.005l-3.555 1.526a.4988.4988 0 0 0-.262.656l1.751 4.078z"/></g></svg>