<svg viewBox="0 0 24 24"><g fill-rule="evenodd"><path d="M17.6114 19.3198c-2.9933 0-5.4288-2.4355-5.4288-5.4288 0-2.9932 2.4355-5.4288 5.4288-5.4288 2.9933 0 5.4288 2.4356 5.4288 5.4288 0 2.9933-2.4355 5.4288-5.4288 5.4288zM3.867 18.4366c-.5885 0-1.0675-.479-1.0675-1.0675 0-.5894.479-1.0675 1.0675-1.0675h7.752c.3273.7978.8189 1.5254 1.4361 2.135h-9.188zm-1.0675-4.1625c0-.5895.479-1.0685 1.0675-1.0685h7.2989a6.6652 6.6652 0 0 0-.0317.6528c0 .4925.0595.9898.1776 1.4832H3.867c-.5885 0-1.0675-.479-1.0675-1.0675zm0-3.096c0-.5885.479-1.0675 1.0675-1.0675h8.4643a6.4373 6.4373 0 0 0-.9955 2.135H3.867c-.5885 0-1.0675-.479-1.0675-1.0675zm9.3984-4.1626h3.2102c.382 0 .721.2045.91.5165-1.1711.2314-2.2674.793-3.1468 1.6186H5.2466c-.5885 0-1.0675-.479-1.0675-1.0676 0-.5884.479-1.0675 1.0675-1.0675h6.9514zM.9602 4.988c0-.5885.478-1.0685 1.0675-1.0685H12.198c.5884 0 1.0675.48 1.0675 1.0685s-.479 1.0675-1.0675 1.0675H2.0277c-.5894 0-1.0675-.479-1.0675-1.0675zm16.6512 2.5142c-.0883 0-.1738.0106-.2611.0135-.2525-.8535-1.032-1.4602-1.9421-1.4602h-1.4938c.194-.311.311-.6749.311-1.0675 0-1.1184-.91-2.0285-2.0274-2.0285H2.0277c-1.1184 0-2.0275.9101-2.0275 2.0285 0 1.1174.9091 2.0275 2.0275 2.0275h1.5034c-.195.311-.312.6749-.312 1.0675 0 .4061.1229.7824.3293 1.1002-.9668.1546-1.7088.986-1.7088 1.9949 0 .623.289 1.176.7334 1.5475-.4445.3725-.7334.9245-.7334 1.5485 0 .623.289 1.175.7334 1.5475-.4445.3725-.7334.9235-.7334 1.5475 0 1.1175.91 2.0275 2.0275 2.0275h10.1702c.1027 0 .2007-.0153.3005-.0288.959.575 2.0765.912 3.2736.912 3.5222 0 6.3888-2.8656 6.3888-6.3888 0-3.5222-2.8666-6.3888-6.3888-6.3888z"/><path d="M17.6906 12.2774c.5174-.048 1.0022.215 1.01.2198.2313.1248.5222.0423.6508-.1881a.4803.4803 0 0 0-.1862-.6528c-.0567-.0308-.457-.242-.9936-.3178v-.3408a.4801.4801 0 0 0-.96 0v.3994c-.6615.1881-1.2096.696-1.1492 1.4697.0768.9773.9312 1.2643 1.5552 1.4727.6087.2035.8141.311.8333.5443.0394.4953-.3312.6307-.648.6557-.6873.0547-1.178-.3965-1.1798-.3984a.4795.4795 0 0 0-.6787.0105.4804.4804 0 0 0 .0105.6787c.025.024.506.4743 1.2567.624v.3303c0 .2659.215.48.48.48a.479.479 0 0 0 .48-.48v-.335c.813-.1805 1.3017-.8093 1.2364-1.6426-.0739-.9043-.8899-1.178-1.485-1.3776-.6577-.2199-.8804-.3427-.9034-.6365-.0346-.4531.6633-.5155.671-.5155"/></g></svg>