<svg viewBox="0 0 24 24"><path d="M22.624 20.0059c0 .263-.176.393-.252.437-.077.043-.278.13-.506 0l-4.241-2.449v1.093c0 1.399-1.139 2.538-2.539 2.538H3.539c-1.4 0-2.539-1.139-2.539-2.538v-5.143c0-1.4 1.139-2.539 2.539-2.539h11.547c1.4 0 2.539 1.139 2.539 2.539v1.092l4.241-2.449c.228-.13.429-.044.506.001.075.044.252.174.252.438v6.98zM1.093 7.7179c0-1.482 1.205-2.688 2.687-2.688 1.482 0 2.688 1.206 2.688 2.688 0 1.481-1.206 2.687-2.688 2.687-1.482 0-2.687-1.206-2.687-2.687zm8.468-1.015c0-2.042 1.662-3.703 3.703-3.703 2.042 0 3.702 1.661 3.702 3.703 0 2.041-1.66 3.702-3.702 3.702-2.041 0-3.703-1.661-3.703-3.702zm13.311 5.019c-.472-.274-1.035-.272-1.506-.001l-2.794 1.613c-.238-1.367-1.269-2.455-2.597-2.802 1.201-.852 1.991-2.247 1.991-3.829 0-2.593-2.109-4.703-4.702-4.703s-4.703 2.11-4.703 4.703c0 1.51.729 2.842 1.838 3.702H6.288c.721-.673 1.18-1.625 1.18-2.687 0-2.033-1.655-3.688-3.688-3.688-2.033 0-3.687 1.655-3.687 3.688 0 1.327.71 2.481 1.765 3.132-1.101.6-1.858 1.754-1.858 3.094v5.143c0 1.951 1.587 3.538 3.539 3.538h11.547c1.744 0 3.197-1.267 3.486-2.929l2.794 1.614c.471.271 1.034.272 1.506-.001.471-.273.752-.759.752-1.303v-6.98c0-.544-.281-1.032-.752-1.304z" fill-rule="evenodd"/></svg>