<svg viewBox="0 0 24 24"><path d="M20.9947 5.765l-2.6573-2.5852 1.2038-1.2749 2.6228 2.6218-1.1693 1.2384zm1.8825-1.8825L20.22 1.2252c-.3543-.3542-.9322-.3542-1.2864 0l-1.275 1.2759a.9016.9016 0 0 0-.2658.6432c0 .242.094.4713.2659.6422l2.6573 2.6573a.9033.9033 0 0 0 .6432.266.9033.9033 0 0 0 .6432-.266l1.2748-1.2749a.9033.9033 0 0 0 .266-.6432.9033.9033 0 0 0-.266-.6432zM5.8953 20.7755L2.135 22.1339c-.0662.021-.1094-.0048-.1354-.0308-.0268-.0268-.0537-.071-.0307-.1363l1.4045-3.8227L16.5283 4.9892 19.149 7.54 5.8953 20.7755zM17.1705 4.274c-.3552-.3542-.9321-.3533-1.2854 0L2.6803 17.4798a1.0924 1.0924 0 0 0-.2563.4013l-1.3575 3.7593c-.1459.4023-.048.84.2544 1.1424.2103.2093.4839.3197.7661.3197.1258 0 .2515-.022.3754-.0662l3.7612-1.3584c.1517-.0557.2861-.1412.4148-.2698L19.8278 8.2187c.3552-.3543.3552-.9322 0-1.2864L17.1705 4.274z" fill-rule="evenodd"/></svg>