<svg viewBox="0 0 24 24"><path d="M12 4.96c1.295 0 2.3482 1.054 2.3482 2.3482 0 1.295-1.0532 2.3481-2.3482 2.3481S9.6518 8.6032 9.6518 7.3082C9.6518 6.014 10.705 4.96 12 4.96m0 5.6563c1.824 0 3.3082-1.4841 3.3082-3.3081S13.824 4 12 4c-1.824 0-3.3082 1.4842-3.3082 3.3082 0 1.824 1.4842 3.3081 3.3082 3.3081m7.426-2.5973c.9561 0 1.7337.7776 1.7337 1.7338s-.7776 1.7328-1.7337 1.7328c-.9562 0-1.7338-.7766-1.7338-1.7328 0-.9562.7776-1.7338 1.7338-1.7338m0 4.4266c1.4851 0 2.6937-1.2077 2.6937-2.6928S20.9111 7.059 19.426 7.059c-1.4851 0-2.6938 1.2087-2.6938 2.6938 0 1.4851 1.2087 2.6928 2.6938 2.6928M4.574 8.019c.9562 0 1.7338.7776 1.7338 1.7338s-.7776 1.7328-1.7338 1.7328c-.9561 0-1.7337-.7766-1.7337-1.7328 0-.9562.7776-1.7338 1.7337-1.7338m0 4.4266c1.4851 0 2.6938-1.2077 2.6938-2.6928S6.059 7.059 4.574 7.059c-1.4851 0-2.6937 1.2087-2.6937 2.6938 0 1.4851 1.2086 2.6928 2.6937 2.6928m15.6315.5834h-1.3334c-.5607 0-1.104.1172-1.6157.3476-.242.1104-.3495.3936-.24.6346a.4782.4782 0 0 0 .6345.241 2.9475 2.9475 0 0 1 1.2212-.2631h1.3334c1.5629 0 2.8349 1.1942 2.8349 2.6611v2.232a.4801.4801 0 0 0 .96 0v-2.232c0-1.9968-1.7021-3.6211-3.7949-3.6211m-13.2221.9825c.1095-.241.002-.5252-.24-.6346a3.9158 3.9158 0 0 0-1.6157-.3475H3.7943c-2.0918 0-3.794 1.6243-3.794 3.621v2.2311c0 .266.2142.48.48.48.265 0 .48-.214.48-.48v-2.231c0-1.4669 1.2711-2.6611 2.834-2.6611h1.3334c.4224 0 .8343.0873 1.2212.263a.4774.4774 0 0 0 .6345-.241m5.8683-1.8759h-1.704c-2.5997 0-4.7155 2.017-4.7155 4.4947v2.8493c0 .266.215.48.48.48.266 0 .48-.214.48-.48v-2.8493c0-1.9497 1.6848-3.5347 3.7555-3.5347h1.704c2.0707 0 3.7555 1.585 3.7555 3.5347v2.8493c0 .266.2141.48.48.48.265 0 .48-.214.48-.48v-2.8493c0-2.4777-2.1158-4.4947-4.7155-4.4947" fill-rule="evenodd"/></svg>