<svg viewBox="0 0 24 24"><path d="M15.629 21.4117c-4.1155 0-6.5944-.873-6.7144-1.3143v-1.4402c1.6343.805 4.6675 1.0569 6.7143 1.0569 2.0469 0 5.0812-.252 6.7143-1.057v1.4337c-.12.448-2.5989 1.3209-6.7143 1.3209zM1.1431 16.3736v-1.4402c1.6114.7951 4.5829 1.0492 6.6286 1.0558v1.6965c-4.0629-.0132-6.5109-.874-6.6286-1.3121zM7.8575 1.095c4.1131 0 6.5931.873 6.7143 1.3077-.12.448-2.6 1.3209-6.7143 1.3209-4.1132 0-6.592-.8718-6.7143-1.3066v-.0011c.1223-.449 2.6023-1.3209 6.7143-1.3209zm14.4857 13.4101c-.12.448-2.5989 1.3209-6.7143 1.3209-4.1131 0-6.592-.8718-6.7143-1.3066v-.0011c.1223-.449 2.6012-1.3209 6.7143-1.3209 4.1154 0 6.5943.8729 6.7143 1.3077zm-21.2-2.3646c1.6331.805 4.6674 1.0569 6.7143 1.0569.3188 0 .6651-.0077 1.024-.0208-.6766.3406-1.1097.7765-1.1097 1.335v.3812c-4.0629-.012-6.5109-.874-6.6286-1.312v-1.4403zm6.7143-1.736c2.0468 0 5.0811-.2519 6.7143-1.0569v1.4337c-.12.448-2.5989 1.3209-6.7143 1.3209-4.1154 0-6.5943-.873-6.7143-1.3143V9.3476c1.6331.805 4.6674 1.057 6.7143 1.057zm0-2.7928c2.0468 0 5.0811-.252 6.7143-1.057v1.4337c-.1189.448-2.5977 1.3209-6.7143 1.3209S1.262 8.4364 1.1432 7.995V6.5548c1.6331.805 4.6674 1.0569 6.7143 1.0569zm6.7143-3.8498v1.4337c-.12.448-2.5989 1.3208-6.7143 1.3208-4.1154 0-6.5943-.8729-6.7143-1.3142V3.7619c1.6331.805 4.6674 1.057 6.7143 1.057 2.0468 0 5.0811-.252 6.7143-1.057zm7.7714 13.536c-.1189.448-2.5977 1.321-6.7143 1.321s-6.5954-.873-6.7143-1.3144v-1.4402c1.6343.805 4.6675 1.057 6.7143 1.057 2.0469 0 5.0812-.252 6.7143-1.057v1.4337zm-6.6297-5.1946v-.9989c0-.0482-.016-.092-.0286-.1369.0103-.0602.0297-.1172.0297-.1796V2.4093c0-1.9013-4.9394-2.4095-7.8571-2.4095C4.9386-.0002.0003.508.0003 2.4093v13.9643c0 1.8849 4.8435 2.3997 7.7715 2.4084v1.3154c0 1.9024 4.9383 2.4095 7.8571 2.4095 2.9189 0 7.8572-.507 7.8572-2.4095v-5.5857c0-1.885-4.8446-2.3986-7.7726-2.4084z" fill-rule="evenodd"/></svg>