<svg viewBox="0 0 24 24"><path d="M1.0619 22.1937c0 .41.334.7444.7433.7444h15.096c.4094 0 .7433-.3343.7433-.7444V17.703c0-.409.443-.6644.797-.4595.451.261.963.4 1.4978.4 1.6564 0 2.9977-1.3413 2.9977-2.9977 0-1.6555-1.3414-2.9967-2.9977-2.9967-.5348 0-1.0468.139-1.4979.4001-.354.2049-.7969-.0506-.7969-.4595V7.0988c0-.4107-.3335-.7444-.7433-.7444h-4.4908c-.4092 0-.6646-.4433-.4593-.7973.2608-.4498.3999-.9617.3999-1.4975 0-1.6553-1.3424-2.9977-2.9978-2.9977-1.6553 0-2.9977 1.3424-2.9977 2.9977 0 .5344.1393 1.0467.4002 1.4982.2046.354-.0509.7966-.4597.7966H1.8052c-.4098 0-.7433.3337-.7433.7444v3.513a4.1181 4.1181 0 0 1 .4502-.0247c2.2419 0 4.0586 1.8168 4.0586 4.0586 0 2.2427-1.8165 4.0597-4.0586 4.0597a4.1182 4.1182 0 0 1-.4502-.0246v3.513zm18.8774-11.6066c2.2427 0 4.0596 1.8166 4.0596 4.0586 0 2.243-1.8167 4.0597-4.0596 4.0597-.4241 0-.8389-.065-1.2329-.1904v3.6787c0 .9963-.809 1.8063-1.8052 1.8063H1.8052C.8091 24 0 23.19 0 22.1937v-4.1573c0-.3537.3392-.6085.6789-.51.2667.0774.5463.117.8332.117 1.6555 0 2.9967-1.3414 2.9967-2.9977 0-1.6553-1.3413-2.9967-2.9967-2.9967-.287 0-.5665.0397-.8332.117C.3392 11.8647 0 11.6099 0 11.2562V7.0988c0-.997.8088-1.8063 1.8052-1.8063h3.679a4.0607 4.0607 0 0 1-.1906-1.2329C5.2936 1.8178 7.1114 0 9.3532 0c2.2418 0 4.0597 1.8178 4.0597 4.0596 0 .4245-.065.8392-.1902 1.233h3.6785c.9964 0 1.8052.8092 1.8052 1.8062v3.6787a4.0616 4.0616 0 0 1 1.2329-.1904z"/></svg>