<svg viewBox="0 0 24 24"><path d="M23.112 5.0841c.9465.3144 1.1985 1.5365.4521 2.1974l-4.773 4.2433-4.7937 4.2598c-.7382.6562-1.9096.2777-2.1243-.6856l-.5297-2.365c-.0368-.1643-.211-.2478-.3565-.174-3.2637 1.6465-6.6474 5.27-8.2878 10.3204C2.2807 24.1702.4013 24.0474.1925 22.7c-.9663-6.1917 1.6198-12.25 9.695-16.8786.101-.058.1527-.1718.1297-.2734l-.6706-2.966c-.2219-.9834.7161-1.8329 1.672-1.5137l6.0325 2.0032 6.0608 2.0126zM10.689 2.0577c-.1857-.062-.3684.1034-.3252.2946l.6704 2.9652c.1257.5538-.1344 1.125-.6277 1.4083C2.7227 11.1302.3205 16.7575 1.223 22.5396c.0389.2513.4011.275.4842.0189 1.7317-5.3316 5.3106-9.1642 8.809-10.9291.7543-.3824 1.66.052 1.8448.8766l.5298 2.3657c.0418.1876.27.2613.4139.1334l4.7937-4.2597 4.7736-4.2439c.145-.1283.0959-.3664-.0887-.4277l-6.0608-2.0126-6.0334-2.0035z"/></svg>