<svg viewBox="0 0 24 24"><g fill-rule="evenodd"><path d="M11.8234 23.04c-3.718 0-6.7469-2.9731-6.8534-6.6653.5817.2026 1.5005.4243 2.783.4243.5415 0 1.1117-.144 1.7155-.2976.697-.1766 1.4861-.3763 2.3453-.3763 1.0416 0 1.8557.192 2.5738.3629.6259.146 1.2144.287 1.825.263 1.1337-.046 1.9401-.2256 2.4643-.3916-.098 3.6998-3.1316 6.6806-6.8535 6.6806M10.1117 9.528l.36-.0931V2.1802h2.7024v7.2547l.361.0931c2.7667.7104 4.752 3.0518 5.0832 5.8378-.3984.1497-1.1885.3753-2.4442.4252-.479.0183-.981-.0998-1.5657-.238-.769-.1815-1.6407-.3879-2.7946-.3879-.9792 0-1.8297.215-2.5805.4061-.5683.143-1.0588.2678-1.4803.2678-1.3997 0-2.3011-.2899-2.7254-.4665.3293-2.7888 2.3155-5.1341 5.0841-5.8445M9.9917.96h3.6624c.072 0 .1306.0586.1306.1306a.1299.1299 0 0 1-.1306.1296H9.9917a.1297.1297 0 0 1-.1296-.1296c0-.072.0586-.1306.1296-.1306m4.1424 7.7395V2.0688c.362-.1776.6106-.5491.6106-.9782C14.7447.4896 14.2561 0 13.6541 0H9.9917c-.601 0-1.0896.4896-1.0896 1.0906 0 .429.2487.8006.6096.9782v6.6307c-3.264 1.0051-5.5113 4.0282-5.5113 7.4775 0 4.3132 3.5088 7.823 7.823 7.823 4.3133 0 7.823-3.5098 7.823-7.823 0-3.4493-2.2483-6.4724-5.5123-7.4775"/><path d="M10.9314 20.3662c-.2573.241-.6614.2246-.8995-.0326a.6338.6338 0 0 1-.17-.457.6332.6332 0 0 1 .2045-.4435.6301.6301 0 0 1 .432-.168.6358.6358 0 0 1 .4666.2016c.238.2582.2237.6614-.0336.8995m-1.5187-1.6368c.645-.5971 1.657-.5597 2.256.0854.599.6452.5606 1.657-.0845 2.255a1.591 1.591 0 0 1-1.0858.4263 1.5927 1.5927 0 0 1-1.1702-.5097 1.5831 1.5831 0 0 1-.4253-1.1463 1.588 1.588 0 0 1 .5098-1.1107zm4.8197-1.3988c.2505-.002.4992.0835.6892.2602.1824.169.2928.4166.3024.6595.0096.2592-.0748.5059-.2515.697-.1766.189-.4176.2927-.6758.3023-.5011.0192-.9725-.4185-.9907-.9196-.0106-.2583.0892-.505.2592-.6884.169-.1824.409-.3004.6672-.311z"/></g></svg>