<svg viewBox="0 0 24 24"><path d="M17.4692 22.5752c-1.815 0-3.292-1.477-3.292-3.292 0-1.815 1.477-3.292 3.292-3.292 1.815 0 3.292 1.477 3.292 3.292 0 1.815-1.477 3.292-3.292 3.292m-11.177-7.407c-1.816 0-3.292-1.477-3.292-3.292 0-1.816 1.476-3.292 3.292-3.292 1.815 0 3.292 1.476 3.292 3.292 0 1.815-1.477 3.292-3.292 3.292m11.177-14.168c1.815 0 3.292 1.476 3.292 3.292 0 1.815-1.477 3.292-3.292 3.292-1.815 0-3.292-1.477-3.292-3.292 0-1.816 1.477-3.292 3.292-3.292m0 13.991c-1.311 0-2.471.603-3.259 1.532l-4.104-2.72c.296-.582.478-1.231.478-1.927 0-.713-.191-1.376-.5-1.968l4.156-2.82c.787.908 1.935 1.496 3.229 1.496 2.367 0 4.292-1.926 4.292-4.292 0-2.366-1.925-4.292-4.292-4.292s-4.292 1.926-4.292 4.292c0 .713.191 1.376.5 1.968l-4.155 2.82c-.788-.908-1.936-1.496-3.23-1.496-2.367 0-4.292 1.926-4.292 4.292 0 2.366 1.925 4.292 4.292 4.292 1.31 0 2.471-.604 3.259-1.532l4.104 2.719c-.295.583-.478 1.232-.478 1.928 0 2.366 1.925 4.292 4.292 4.292s4.292-1.926 4.292-4.292c0-2.366-1.925-4.292-4.292-4.292" fill-rule="evenodd"/></svg>