<svg viewBox="0 0 24 24"><g fill-rule="evenodd"><path d="M19.9836 22.1569c-.2976.553-.8506.8832-1.4794.8832H5.646c-.6279 0-1.1808-.3302-1.4794-.8842-.2976-.553-.2688-1.197.0768-1.7212l2.1398-3.2468c.5367-.0777 2.065-.286 3.1988-.286.8553 0 1.752.2246 2.6188.4396.8784.2199 1.7866.4464 2.6717.4464 1.176 0 2.3837-.2995 2.9799-.4713l2.0553 3.118c.3456.5252.3744 1.1684.0759 1.7223zM10.395 11.1006V2.4h3.36v8.7005l3.5414 5.3721c-.599.1556-1.536.3552-2.424.3552-.767 0-1.5792-.2025-2.4393-.4166-.9236-.2314-1.8778-.4694-2.8512-.4694-.8074 0-1.7732.097-2.499.1852l3.312-5.0265zM9.915.96h4.32a.24.24 0 0 1 0 .48h-4.32a.2407.2407 0 0 1-.24-.24c0-.1325.1085-.24.24-.24zm10.7942 18.9456l-5.9942-9.0931V2.2974c.4224-.1863.72-.6067.72-1.0973 0-.6624-.5376-1.2-1.2-1.2h-4.32c-.6615 0-1.2.5376-1.2 1.2 0 .4906.2976.911.72 1.0973v8.5152l-5.9933 9.0931c-.5434.8256-.5885 1.8355-.12 2.7062.4685.8688 1.3373 1.3882 2.3242 1.3882h12.8582c.9878 0 1.8566-.5194 2.3242-1.3882.4694-.8697.4243-1.8806-.119-2.7062z"/><path d="M14.1533 21.0703a.636.636 0 0 1-.8995.0336c-.2573-.239-.2727-.6423-.0346-.8995a.6337.6337 0 0 1 .4675-.2026.628.628 0 0 1 .432.169.634.634 0 0 1 .2035.4425.633.633 0 0 1-.169.457m-1.6377-1.5187c.6-.6452 1.6119-.6836 2.257-.0845.312.2899.4934.6835.5088 1.1097a1.5848 1.5848 0 0 1-.4243 1.1463 1.595 1.595 0 0 1-1.1712.5097 1.5957 1.5957 0 0 1-1.0848-.4243 1.5902 1.5902 0 0 1-.5098-1.1117 1.5866 1.5866 0 0 1 .4243-1.1452zm-2.4572-1.8854c.2515-.002.4992.0826.6893.2602.1824.169.2937.4166.3024.6595.0096.2582-.0749.506-.2515.697-.1767.189-.4176.2927-.6759.3023-.5011.0192-.9725-.4195-.9907-.9196-.0106-.2583.0893-.506.2592-.6893.17-.1824.409-.3005.6672-.31z"/></g></svg>