<svg viewBox="0 0 24 24"><path d="M21.082 16.2103c-.3495-.6042-.9882-1.0164-1.7249-1.0164-.697 0-1.3116.3642-1.6716.9152h-.7711l-.0021-2.2518a.5071.5071 0 0 0 .191.0386h5.6963v2.3144H21.082zm-1.7249 2.0337c-.5332 0-.9662-.4497-.9662-1.0038 0-.553.433-1.0028.9662-1.0028.5312 0 .9642.4498.9642 1.0028 0 .5541-.433 1.0038-.9642 1.0038zm-8.1881-2.0337c-.3496-.6042-.9882-1.0164-1.7249-1.0164-.7377 0-1.3763.4122-1.726 1.0164H5.9997V7.0872h9.8619l.0031 2.5116c0 .0063-.0031.0105-.0031.0167 0 .0063.0031.0094.0031.0157l.0063 6.5791h-4.702zM9.444 18.244c-.5332 0-.9663-.4497-.9663-1.0038 0-.553.433-1.0028.9663-1.0028.5311 0 .9642.4498.9642 1.0028 0 .5541-.433 1.0038-.9642 1.0038zm11.1068-8.1067l1.6539 2.715h-5.1016c-.0688 0-.1325.0157-.192.0387l-.0031-2.7537h3.6428zm3.216 3.2733l-2.4783-4.0664a.52.52 0 0 0-.4455-.2504h-3.936l-.0021-2.5294a.5224.5224 0 0 0-.5218-.5207H5.479a.5213.5213 0 0 0-.5218.5217c0 .023.0105.0439.0136.0658-.0031.024-.0146.0448-.0146.071V16.732a.522.522 0 0 0 .5217.5218h1.9587c.0073 1.1228.9046 2.0337 2.0076 2.0337 1.103 0 1.9993-.911 2.0077-2.0337h4.9419c.1064 0 .2045-.0407.2911-.1012h.672c-.001.0302-.0094.0584-.0094.0876 0 1.129.9016 2.0473 2.0097 2.0473 1.103 0 1.9994-.911 2.0077-2.0337h1.9565a.5213.5213 0 0 0 .5218-.5218v-3.05a.5198.5198 0 0 0-.0762-.2714zM3.4973 10.8298l-2.9739-.0083h-.002a.5224.5224 0 0 0-.5218.5207c-.001.288.2327.5217.5207.5227l2.9739.0084h.002a.5224.5224 0 0 0 .5218-.5207c.001-.287-.2327-.5217-.5207-.5228m.001 2.6433l-1.487-.0073h-.002a.5222.5222 0 0 0-.5218.5197.5204.5204 0 0 0 .5186.5238l1.487.0073h.003c.286 0 .5197-.2327.5218-.5196.001-.287-.2316-.5228-.5196-.5239" fill-rule="evenodd"/></svg>