<svg xmlns="http://www.w3.org/2000/svg" xmlns:xlink="http://www.w3.org/1999/xlink"><defs><path id="a" d="M0 90V0h90v90z"/></defs><g fill="none" fill-rule="evenodd"><mask id="b" fill="#fff"><use xlink:href="#a"/></mask><path fill="#0A0B09" d="M23.652 48.362c.657 2.493 2.396 4.184 3.883 3.778l29.074-7.941c.913-.25 1.519-1.234 1.698-2.534v.002a1.724 1.724 0 0 1 1.243-1.42l6.157-1.686c.686-.187 1.055-1.048.824-1.922-.23-.874-.972-1.43-1.658-1.243l-6.157 1.683a1.684 1.684 0 0 1-1.783-.609v.003c-.792-1.024-1.795-1.561-2.704-1.313l-29.074 7.952c-1.487.407-2.16 2.758-1.503 5.25" mask="url(#b)"/><path fill="#E61E50" d="M82.87 45.005L45 82.87 7.13 45.005C10.25 41.884 41.882 10.247 45 7.13c3.118 3.118 34.751 34.755 37.87 37.876zm-82.87 0L45 90l45-44.995L45 0 0 45.005z" mask="url(#b)"/></g></svg>
