<svg xmlns="http://www.w3.org/2000/svg" xmlns:xlink="http://www.w3.org/1999/xlink"><defs><path id="a" d="M0 89.399V.048h89.357v89.351z"/></defs><g fill="none" fill-rule="evenodd"><path fill="#0A0B09" d="M27.98 46.493c-1.38-.024-2.214-.516-2.599-1.303l-9.93-.172-.079 4.539 24.746.429.079-4.539-8.997-.156c-.626.774-1.827 1.227-3.22 1.202m2.314-1.64c.404.007.986-.179 1.468-1.102.11-.211.137-.482.165-.768.015-.15.039-.389.075-.479.045-.03.149-.074.223-.104.276-.115.655-.273.86-.665.113-.219.15-.437.153-.645.003-.156-.013-.307-.027-.45a3.683 3.683 0 0 1-.028-.444c.001-.05.004-.102.01-.155.026-.26.494-.817.913-1.174l-.617-.727c-.194.164-1.164 1.024-1.245 1.802-.032.307-.005.566.018.796.028.272.04.433-.023.556-.045.085-.224.16-.381.226-.245.102-.522.217-.68.493-.138.244-.17.566-.2.877-.014.143-.036.36-.063.423-.084.161-.174.291-.262.388-.063.164-.17.397-.35.646l-.009.506"/><path fill="#0A0B09" d="M29.063 44.237l.531.792a2.78 2.78 0 0 0 1.059-1.328c.023-.06.041-.113.055-.152.09-.265.03-.519-.021-.743-.055-.234-.085-.385-.019-.525.078-.166.206-.263.368-.386.185-.14.415-.315.562-.611.183-.368.087-.777-.006-1.173-.065-.278-.132-.566-.09-.784l-.935-.183c-.02.102-.03.202-.032.302-.005.311.065.61.129.882.036.154.087.375.085.486 0 .02-.002.037-.006.049-.044.089-.132.158-.284.273-.212.16-.476.361-.654.739a1.35 1.35 0 0 0-.127.558c-.004.228.043.432.08.59.017.074.043.185.043.23-.104.298-.282.678-.738.984m-4.152-2.026c.061.119.1.23.125.336.094.062.231.155.257.201.041.113-.005.426-.035.634-.01.068-.02.134-.027.198.222.232.576.5.767.6l-.372.713c.174.257.376.513.561.723l.717-.63c-.399-.453-.676-.892-.741-1.085a.21.21 0 0 1-.002-.03c.002-.083.025-.241.04-.352.028-.186.057-.386.06-.583a1.438 1.438 0 0 0-.074-.52c-.12-.33-.41-.523-.643-.677-.138-.091-.326-.216-.334-.293a.48.48 0 0 1-.003-.058c.002-.095.033-.193.09-.358a3.09 3.09 0 0 0 .197-1.223l-.953.04c.017.397-.063.63-.147.875-.079.231-.168.493-.133.826l.007.047c.22.12.475.293.643.616"/><path fill="#0A0B09" d="M22.934 40.2a1.42 1.42 0 0 1-.056.471c-.062.26-.14.585.068 1.02.185.386.513.556.752.68.193.1.306.163.366.28.076.145.065.244.047.409-.021.2-.05.476.12.778.278.491 1.012 1.024 1.326 1.188l.07-.133.371-.713a3.753 3.753 0 0 1-.767-.6 1.157 1.157 0 0 1-.17-.211c-.016-.03-.016-.065-.001-.208a1.708 1.708 0 0 0-.024-.614 1.472 1.472 0 0 0-.125-.336c-.168-.323-.423-.495-.643-.616a6.83 6.83 0 0 0-.13-.07c-.202-.105-.288-.156-.332-.247-.06-.125-.051-.174 0-.384.043-.18.102-.427.08-.76-.044-.63-.522-1.165-.907-1.596l-.283-.329-.749.591.32.374c.288.322.646.722.667 1.026m4.21.72c-.013.732.147 1.72 1.005 1.735.858.014 1.105-1.092 1.112-1.547.008-.4-.572-2.11-.689-3.651a.893.893 0 0 1-.479-.152c-.162 1.723-.938 2.947-.95 3.615"/><path fill="#0A0B09" d="M41.422 30.806c-1.273.057-12.396.937-12.396.937l-.211-1.573s11.019-1.717 12.314-1.913c1.295-.196 2.2.336 2.185 1.15-.014.815-.62 1.341-1.892 1.399zm-.585-3.528c-1.882.266-10.467 1.657-11.298 1.801-1.221.212-1.484-.9-2.036-1.167 0 0 .738 4.835.779 5.194.149 1.291-.744 1.94-.76 2.903-.007.35.134 1 .571 1.296.132.089.29.145.479.152l.017.001c.835.015 1.028-.816 1.039-1.452.017-.984-.45-1.558-.446-1.796.004-.238.208-.513.965-.62.757-.105 10.221-1.58 11.715-1.793 1.494-.213 2.618-1.415 2.401-2.67-.217-1.257-1.543-2.114-3.426-1.849zm20.275 10.116c-.28 1.322-.855 2.585-.86 2.934-.009.454.107 1.592.965 1.607.858.014 1.145-.99 1.158-1.722.01-.58-.48-1.524-.67-2.88a1.049 1.049 0 0 1-.593.061"/><path fill="#0A0B09" d="M48.606 27.93c1.288.234 12.883 2.468 12.883 2.468l-.265 1.566s-12.01-1.262-13.28-1.363c-1.27-.102-1.84-.549-1.825-1.363.014-.815 1.04-1.572 2.487-1.308zm-1.185 3.675c1.485.264 11.898 2.185 12.65 2.318.43.076.778.366.776.484-.002.118-.47.55-.483 1.324-.01.592.066 1.524.748 1.663a1.049 1.049 0 0 0 .593-.06c.519-.219.733-.855.743-1.44.024-1.36-.69-1.105-.496-2.39.053-.358.822-5.02.822-5.02-.562.248-.726 1.206-1.94.952-.824-.173-10.369-2.106-12.241-2.437-1.872-.33-3.16.624-3.42 1.871-.26 1.247.762 2.47 2.248 2.735zm17.877 7.35a.649.649 0 0 1-.07.373c-.144.305-.394.685-.764.765l.2.932c.416-.09 1-.386 1.426-1.291.175-.372.167-.625.16-.81-.004-.149-.006-.211.124-.409.093-.14.118-.146.227-.172.245-.06.528-.161.778-.607.284-.509.203-.938.143-1.252-.032-.171-.058-.307-.034-.446.038-.213.191-.374.482-.663a7.02 7.02 0 0 0 .52-.56l-.74-.602c-.15.185-.304.338-.452.486-.323.321-.657.653-.749 1.174-.055.311-.004.576.036.79.053.278.072.41-.039.607-.067.12-.07.121-.171.146-.241.059-.522.156-.797.575-.274.416-.29.694-.28.965m-1.66 1.59c.464-.395.608-.538.828-1.204a2.1 2.1 0 0 0 .096-.953c-.017-.185-.029-.318.038-.553.035-.12.046-.126.18-.196.206-.105.55-.281.71-.87.148-.54-.003-.885-.113-1.135-.085-.196-.137-.314-.086-.568l-.935-.187c-.11.548.04.888.148 1.137.086.196.125.286.066.501-.05.184-.083.202-.225.274-.192.099-.514.264-.662.782-.116.407-.091.68-.071.9.018.195.03.324-.052.569-.146.441-.16.454-.54.775l-.225.194.625.72.218-.187"/><path fill="#0A0B09" d="M56.635 37.252c.099.48.436.696.681.854.225.143.3.203.329.353.045.234.022.3-.013.4-.07.197-.126.405-.03.766.17.63.357.845.981 1.492l.686-.663c-.591-.612-.64-.682-.745-1.075-.028-.105-.025-.112.006-.202.074-.207.139-.448.05-.9-.109-.563-.494-.81-.748-.974-.193-.124-.248-.168-.264-.244-.031-.152.008-.267.092-.493.102-.274.23-.615.18-1.106l-.949.095c.028.27-.04.45-.124.677-.099.264-.221.592-.132 1.02m-.64-.27c.003-.17-.02-.369-.095-.606-.21-.653-.435-.908-.696-1.202l-.262-.307-.745.595.293.344c.235.266.353.399.502.861.078.244.051.37.01.561-.051.245-.122.58.08 1.06.224.528.572.663.802.752.153.06.18.07.233.187.088.2.075.256.052.36-.03.135-.083.363.044.665.164.39.628 1.312 1.404 1.44l.155-.941c-.19-.031-.489-.412-.68-.868l-.007-.022.014-.063c.021-.094.04-.194.042-.308a1.51 1.51 0 0 0-.152-.65c-.212-.477-.541-.605-.76-.69-.163-.063-.202-.078-.268-.235a.611.611 0 0 1-.06-.26c0-.068.015-.137.035-.23.025-.121.056-.266.06-.443m6.134 5.672c-.948.74-3.042.762-4.134-.266l-.23-.217-.29.128c-.428.19-.996.196-1.452.202-.58.006-1.038.011-1.28.373-.175.263-.165.625.029.994.03.06.068.12.11.18l2.08.036c-.774-.014-1.174-.386-1.32-.619.121-.007.268-.01.391-.01.458-.006 1.007-.022 1.533-.184.56.443 1.25.703 1.957.81.523-.594 1.394-.8 1.9-.792l-.013.714a3.679 3.679 0 0 0 1.07-.435c.503.227 1.207.67 1.695.979.425.268.635.4.775.456.43.174 2.23.353 3.346.372l.016-.953c-1.26-.022-2.768-.214-3.005-.304-.076-.032-.38-.224-.623-.378-.636-.4-1.505-.95-2.103-1.16l-.246-.087-.206.16"/><path fill="#0A0B09" d="M56.963 44.084l-2.08-.036-1.477-.026c-1.602-.028-1.79.95-1.796 1.294-.001.095.008.217.039.348l1.445.026c-.425-.008-.557-.176-.554-.355.003-.178.17-.371.85-.36l5.71.1c.036-.388.18-.7.383-.947l-2.52-.044m3.097 1.007l.137.003 2.861-.616-1.62-.317h-.03v.082c-.014 0-1.195.033-1.348.848"/><path fill="#0A0B09" d="M51.092 45.655c-.92-.016-1.55.695-1.561 1.369-.011.642.546 1.429 1.56 1.446l.296.005c.074-.365.375-.88 1.463-.922v-.006l-1.743-.03c-.357-.007-.617-.362-.622-.478.002-.124.18-.438.59-.43l6.195.107.017-.954-4.193-.072-1.445-.026-.557-.01"/><path fill="#0A0B09" d="M51.387 48.475a1.128 1.128 0 0 0-.023.206c-.014.782.664 1.431 1.842 1.452h.022c.188-.526.845-.887 1.714-.919v-.005l-1.72-.03c-.59-.01-.908-.323-.905-.481.003-.136.369-.2.728-.194l4.193.073.017-.954-4.193-.073c-.074 0-.144 0-.212.003-1.088.041-1.389.557-1.463.922"/><path fill="#0A0B09" d="M53.228 50.133a.936.936 0 0 0-.057.3c-.01.598.514 1.255 1.71 1.376.865.087 4.603.27 5.288.282.559.01 2.903-.025 4.17-.37.377-.104.694-.245 1-.38.66-.294 1.344-.598 2.817-.572l.017-.954c-1.685-.029-2.501.334-3.222.654a5.963 5.963 0 0 1-.863.331c-1.065.29-3.233.35-3.902.338-.633-.011-4.372-.193-5.21-.278-.605-.06-.853-.298-.851-.41.022-.058.318-.296.989-.284l3.84.066-.903-.97-2.921-.05a3.51 3.51 0 0 0-.188.002c-.869.032-1.526.393-1.714.919"/><mask id="b" fill="#fff"><use xlink:href="#a"/></mask><path fill="#0A0B09" d="M59.524 44.08l-.04.048a1.72 1.72 0 0 0-.385.947 1.97 1.97 0 0 0-.01.163c-.015.887.425 2.442 3.547 2.891l.136-.944c-1.029-.148-2.752-.596-2.729-1.93a.965.965 0 0 1 .017-.164c.153-.815 1.334-.848 1.347-.848l.001-.082.016-.872c-.506-.008-1.377.198-1.9.791" mask="url(#b)"/><path fill="#E61E50" d="M82.853 45.035c-3.117 3.117-34.737 34.739-37.852 37.856L7.147 45.035 45.001 7.181c3.115 3.117 34.735 34.737 37.852 37.854zm-82.833 0L45 90.02l44.98-44.984L45 .053.02 45.035z" mask="url(#b)"/></g></svg>