<svg xmlns="http://www.w3.org/2000/svg" xmlns:xlink="http://www.w3.org/1999/xlink"><defs><path id="a" d="M.002 89.993h89.959V.035H.002z"/></defs><g fill="none" fill-rule="evenodd"><mask id="b" fill="#fff"><use xlink:href="#a"/></mask><path fill="#E61E50" d="M82.833 45.017c-3.117 3.117-34.737 34.738-37.85 37.855L7.13 45.017 44.984 7.162c3.112 3.117 34.732 34.738 37.85 37.855zm-82.83 0L44.982 90l44.978-44.983L44.984.034.002 45.017z" mask="url(#b)"/><path fill="#0A0B09" fill-rule="nonzero" d="M27.008 45.293h26.144l.9-.625H27.008z"/><path fill="#0A0B09" d="M31.739 54.101l4.326-2.5.203-10.676-5.34-2.906s-.811-.541-1.96-.203c-.406.135-.947.27-.947.27s2.907-2.433 3.448-2.23c.54.202 4.325 2.027 4.325 2.027s-.405-2.839-1.419-3.65c-1.014-.81-4.934-3.92-4.934-3.92v-.743l5.34 3.244s.202-3.11-.88-4.934c-1.08-1.825-1.892-3.448-1.892-3.448l.338-.27 2.636 4.056.879-2.772.54-.135s-.675 3.92-.202 5.137c.473 1.217 2.23 7.84 2.23 7.84l2.637-3.784s.067-1.555-.068-2.636c-.135-1.082-.338-6.084-.338-6.084h.473l.744 5.475 4.257-4.934v.54s-4.19 5.273-3.987 6.422c.203 1.15.406 1.825-.338 3.447-.743 1.622-1.216 2.772-1.216 2.772s2.23-2.636 3.244-2.84c1.014-.067 2.364.068 3.31-.743.947-.811 3.245-3.38 3.245-3.38l-3.583 5.543s-1.688.068-2.364.811c-.676.744-3.447 3.92-3.447 3.92v7.296l4.595 2.298-5.609.811-1.352 1.96-1.825-1.554-5.069.473"/><path fill="#0A0B09" fill-rule="nonzero" d="M45.885 26.866l.054-.156a19.357 19.357 0 0 0-.054.069v.087zM32.325 24.5a43.66 43.66 0 0 0 .446.853c.42.789.875 1.603 1.346 2.398.309.521.533 1.162.686 1.897a12.863 12.863 0 0 1 .2 3.593l-5.312-3.228v.178l.127.101a6251.65 6251.65 0 0 1 4.713 3.745c.427.341.767.98 1.047 1.836a13.435 13.435 0 0 1 .53 2.439l-.422-.204a316.93 316.93 0 0 0-2.138-1.023c-1.186-.562-1.957-.917-2.167-.996-.09-.034-.693.292-1.448.83a22.418 22.418 0 0 0-.8.596 2.754 2.754 0 0 1 1.556.111c.168.064.292.128.367.177l5.464 2.974-.208 10.968-3.46 2 4.038-.377 1.695 1.444 1.256-1.822 4.928-.713-4.02-2.01v-7.544l.062-.07.153-.176a1167.2 1167.2 0 0 1 1.63-1.863c.824-.939 1.406-1.599 1.667-1.886.266-.292.663-.503 1.157-.654a5.802 5.802 0 0 1 1.25-.23l1.946-3.01c-.556.58-1.001 1.02-1.303 1.278-.506.433-1.124.645-1.926.728-.277.029-.487.038-.976.052-.266.008-.397.013-.537.022-.269.061-.708.36-1.244.84-.171.152-.35.32-.534.503a23.388 23.388 0 0 0-1.283 1.378l-1.054 1.246.605-1.472a43.861 43.861 0 0 1 .332-.78c.264-.615.563-1.288.889-2 .435-.95.553-1.573.484-2.274A6.761 6.761 0 0 0 42 33.87l-.097-.54c-.097-.548.483-1.655 1.584-3.285a55.218 55.218 0 0 1 1.04-1.474l-2.821 3.27-.818-6.024.247.216h-.473l.25-.26a267.478 267.478 0 0 0 .042.982c.032.736.066 1.472.101 2.16.03.575.058 1.091.085 1.531.04.667.077 1.143.108 1.39.03.244.053.522.067.828a22.42 22.42 0 0 1 0 1.922l-2.987 4.288-.138-.522a132.67 132.67 0 0 0-.092-.345 426.387 426.387 0 0 0-1.08-3.965c-.505-1.806-.876-3.056-1.05-3.504-.191-.492-.225-1.352-.146-2.499.033-.47.084-.97.148-1.483.04-.322.084-.629.127-.912l-1.034 3.152-2.924-4.499.365.06-.338.27.068-.307a16.394 16.394 0 0 0 .091.18zm-1.7 29.955l5.193-3.002.197-10.382-5.207-2.834a1.83 1.83 0 0 0-.295-.142c-.43-.162-.93-.2-1.466-.043a16.423 16.423 0 0 1-.904.26l-1.115.28.833-.699a24.82 24.82 0 0 1 .433-.353 33.407 33.407 0 0 1 1.349-1.028c.975-.695 1.573-1.02 1.913-.892.231.087.997.44 2.15.987a389.604 389.604 0 0 1 1.759.84 11.854 11.854 0 0 0-.362-1.418c-.253-.771-.554-1.337-.884-1.601a5478.282 5478.282 0 0 0-4.711-3.743l-.165-.131-.152-.121v-1.309l5.354 3.253a12.226 12.226 0 0 0-.232-2.628c-.142-.684-.349-1.275-.626-1.743a62.088 62.088 0 0 1-1.992-3.644l.712-.568 2.498 3.843.76-2.4 1.05-.262-.066.378a12.371 12.371 0 0 0-.057.356c-.043.282-.086.588-.127.91a26.57 26.57 0 0 0-.145 1.455c-.074 1.073-.042 1.883.113 2.283.183.47.555 1.723 1.065 3.55l.083.298a374.812 374.812 0 0 1 .952 3.498l2.287-3.283.005-.183c.013-.505.013-1.045-.01-1.55a10.327 10.327 0 0 0-.064-.79c-.032-.26-.07-.743-.111-1.42-.027-.442-.056-.96-.085-1.537a322.315 322.315 0 0 1-.154-3.407h.952l.698 5.142 4.334-5.023v1.3l-.055.068a45.06 45.06 0 0 0-.62.802 61.41 61.41 0 0 0-1.368 1.863c-.154.219-.301.433-.441.64-.997 1.475-1.568 2.567-1.507 2.918.01.056.08.436.098.543.034.2.057.362.073.52.078.794-.057 1.505-.527 2.531-.224.488-.434.958-.63 1.402.111-.114.223-.228.335-.338.19-.187.374-.362.552-.52.611-.547 1.11-.884 1.494-.96.187-.015.322-.02.606-.028.477-.014.678-.023.938-.05.71-.074 1.236-.254 1.653-.61.31-.266.795-.748 1.404-1.388a94.02 94.02 0 0 0 1.78-1.929c.012-.013.156.074.433.262l-3.653 5.652-.13.005a5.797 5.797 0 0 0-1.256.217c-.416.127-.739.299-.933.512-.258.285-.84.943-1.647 1.863a1027.123 1027.123 0 0 0-1.644 1.879l-.09.104v7.048l5.17 2.585-6.29.91-1.448 2.098-1.955-1.665-6.102.57z"/><path fill="#0A0B09" d="M34.307 59.373c.857-.385 5.13-2.208 8.148-3.424-.155.03 5.245 2.452 5.245 2.551 0 .08.6-1.12 1.8-3.6 3.369-.927 5.469-1.527 6.3-1.8 1.43-.47 2.518-1.83 1.8-1.8l3.405 3.004-3.92 1.892 5.272.474-1.42 1.892h2.907l.067 2.096-36.768-.203s6.15-1.825 7.164-1.082z"/><path fill="#0A0B09" fill-rule="nonzero" d="M63.653 60.406l-.051-1.594h-3.164l1.45-1.933-5.727-.514 4.357-2.104A232.874 232.874 0 0 1 57.6 52.2c-.087-.063-5.56 4.943-9.9 6.112-1.852.5-4.748-2.293-4.887-2.237-.67.269-1.442.584-2.293.935-2.332.964-5.294 2.224-6.11 2.591l-.133.06-.117-.086c-.322-.236-1.564-.147-3.315.21a38.607 38.607 0 0 0-1.865.43m35.106-1.903l.084 2.597-38.717-.213 1.619-.48a32.06 32.06 0 0 1 .7-.199 53.17 53.17 0 0 1 1.687-.435c.444-.107.875-.203 1.286-.287 1.783-.364 3.006-.47 3.576-.202a358.095 358.095 0 0 1 7.878-3.31c.2-.081 3.113 2.475 5.501 1.817 1.813-.5 5.413-2.6 10.8-6.3l2.992 3.047-3.484 1.681 4.818.433-1.389 1.851"/><path d="M40.864 55.115s1.757-.068 2.568-.406c1.287-.536 3.378-1.419 4.595-3.176 1.258-1.817 5.745-9.459 11.896-8.85-.337.81-1.419 2.568-1.419 2.568l4.394-1.352s.067 5.809-8.247 9.526c-3.853 1.352-4.664 1.42-5.002 1.893-.337.473-1.892 2.839-1.892 2.839l-6.893-3.042"/><path fill="#0A0B09" fill-rule="nonzero" d="M47.641 57.764a486.517 486.517 0 0 1 .82-1.24c.474-.716.8-1.199.934-1.388.113-.158.26-.278.47-.389.262-.138.57-.249 1.474-.542 1.5-.486 2.04-.665 3.196-1.07 2.018-.904 3.637-1.976 4.897-3.18 1.388-1.327 2.275-2.742 2.764-4.157a7.51 7.51 0 0 0 .355-1.465l-4.748 1.46.435-.706a24.368 24.368 0 0 0 .235-.389 43.115 43.115 0 0 0 .628-1.084c.135-.243.251-.462.346-.65-2.841-.097-5.524 1.58-8.074 4.522a29.508 29.508 0 0 0-1.908 2.474c-.334.48-1.136 1.686-1.18 1.75-.582.84-1.38 1.536-2.367 2.136-.704.428-1.315.714-2.365 1.152-.288.12-.68.212-1.157.285l-.288.04 5.533 2.441zm15.564-14.286l.005.417a5.541 5.541 0 0 1-.054.622c-.065.453-.184.952-.369 1.486-.521 1.506-1.462 3.007-2.923 4.403-1.316 1.257-2.998 2.371-5.085 3.304-1.194.42-1.737.6-3.247 1.09-.86.28-1.16.386-1.376.5a.669.669 0 0 0-.252.2c-.13.18-.453.662-.908 1.348a415.995 415.995 0 0 0-.896 1.355l-.06.093-.167.253-8.373-3.694 1.352-.052.122-.006a15.449 15.449 0 0 0 1.328-.132c.43-.066.78-.148 1.01-.244 1.023-.426 1.611-.702 2.282-1.109.918-.557 1.65-1.197 2.176-1.957.04-.058.843-1.266 1.183-1.752a30.118 30.118 0 0 1 1.948-2.526c2.802-3.234 5.798-5.028 9.053-4.706l.42.042-.162.39a12.13 12.13 0 0 1-.565 1.115 30.904 30.904 0 0 1-.456.795l4.014-1.235z"/><path fill="#0A0B09" d="M58.842 47.308c0-.354.333-.641.744-.641.41 0 .743.287.743.64 0 .355-.333.643-.743.643-.411 0-.744-.288-.744-.642"/></g></svg>