<svg xmlns="http://www.w3.org/2000/svg"><g fill="none" fill-rule="evenodd"><path fill="#E61E50" d="M82.836 45.017L44.98 82.872 7.128 45.017 44.98 7.162l37.855 37.855zM0 45.017L44.981 90l44.982-44.983L44.981.035 0 45.017z"/><path fill="#0A0B09" d="M50.237 21.38l-1.224-.559-6.38 18.196c.38.136.746.308 1.09.516l6.514-18.152m-.874 8.741l-.63-.384-4.97 9.82.079.05 5.52-9.486m-6.89 8.838l3.779-11.74-.7-.42-3.112 12.15.032.01M43.297 31.254l.543-.792.939-1.023-.517-1.674-.709-.013-.307.78-.601-.237-.307 1.489.639.301.32 1.169M49.073 32.07l-.397.558-.23 1.161.803.696.573-.696.161-.787-.352-.939-.275.29-.283-.283M45.767 39.874l-.095-.222-.766.835c.041.044.083.087.122.133l.74-.746M47.266 38.361L58.291 27.23l-.634-.635-11.18 12.18.584-.41.205-.004M41.699 43.981l2.845-2.873-.206-.002-2.639 2.875M58.26 32.877L43.539 43.251l14.721-9.137v-1.237M53.691 39.666l-.063-.729-8.661 4.092 8.724-3.363"/><path fill="#0A0B09" d="M45.855 40.079l1.174-.54.254.889 1.872-1.523 1.047-1.936-1.65 1.365-1.286.027-.205.004-1.491 1.047.285.667M56.198 37.604l-.286.761 2.633.318-1.745-1.745-.602.666M63.431 34.4l1.776 1.205-.031-2.157-1.174-1.999-.539 1.682-1.428.063-.413.317-.19 1.206 1.11.635.889-.952M69.221 37.922l-.359-.76-25.921 6.72 26.28-5.96M43.908 44.67l28.474-3.868v-.96l-28.477 4.826.003.002M54.261 45.562l.292.315 2.247.071.901-1.026-3.16-1.4-.839.8-1.201.4.284 1.099.49.015.986-.274M52.831 45.999l.15-.042-.163-.007.013.049M54.781 46.244l1.76.295.098-.274-1.935-.226.077.205"/><path fill="#0A0B09" d="M52.818 45.95l.041.002 3.78.179 12.502.591-.52-.4-11.821-.374-2.247-.071-1.278-.041-.49-.015-7.896-.25.003.004 7.926.375M49.565 47.861l.14-.195 1.328.574 4.668 1.202.2-1.36-10.209-1.429c-.024.064-.05.128-.076.191l3.949 1.017"/><path fill="#0A0B09" d="M49.565 47.861l-.173.239-1.201-.222-.333.606 1.211.899 3.191.545.05-.768-.525-.595-.752-.325-1.328-.574-.14.195M51.977 51.725l-.374-.758-6.31-3.468-.056.098 6.74 4.128M41.756 45.537l.825.644.034-.023-.859-.621M52.166 53.667l.345-.345-7.477-5.412c-.027.04-.056.08-.085.12l7.217 5.637m-1.905-.525l-.345-.78-5.313-3.9-.064.07 5.722 4.61M33.837 51.313l.538.598.597-.269.299.299.597-.359.239-.806-.567-.359h-.869l-.712.653-.122.243M28.34 55.048l.628.597 7.866-7.211-.086-.102-8.407 6.716m.567-3.765l.03.389 7.195-4.235-.024-.046-7.2 3.892m2.628-2.897l-.06.448 4.592-1.517a5.672 5.672 0 0 1-.063-.123l-4.47 1.192M30.133 49.611v-.538l-1.583-.09.926.897.657-.269M26.07 51.881l-.896-.568-.328 1.076.912 1.255.043.059.299-.836.568-.03.358-.388.18-.568-.867-.328-.269.328M22.605 49.85l-.09.448 13.395-3.306-.033-.076-13.272 2.934m-4.6-1.434l-.03.388 17.71-2.39-.009-.027-17.671 2.029M24.577 46.743v.359l2.569.238-1.643-1.284-.926.687M31.238 45.488l-.064-.115-1.651-.067-.346.571.956.687 1.045.179.329-.538h.657l-.07-.795-.571-.024-.285.102"/><path fill="#0A0B09" d="M32.341 45.189l-.482.308.5.059-.018-.367M30.939 44.983l-1.165-.092-.138.352 1.451.148-.148-.408"/><path fill="#0A0B09" d="M32.083 45.281l-.224-.015-.772-.051-8.542-.563.359.388 6.619.266 1.651.067.349.013.571.024 3.398.136.015-.039-3.424-.226M37.033 45.902l-1.488-.392.172.181 1.316.211M30.372 43.547l-.448.388 7.079 1.105-6.631-1.493M32.433 42.172l.12.299 4.719 2.27-4.839-2.569M33.479 41.187l.268.537 1.812 1.217.04-.157-2.12-1.597M37.84 44.472l-.908-.684-.103.006 1.011.678"/><path fill="#0A0B09" d="M43.547 44.383v1.148l-.932.627-.034.023-.741.499-2.327-1.986-1.645 1.427-2.15-.566-.173-.045-.035-.01-.003.007-.015.039-.018.048c.05.272.118.537.202.793l.009.026c.057.172.121.34.192.503l.033.076a5.783 5.783 0 0 0 .16.325c.012.024.025.05.039.074l.024.046c.178.32.385.619.615.895l.086.102c.978 1.117 2.362 1.814 3.897 1.814 1.49 0 2.837-.657 3.808-1.716l.064-.07a5.828 5.828 0 0 0 .633-.865c.02-.032.038-.065.057-.098a5.918 5.918 0 0 0 .565-1.343l-.79-.283-.176-.298-.003-.004-.132-.226-.85-.675-.002-.002-.358-.285"/><path fill="#0A0B09" d="M40.731 38.674c-2.42 0-4.466 1.732-5.132 4.11l-.04.157-.02.076.747.808.543-.031.103-.006 1.557-.087 2.172 1.086 1.241-1.49-.559-1.365 1.707.186.248-1.024 1.04.012.206.002.865.01a4.692 4.692 0 0 0-.38-.498c-.04-.046-.082-.09-.123-.133a5.497 5.497 0 0 0-1.064-.879l-.08-.05-.04-.025a6.073 6.073 0 0 0-1.089-.516c-.054-.02-.107-.039-.162-.057l-.032-.01a5.625 5.625 0 0 0-1.708-.276"/></g></svg>