<svg xmlns="http://www.w3.org/2000/svg" xmlns:xlink="http://www.w3.org/1999/xlink"><defs><path id="a" d="M.001 89.993h89.961V.035H.001z"/></defs><g fill="none" fill-rule="evenodd"><path fill="#0A0B09" d="M44.227 22.341l-.015 4.523-.344 3.385-.509 2.079-1.064 2.428-1.198-2.443-.33-2.216-.689-1.791-1.018-1.093-1.543-.379.389 2.018-.419 2.064-.314 2.656-.03 2.687.674 2.034-1.378-.896-1.917-2.792-1.663-1.716.33 3.476.03 2.671.284 2.323.854 2.337 1.093 2.352-2.711-.394-1.513-1.184-.958-1.29-1.468-1.533.344 2.352 2.367 8.363 1.648 2.99 2.725 1.989 3.88 1.624 6.125.394-2.875-.531-2.336-1.153-2.367-2.854-1.453-3.384 1.513 1.123 1.408.5 2.576.304-1.423-1.852-.779-1.35-.569-1.685.375-1.594.089-1.685.644 1.701.914 1.335 2.711 1.518-.389-2.292-.03-1.761L45.5 41.04v-3.248l1.601 1.609 1.527 2.337.764 3.233-.015 4.826 1.289-1.35 2.291-1.533.779-1.776v3.354l-.839 2.52-.973 1.35-1.019 1.032 1.768.016 1.557-.44 1.813-1.169-1.858 3.521-2.441 2.428-1.408 1.063-1.014.587h2.153l2.344-.414 2.452-1.215 2.317-1.63 1.934-3.12 1.199-3.977.379-5.693-.433 2.021-1.499 1.049-2.725.801 1.526-2.292.818-1.629.759-3.194-.361-2.264-.844-3.004-1.276 2.514-1.534 1.554-1.801 1.033 1.039-2.598.031-3.432-.391-3.411-1.637-3.233-.412 3.984-.802 2.848-1.143 1.168-1.194.449.37-2.42-.288-2.128-1.616-4.642-2.408-4.558L45.47 18l-.823 2.489-.42 1.852"/><mask id="b" fill="#fff"><use xlink:href="#a"/></mask><path fill="#0A0B09" mask="url(#b)" d="M32.3 64.561h27.089v-2.782H32.3z"/><path fill="#E61E50" d="M82.835 45.017c-3.117 3.117-34.738 34.738-37.853 37.855L7.13 45.017 44.982 7.162C48.097 10.28 79.718 41.9 82.835 45.017zM0 45.017L44.982 90l44.98-44.983L44.982.034.001 45.017z" mask="url(#b)"/></g></svg>