<svg xmlns="http://www.w3.org/2000/svg" xmlns:xlink="http://www.w3.org/1999/xlink"><defs><path id="a" d="M0 89.993V.034h89.964v89.959z"/></defs><g fill="none" fill-rule="evenodd"><path fill="#0A0B09" d="M45.3 53.635c-2.76 0-4.998 2.364-4.998 5.28 0 2.917 2.237 5.282 4.998 5.282 2.76 0 4.997-2.365 4.997-5.281 0-2.916-2.237-5.28-4.997-5.28"/><mask id="b" fill="#fff"><use xlink:href="#a"/></mask><path fill="#0A0B09" d="M38.786 25.991c0 .057.003.113.007.169h-.004l.005.037c.01.144.032.287.064.427l3.093 20.88c.108 1.778 1.565 3.186 3.349 3.186 1.772 0 3.223-1.393 3.345-3.157l3.088-20.876c.038-.159.062-.32.072-.485l.002-.012h-.001c.003-.056.006-.112.006-.169 0-2.367-2.916-4.286-6.512-4.286-3.598 0-6.514 1.918-6.514 4.286" mask="url(#b)"/><path fill="#E61E50" d="M82.836 45.017L44.981 82.871 7.128 45.017 44.98 7.162l37.855 37.855zM0 45.017L44.981 90l44.983-44.983L44.98.034 0 45.017z" mask="url(#b)"/></g></svg>