<svg xmlns="http://www.w3.org/2000/svg" xmlns:xlink="http://www.w3.org/1999/xlink"><defs><path id="a" d="M0 89.993h89.963V.035H0z"/></defs><g fill="none" fill-rule="evenodd"><mask id="b" fill="#fff"><use xlink:href="#a"/></mask><path fill="#E61E50" d="M82.836 45.017L44.98 82.871 7.127 45.017 44.981 7.162l37.855 37.855zM0 45.017L44.981 90l44.982-44.983L44.981.034 0 45.017z" mask="url(#b)"/><path fill="#0A0B09" d="M40.324 49.245a.652.652 0 1 0 0 1.304.652.652 0 0 0 0-1.304m9.877 6.256a.68.68 0 1 0-1.314.244.506.506 0 0 0-.395.702c.071.18.245.307.45.307l.013-.001h.002a.508.508 0 0 0 .508-.508c0-.023-.004-.044-.007-.067a.68.68 0 0 0 .743-.677m-6.644.813a.635.635 0 1 0 1.269 0 .635.635 0 0 0-1.27 0m-2.04-3.309a.635.635 0 1 0-.447-1.083.456.456 0 0 0-.9.106.457.457 0 0 0 .717.375.633.633 0 0 0 .63.602m6.992-2.312a.676.676 0 0 0-.31.075.508.508 0 0 0-.997.146.51.51 0 0 0 .628.495.68.68 0 0 0 .823.629.627.627 0 0 0 .475-.943.68.68 0 0 0-.62-.402m-2.447-4.048a.635.635 0 1 0-1.269 0c0 .242.137.45.337.557a.455.455 0 0 0 .126.894.457.457 0 0 0 .267-.826.633.633 0 0 0 .54-.625m-5.573 9.127a.508.508 0 1 0 0 1.015.508.508 0 0 0 0-1.015m3.59-6.556a.457.457 0 1 0 .913 0 .457.457 0 0 0-.914 0m2.1 12.31a.705.705 0 0 0-.414-.643.508.508 0 1 0-.775.13.705.705 0 1 0 1.19.512m-1.685 5.327a.703.703 0 0 0-.023-1.138.705.705 0 0 0-.711-1.135 1.239 1.239 0 0 0 .015-1.049.705.705 0 0 0 .194-1.363 1.24 1.24 0 0 0-.12-1.972 1.238 1.238 0 0 0 .068-1.553.506.506 0 1 0-.584-.769 1.239 1.239 0 0 0-1.477-.35.705.705 0 1 0-.726 1.03c-.002.026-.005.052-.005.079a1.24 1.24 0 0 0-1.859.318 1.003 1.003 0 0 0-1.72.427 1.007 1.007 0 0 0-1.549 1.058 1.505 1.505 0 0 0-2.395.52 1.007 1.007 0 0 0-1.547 1.067l12.216 12.41a.444.444 0 0 0 .024-.806.442.442 0 0 0 .029-.825.576.576 0 0 0-.19-1.043 1.953 1.953 0 0 0 .501-2.721 1.242 1.242 0 0 0-.14-2.186"/><path fill="#0A0B09" d="M58.211 61.296a.702.702 0 0 0-.334.085 1.007 1.007 0 0 0-1.504-.57 1.243 1.243 0 0 0-1.695-1.234.704.704 0 1 0-1.402.125 1.005 1.005 0 0 0-1.027-.467 1.243 1.243 0 0 0-1.447-1.21.705.705 0 0 0-1.363-.177c-.03-.002-.062-.005-.094-.005-.142 0-.279.021-.409.058a.846.846 0 1 0-1.537.697.705.705 0 1 0-.606 1.23 1.238 1.238 0 0 0 .346 1.568 1.498 1.498 0 0 0 .231 1.742 1.496 1.496 0 0 0-.108.856.701.701 0 0 0-.354-.126.705.705 0 1 0-1.081.065.705.705 0 0 0 .194 1.383c.022 0 .043-.004.065-.006a1.502 1.502 0 0 0 .47 2.012 1.505 1.505 0 0 0-.402 2.516 1.241 1.241 0 0 0-.44 1.513 1.002 1.002 0 0 0 .045 1.101.441.441 0 0 0 .025.713.443.443 0 0 0-.194.454.441.441 0 0 0 .103.754l13.183-12.136a.705.705 0 0 0-.665-.94m-1.026-13.634v.006a1.641 1.641 0 0 0-2.013 1.842.79.79 0 0 0-.947.252 1.503 1.503 0 0 0-1.973 1.364.788.788 0 0 0-.858 1.139.867.867 0 0 0-1.016 1.389v.009a.508.508 0 0 0-.431.338.453.453 0 0 0 .168.569.506.506 0 0 0 .787-.221.835.835 0 0 0 .587.079 1.498 1.498 0 0 0 .101.72.633.633 0 0 0-.434.875.617.617 0 0 0 1.09.112.65.65 0 0 0 .094-.19 1.496 1.496 0 0 0 .855.13.999.999 0 0 0 .045.803.508.508 0 1 0 .4.577 1.243 1.243 0 0 0 1.906.72 1.007 1.007 0 0 0 1.68.62c-.002.03-.005.06-.005.092a1.244 1.244 0 0 0 1.885 1.063.776.776 0 0 0 1.254.91h.001l6.734-6.198v-4.54c0-1.376-1.482-3.097-3.274-3.71a646.452 646.452 0 0 0-3.056-1.004.68.68 0 0 0-.614.544.678.678 0 0 0-.981.713 1.244 1.244 0 0 0-1.985.997m-14.029-1.065l-.002.027-.032-.017.034-.01zM35.59 26.415c0 3.711 1.388 8.92 4.094 12.112l-.33 3.386-7.259 2.626a1.244 1.244 0 0 0 1.525.953 1.243 1.243 0 0 0 1.382.917 1.243 1.243 0 0 0 1.677.826.788.788 0 0 0 1.017.675 1.243 1.243 0 0 0 2.325.366 1.235 1.235 0 0 0 1.263.142c.163.344.463.609.83.723a.457.457 0 1 0 .858-.016 1.367 1.367 0 0 0 .698-2.03.455.455 0 0 0 .095-.878 1.235 1.235 0 0 0 .294-.992c.468-.178.802-.63.802-1.162 0-.332-.132-.632-.345-.854a.457.457 0 1 0-.147-.808.633.633 0 0 0-.452-.325 1.645 1.645 0 0 0 .137-1.444 1.242 1.242 0 0 0 .505-1.974.867.867 0 0 0 .175-1.566.863.863 0 0 0 .173-.69.864.864 0 0 0 .482-.171.865.865 0 0 0 .386.895 1.237 1.237 0 0 0 .662 1.557 1.637 1.637 0 0 0 .57 1.74.955.955 0 0 0-.002 1.748.786.786 0 0 0 .346 1.109 1.636 1.636 0 0 0 .053 1.346c-.053.06-.101.123-.145.189a.457.457 0 1 0-.325.778c.022 0 .043-.004.063-.007a1.63 1.63 0 0 0 .24.989 1.81 1.81 0 0 0 .258 2.059.846.846 0 1 0 1.55.596c.23-.025.445-.093.64-.194a.633.633 0 1 0 .815-.853c.065-.138.11-.286.138-.44.137.036.28.058.43.058.018 0 .036-.003.055-.003a.767.767 0 0 0 1.328.182.68.68 0 0 0 1.223.195.868.868 0 0 0 1.2-1.177.68.68 0 0 0 .882-.741.867.867 0 0 0 1.638-.38.867.867 0 0 0 .408-.66.457.457 0 0 0 .57-.583l-.693-.224-7.247-2.334-.029-3.095c1.101-1.184 1.96-2.712 2.581-4.369 1.178-3.14 1.813-6.46 1.813-8.198 0-4.502-4.3-10.34-9.603-10.34-5.304 0-9.604 4.63-9.604 10.34zm-1.924 32.79c0-.05-.004-.098-.01-.146a1.007 1.007 0 0 0 1.697-1.054c.203-.07.375-.203.495-.375a.705.705 0 1 0 .985-1.007 1.01 1.01 0 0 0 .532-.64c.162.179.386.299.64.325a.705.705 0 1 0 .745-.224 1.006 1.006 0 0 0 .33-1.044 1.003 1.003 0 0 0 .492-.078.507.507 0 1 0 .524-.525 1.004 1.004 0 0 0 .049-.65.457.457 0 0 0 0-.913c-.013 0-.025.002-.038.004a1.24 1.24 0 0 0-.514-.923c.002-.03.005-.059.005-.088a1.243 1.243 0 0 0-1.896-1.058.652.652 0 0 0-.794-.856 1.243 1.243 0 0 0-1.817-1.274 1.244 1.244 0 0 0-.697-.54.652.652 0 0 0-.832-.876 1.243 1.243 0 0 0-1.56-1.192.652.652 0 0 0-1.018-.244.652.652 0 0 0-.986-.467c-1.725.66-3.157 1.212-3.703 1.43-1.217.486-2.123 1.788-2.123 3.077v4.154l6.729 6.83a1.006 1.006 0 0 0 1.086-.483 1.24 1.24 0 0 0 1.679-1.164"/></g></svg>