<svg xmlns:xlink="http://www.w3.org/1999/xlink"><defs><path id="id-26a" d="M0 89.982h89.953V.034H0z"/></defs><g fill="none" fill-rule="evenodd"><mask id="id-27b" fill="#fff"><use xlink:href="#id-26a"/></mask><path fill="#E61E50" d="M82.826 45.012l-37.85 37.85-37.85-37.85 37.85-37.85 37.85 37.85zM0 45.012L44.976 89.99l44.977-44.978L44.976.034 0 45.012z" mask="url(#id-27b)"/><path fill="#0A0B09" d="M41.961 60.648h-8.776v3.696h24.384v-3.696h-9.897c-.915.225-1.871.345-2.856.345-.984 0-1.94-.12-2.855-.345"/><path fill="#0A0B09" d="M44.816 57.57a8.494 8.494 0 1 1 0-16.988 8.494 8.494 0 0 1 0 16.989zm11.067-8.736l.391-3.042a11.892 11.892 0 0 0-2.428-4.492l-.763.64-.529-.665-.296-1.505a11.888 11.888 0 0 0-3.792-2.04l-.62.958-.41-1.239a11.949 11.949 0 0 0-5.392.036l.011.517-1.17.297-.212-.399c-.997.37-1.931.87-2.783 1.479l.292.72-1.145-.05a11.965 11.965 0 0 0-2.843 3.622l.024 1.326-.72 5.88-.545-.675c.477 5.093 4.159 9.253 9.008 10.446.915.225 1.871.345 2.855.345.985 0 1.94-.12 2.856-.345a11.935 11.935 0 0 0 8.702-8.66l-.452.723-.039-3.877z"/><path fill="#0A0B09" d="M43.696 16.642V19.6l-.776 4.033-.998 2.506-1.265-1.66-.56-1.08-.32-1.12-2.04-2.479.483 1.826-1.003 1.893-.4 2.8.497 4.017-1.795-.949-1.182-1.748-1.599-1.92.44 2.72.021 4.58.444 2.4-2.185-1.341-1.96-1.48.44 4.24v5.279l.92 4.8.96 1.88 1.68 2.079.72-5.879-.051-2.779-.625-2.522-.284-1.858 1.636 1.596.988.565 1.155.05 1.145.051-.807-1.998.908-3.086.428-3.14.9 4.014 1.273 2.409 1.171-.297-.06-2.663 1.787-3.502.039-2.702 2.213 2.624.47 2.878 1.341 4.051 3.221-4.971 1.488 7.558.529.666 1.841-1.547 1.664-1.175-.02 4.288-.685 5.327.039 3.877 3.035-4.857 1.377-4.097v-4.999l-1.359-5.64v.92l-1.48 1.4-1.72.8.5-2.345.881-2.937-.96-3.446-.541 1.449-.96.998-1.68.8.4-2.318v-2.76l-2.319-4.999v1.04l-.48 2.239-.92 1.76-1.76.88v-4.08l-.96-3.199-1.32-3.16-.954-3.884-1.006 4.366"/></g></svg>