<svg xmlns="http://www.w3.org/2000/svg" xmlns:xlink="http://www.w3.org/1999/xlink"><defs><path id="a" d="M0 89.957h89.927V.034H0z"/></defs><g fill="none" fill-rule="evenodd"><mask id="b" fill="#fff"><use xlink:href="#a"/></mask><path fill="#E61E50" d="M82.803 44.999l-37.84 37.84-37.838-37.84 37.838-37.84L82.803 45zM0 44.999l44.964 44.965L89.927 45 44.963.034 0 45z" mask="url(#b)"/><path fill="#0A0B09" d="M64.293 53.685l.674-.32.293-.138.096-.456a.66.66 0 0 0-1.291-.273c-.026.123-.636 3.01-.77 3.815-.078.468-.64.783-1.117.783-.775 0-1.531-.889-1.573-1.223-.256-2.044-1.489-3.04-2.477-3.515l-6.372-3.065a8.695 8.695 0 0 1-1.045.962l6.845 3.292c1.022.492 1.591 1.306 1.74 2.49.117.935 1.407 2.378 2.882 2.378 1.034 0 2.222-.705 2.419-1.885.052-.316.187-.992.328-1.684l-.059.028-.573-1.189"/><path fill="#0A0B09" d="M59.187 51.426l.325.159c.385.208.626.293 1.465.293.583 0 1.1-.193 1.6-.38.552-.207 1.123-.42 1.869-.42.882 0 2.009.62 2.009 1.108 0 .395-.048.493-1.195 1.04l-.293.14-.674.32.573 1.188.059-.028.603-.286c1.4-.659 2.246-1.056 2.246-2.374 0-1.482-1.97-2.428-3.328-2.428-.984 0-1.732.28-2.332.504-.426.16-.793.297-1.137.297-.589 0-.647-.032-.838-.135l-.44-.214c-.464-.195-4.316-2.032-6.58-3.116-.122.378-.317.78-.577 1.187 1.346.644 6.095 2.914 6.645 3.145m-5.718-9.244l-.196.118v1.162c1.067-.488 5.164-2.364 6.17-2.883 1.14-.587 2.007-1.843 2.525-2.593l.198-.284c.343-.472 1.059-1.024 1.945-1.024.291 0 .417.096.487.167.425.44.384 1.722.354 2.66l-.016.743a.647.647 0 0 0 .645.66.672.672 0 0 0 .675-.66l.005-.265a1.62 1.62 0 0 0-.786-.88l.578-1.186c.076.037.15.078.22.121-.048-.82-.221-1.588-.727-2.11-.366-.378-.849-.57-1.435-.57-1.38 0-2.461.81-3.012 1.568l-.218.31c-.418.607-1.196 1.735-2.042 2.17-.608.313-2.4 1.147-3.929 1.852-.344.251-.706.473-1.055.686l-.386.238"/><path fill="#0A0B09" d="M65.475 39.103c.438.214.685.604.786.88a.779.779 0 0 1 .056.244v1.27c0 .36-.105.789-.603.789-.41 0-.932-.255-1.436-.501-.583-.284-1.133-.553-1.696-.553l-.095-.003c-.33-.016-1.014-.048-1.979.404l-.019.008-7.216 3.655v.92c0 .187-.026.388-.075.598l7.873-3.988c.667-.311 1.08-.292 1.353-.28l.158.006c.258 0 .695.213 1.117.419.61.297 1.301.635 2.015.635 1.132 0 1.922-.868 1.922-2.11v-1.27c0-.69-.476-1.65-1.363-2.188a2.753 2.753 0 0 0-.22-.121l-.578 1.186m-14.655.06c2.2 0 3.125-2.761 3.125-3.472 0-.711-.562-1.009-.893-1.009H48.87c-.446 0-1.52.364-1.52 1.058 0 .26.194.832.614 1.388.724.96 1.353 2.035 2.857 2.035"/><path fill="#0A0B09" d="M36.73 23.415c-.389.381-.79.776-1.245 1.19l-.594.54c-1.794 1.625-3.09 2.799-3.09 4.057 0 2.111 1.302 3.991 2.252 5.364l.169.25c.086-.611.17-1.098.216-1.283a52.972 52.972 0 0 0-.278-1.212c-.565-.958-1.04-2.035-1.04-3.119 0-.673 1.29-1.842 2.657-3.08l.598-.542c.472-.431.882-.834 1.279-1.224.904-.888 1.618-1.59 2.45-2.01 1.873-.95 3.573-1.3 5.35-1.3 3.668 0 5.45 1.53 7.705 3.584l1.197 1.072.446.387c1.435 1.243 2.79 2.418 2.79 3.113 0 .863-.301 1.722-.71 2.52-.042.269-.122.623-.27 1.279l-.311 1.397c.03.118.072.297.12.52l.237-.352c.951-1.373 2.253-3.253 2.253-5.364 0-1.298-1.361-2.478-3.245-4.11l-.444-.385-1.174-1.053c-2.27-2.067-4.415-4.02-8.595-4.02-1.964 0-3.91.502-5.946 1.535-1.014.513-1.831 1.316-2.778 2.246"/><path fill="#0A0B09" d="M56.612 33c.148-.655.228-1.009.27-1.279.048-.294.051-.487.051-.86 0-1.42-.393-2.033-1.843-3.55l-.954.912c1.36 1.421 1.478 1.724 1.478 2.638 0 .568 0 .568-.289 1.85l-.383 1.717.044.157c.005.016.448 1.647.448 3.212 0 1.635-1 2.247-2.267 3.021l-.398.245-1.36.82c-1.437.844-2.154 1.217-2.154 2.69v.842c0 .488-1.847 1.74-3.815 1.74-1.807 0-3.796-1.252-3.868-1.704 0-.603.026-.865.026-.865 0-1.444-.7-1.85-2.095-2.66-.388-.226-.871-.506-1.44-.863l-.398-.245c-1.267-.774-2.171-1.214-2.171-3.021 0-1.903.453-2.583.453-3.17 0-.588-.634-2.877-.634-3.233l.006-.433c0-.856.108-1.57 1.431-2.747.108-.095.271-.386.14-.547-.13-.161-.183-.228-.335-.408-.153-.18-.553-.144-.671-.04-1.565 1.391-1.885 2.444-1.885 3.742l-.005.443c0 .353-.015.175.166.917.065.265.154.646.278 1.212-.046.185-.13.672-.216 1.283-.136.965-.275 2.241-.275 3.139 0 1.23.567 2.099 1.309 2.773a634.4 634.4 0 0 0 2.523 1.164h.979v.448l.084.038-.084.184v.457l.083.048c1.331.773 1.432.863 1.437 1.466-.02.163-.025.43-.025.926 0 1.636 3.186 3.016 5.187 3.016 2.22 0 5.161-1.502 5.161-3.06v-.842c0-.665.07-.726 1.353-1.48v-1.201h1.32v.408l.195-.118.386-.238c.35-.213.71-.435 1.055-.686.994-.724 1.844-1.697 1.844-3.461 0-1.103-.189-2.2-.333-2.879a14.85 14.85 0 0 0-.12-.52l.311-1.397M37.455 46.48c.03.268.107.557.226.86.27-.13.523-.25.756-.363l-.982-.497"/><path fill="#0A0B09" d="M53.273 45.296v-3.404h-1.32v4.325c0 .873-1.196 2.737-3.36 3.825l-.07.035c-1.047.527-2.35 1.129-2.889 1.129-.496 0-2.175-.49-3.516-1.164-2.163-1.088-3.36-2.952-3.36-3.825v-3.655l-.464 1.016-.856-.39v1.805l.63.319.384 1.658.103-.049.57 1.19-.809.387c.243.348.533.696.867 1.032l.566-.267 1.272.86-.735.346c.38.274.794.528 1.24.752 1.089.547 3.147 1.358 4.108 1.358.853 0 2.13-.643 3.482-1.323l.07-.035c.56-.281 1.07-.61 1.525-.966a8.695 8.695 0 0 0 1.045-.962c.305-.332.568-.674.786-1.012.26-.407.455-.809.577-1.187.031-.095.057-.188.079-.28.05-.21.075-.41.075-.597v-.92m-14.515-3.405h-.98l.98.45v-.45"/><path fill="#0A0B09" d="M39.749 49.263l-5.578 2.628-.987.467c-.989.476-2.221 1.47-2.477 3.515-.042.334-.798 1.223-1.573 1.223-.477 0-1.04-.315-1.117-.783-.135-.805-.744-3.692-.77-3.815a.66.66 0 1 0-1.29.273c0 .007.038.183.095.456l.293.138.674.32-.573 1.189-.059-.028c.141.692.275 1.368.328 1.684.197 1.18 1.384 1.885 2.419 1.885 1.474 0 2.765-1.443 2.882-2.378.148-1.184.718-1.998 1.74-2.49l.974-.46 5.556-2.618.735-.347-1.272-.859"/><path fill="#0A0B09" d="M27.019 53.685l-.674-.32-.293-.138c-1.147-.548-1.195-.646-1.195-1.041 0-.487 1.126-1.108 2.009-1.108.745 0 1.317.213 1.87.42.5.187 1.016.38 1.599.38.839 0 1.08-.085 1.465-.293l.325-.159c.509-.214 4.454-2.097 6.191-2.928l.809-.387-.57-1.19-.103.05.004.016-.019-.01-.756.362c-2.289 1.095-5.638 2.69-6.068 2.87l-.44.215c-.191.103-.25.135-.838.135-.344 0-.712-.138-1.137-.297-.6-.224-1.348-.504-2.332-.504-1.357 0-3.328.946-3.328 2.428 0 1.318.845 1.715 2.246 2.374l.662.314.573-1.189m-1.182-14.582a1.62 1.62 0 0 0-.787.88l.006.265c.008.364.31.668.674.66a.647.647 0 0 0 .646-.66l-.016-.743c-.03-.938-.071-2.22.354-2.66.07-.071.196-.167.487-.167.886 0 1.601.552 1.945 1.024l.199.284c.517.75 1.383 2.006 2.523 2.593.885.456 4.03 1.903 5.57 2.608l.856.391.464-1.016.084-.184a108.873 108.873 0 0 1-6.37-2.972c-.846-.435-1.623-1.563-2.042-2.17l-.217-.31c-.551-.758-1.632-1.567-3.012-1.567-.587 0-1.07.191-1.435.569-.506.522-.679 1.29-.728 2.11.072-.043.145-.084.22-.121l.58 1.186"/><path fill="#0A0B09" d="M38.456 46.987l-.004-.017-.383-1.658-.63-.32-6.626-3.355-.01-.004c-.964-.452-1.649-.42-1.978-.404l-.095.003c-.563 0-1.113.269-1.696.553-.505.246-1.027.501-1.436.501-.498 0-.603-.43-.603-.79v-1.27c0-.056.018-.142.055-.243a1.62 1.62 0 0 1 .787-.88l-.578-1.186c-.076.037-.15.078-.22.121-.887.538-1.363 1.499-1.363 2.189v1.27c0 1.241.79 2.109 1.922 2.109.714 0 1.405-.338 2.015-.635.422-.206.859-.42 1.117-.42l.158-.004c.273-.013.686-.032 1.353.28.023.01 5.028 2.546 7.214 3.653l.982.497.019.01m1.436-7.824c1.504 0 2.132-1.075 2.857-2.035.42-.556.615-1.127.615-1.388 0-.694-1.075-1.058-1.522-1.058H37.66c-.33 0-.892.298-.892 1.009 0 .71.926 3.472 3.125 3.472m4.338 5.421c1.029 0 .682-.416 1.56-.416.716 0 .474.405 1.444.405.9 0 1.12-.682 1.12-.959 0-.427-.484-.702-.704-1.282-.22-.578-.648-2.715-1.953-2.715-.48 0-.756.196-1.12.624-.59.693-.636 1.859-1.005 2.31-.358.44-.497.91-.497 1.156 0 .265.128.877 1.155.877"/></g></svg>