<svg viewBox="0 0 1200 900"><path d="M520.2 132.7c.2 15-3.9 24.7-11.7 33-14 14.9-28 29.9-42 44.8-8.4 8.9-18.7 8.9-27 .1-14-14.9-28-29.9-42-44.8-18.4-19.7-14.9-51.5 7-64.7 15-9 33.2-6.5 45.6 6.5 1.3 1.4 2.1 3.7 4.9.9 12.5-12.6 27-16 41.3-9.9 14.9 6.3 23.9 20.5 23.9 34.1z" fill="#e6a3b7"/><path d="M549.5 169c-3.3-.8-7.6-1.7-11.7-2.9-2-.6-2.9-2.3-2.5-4.3.5-2.2 2.1-3.6 4.4-3.2 4.2.7 8.5 1.7 12.6 2.9 1.9.5 2.9 2.3 2.5 4.4-.5 2.1-2 3.2-5.3 3.1zM502.8 232.5c.5 2.1-.8 3.5-2.2 4.2-1.6.7-3.5.9-4.6-.7-2.8-4.1-5.1-8.5-6.3-13.4-.4-1.5.5-2.9 2.1-3.6 1.5-.7 3.2-.8 4.2.4 3.2 4 5.8 8.6 6.8 13.1zM359 173c-2.7.1-4.4-.9-4.9-3.2s.6-4 2.8-4.6c4-1.1 8.1-2.1 12.1-2.8 2.2-.4 3.9.9 4.4 3.2s-.6 4-2.8 4.6c-3.9 1-8 1.9-11.6 2.8zM388.8 91.9c.1 3-2.9 5.4-5.5 3.9-4.2-2.3-8-5.4-11.2-9-1.2-1.4-.8-3.2.3-4.6 1.1-1.3 2.7-1.9 4-1.2 4.5 2.5 8.5 5.7 11.9 9.6.3.5.4 1 .5 1.3zM422 225c-1 4.3-3.4 8.9-6.7 13-1.1 1.4-3 1.3-4.6.3-1.8-1.2-2.3-3-1.6-4.8 1.6-3.8 3.5-7.6 5.4-11.2.9-1.8 2.6-2.6 4.7-1.8 1.8.6 3.4 1.9 2.8 4.5zM534 81.5c.1 1.2-.3 2.4-1.2 3.1-3.2 2.6-6.4 5.3-9.7 7.7-1.8 1.3-3.9 1.1-5.3-.7s-1.4-3.9.3-5.4c3.1-2.7 6.3-5.4 9.7-7.7 2.9-1.8 6.1-.1 6.2 3zM448.1 52c0-2.2-.2-4.3.1-6.5.3-2.3 1.8-3.6 4.1-3.4 2 .1 3.6 1.4 3.6 3.4.2 4.3.2 8.6 0 13-.1 2.3-1.8 3.6-4.1 3.4-2.1-.1-3.5-1.4-3.7-3.4-.2-2.1 0-4.3 0-6.5z" fill="#db1d4c"/><path d="M815.1 136.4c.3 11.7-3.4 20.7-10.6 28.3-13.1 14-26.1 28-39.3 41.9-7.6 8.1-17.2 7.9-24.8-.2-13-13.8-26-27.7-38.9-41.6-17.6-18.9-13.2-49.4 8.7-60.8 13.3-6.9 29-4.2 39.9 6.9 1.4 1.4 2.2 3.9 4.9 1 10.5-11.4 23.3-14.6 37.7-9.1 14 5.4 22.4 19 22.4 33.6z" fill="#e46183"/><path d="M871.8 174c-7.7-1.7-15.6-3.5-23.5-5.3-3.2-.7-6.5-1.5-9.7-2.3-2.4-.6-3.8-2.2-3.3-4.8.6-2.4 2.4-3.6 4.9-3 11 2.4 22 4.9 33 7.5 2.2.5 3.3 2.2 3 4.5-.2 2.3-1.8 3.4-4.4 3.4zM637.2 177.9c-2.4.1-4-.9-4.6-3.1-.5-2.3.5-4.1 2.7-4.6 11.1-2.7 22.3-5.2 33.5-7.7 2.5-.5 4.3.8 4.7 3.3s-1 4.1-3.5 4.6c-7 1.6-13.9 3.2-20.9 4.8-4 .8-8 1.8-11.9 2.7zM703.4 259c-2.8.1-5-2.7-3.7-5.5 4.8-10.4 9.8-20.7 14.9-31 1-2 2.8-2.8 5.1-1.8 2.4 1.1 3.1 3.2 2.1 5.4-4.8 10.2-9.8 20.4-14.7 30.5-.8 1.4-2.1 2.2-3.7 2.4zM793.4 218.6c2.1 0 3.3 1.2 4.2 3 4.7 9.7 9.4 19.4 14 29.1 1.1 2.3 1.1 4.8-1.5 6-2.8 1.3-4.7-.1-6-2.7-4.6-9.6-9.3-19.1-13.8-28.7-1.6-3.7-.1-6.6 3.1-6.7zM851.3 68.1c0 1.9-1.2 3-2.6 4-8 6.4-16.1 12.8-24.1 19.2-2.3 1.8-4.8 3-6.9.2-2.1-2.8-.3-4.9 1.9-6.7 8.1-6.4 16.1-12.8 24.1-19.2 1.6-1.3 3.3-2.3 5.4-1.2 1.6.7 2.2 2 2.2 3.7zM688.8 92.2c.1 3.3-3.7 5.3-6.5 3.2-9.1-7-18-14.2-26.9-21.4-1.7-1.4-1.9-3.5-.4-5.3s3.5-2.2 5.3-.8c9 7.1 18 14.2 26.9 21.4 1 .6 1.5 1.7 1.6 2.9zM756 41.1V57c0 2.7-1 4.7-3.8 4.8-3.1.1-4.2-2-4.2-4.9V25c0-2.8.9-5.1 4.1-5.1 3.2 0 4 2.3 4 5.1-.1 5.5-.1 10.8-.1 16.1z" fill="#dd1d4d"/><g><path d="M993.5 134.6c.3-9.7 5.7-20.7 17.8-27.5 10.9-6.2 22.1-5.7 32.7.9 3.3 2 6.1 6.6 9.3 6.8 2.9.1 5.4-4.8 8.7-6.9 19.9-12.5 46-.2 50 23.8 2.1 12.6-1.1 23.8-9.9 33.2l-36.6 39c-8.1 8.7-16.8 8.7-24.9 0l-36.6-39c-7.2-7.8-10.5-16.1-10.5-30.3z" fill="#e41e4f"/><path d="M1183.6 176.7c-10.4-2.4-20.8-4.7-31.1-7-4.4-1-8.7-1.9-13.1-3-2.7-.7-4.8-2.1-3.9-5.2.8-2.7 2.9-3.3 5.6-2.7 14.4 3.3 28.8 6.5 43.2 9.8 2.6.6 4.3 2 3.7 4.9-.5 2.3-2.3 3.1-4.4 3.2zM925.7 180.5c-2.6 0-4.5-.7-4.8-3.5-.4-3.3 2-4.2 4.5-4.8 12-2.7 23.9-5.4 35.9-8.2 1.8-.4 3.6-.7 5.3-1.2 3-.9 6-.9 6.7 2.8.8 3.8-2.4 4.6-5.2 5.2-10.7 2.4-21.3 4.8-32 7.2-3.5.9-7 1.7-10.4 2.5zM1093.6 218.6c2.1 0 3.3 1.4 4.1 3.1 6.3 13.1 12.7 26.3 19 39.4 1.2 2.5 1.4 5-1.5 6.4-3 1.4-4.7-.5-5.8-3-6.3-13-12.6-26-18.7-39-2-3.9-.5-7 2.9-6.9zM997.8 269.7c-2.9-.8-4.7-2.7-3.3-5.8 6.5-13.8 13.2-27.6 19.9-41.3 1.1-2.1 3-3.2 5.4-1.9 2.3 1.2 2.8 3.3 1.7 5.5-6.5 13.6-13.1 27.2-19.6 40.8-.8 1.7-2.1 2.6-4.1 2.7zM1160.8 60.6c-.2 1.9-1.4 3-2.7 4.1-11.2 8.9-22.4 17.8-33.6 26.8-2.2 1.7-4.5 2.8-6.6.3-2.3-2.7-.8-4.9 1.6-6.7 11.2-8.9 22.4-17.8 33.6-26.8 1.7-1.3 3.4-2.2 5.5-1.2 1.4.6 2 1.9 2.2 3.5zM988.8 92.4c-.2 1.5-.9 2.9-2.4 3.4-2.1.8-3.8-.1-5.5-1.4-9.7-7.8-19.5-15.6-29.3-23.4-1.7-1.3-3.4-2.7-5.1-4.1-1.9-1.6-2.4-3.7-.9-5.7 1.6-2.1 3.8-2 5.8-.6 3 2.2 5.8 4.5 8.6 6.8 8.5 6.7 16.9 13.5 25.4 20.2 1.6 1.3 3.3 2.5 3.4 4.8z" fill="#de1d4d"/><path d="M1048 34.5v-21c0-2.8.6-5.3 3.8-5.4 3.5-.2 4.3 2.4 4.3 5.4v43c0 2.8-.6 5.3-3.8 5.4-3.5.2-4.3-2.4-4.3-5.4v-22z" fill="#e41e4f"/></g><g><path d="M213 433.6c.2 14.9-3.4 23.6-10.3 31-12.6 13.5-25.2 27-37.9 40.5-7.1 7.6-16.5 7.6-23.6 0-12.7-13.5-25.3-26.9-37.9-40.5-17.5-18.9-12.3-49.5 10.1-59.5 12.7-5.7 26.4-2.9 37 7.8 1.6 1.6 2.5 2.7 4.6.4 10.4-10.9 22.9-14.2 36.8-8.3 14.5 6.1 20.7 18.1 21.2 28.6z" fill="#e31e4f"/><path d="M242.6 459c10.7 2.4 21.6 4.9 32.5 7.4 3.2.7 6.5 1.5 9.7 2.3 2.5.6 3.7 2.3 3.1 4.8s-2.5 3.5-5 2.9c-14-3.1-27.9-6.3-41.8-9.6-2.5-.6-3.6-2.3-3.1-4.9.5-2.2 2.2-3 4.6-2.9zM121 526.9c-.5 1.1-.9 2.4-1.5 3.5-5.6 11.7-11.2 23.3-16.8 34.9-1.3 2.6-2.6 5.5-6.3 3.8-3.6-1.6-2.5-4.5-1.2-7.2 5.8-12.1 11.7-24.2 17.5-36.3 1-2.2 2.5-3.5 5.1-3 2.2.6 3 2.1 3.2 4.3zM217.4 563.2c0 2.5-.9 4-2.9 4.6-2.1.6-3.6-.4-4.6-2.2-1.8-3.6-3.5-7.2-5.3-10.8L192 528.7c-1.3-2.6-2.7-5.6.7-7.4 3.7-1.9 5.3 1 6.6 3.9 5.5 11.6 11.1 23.1 16.6 34.6.7 1.4 1.2 2.6 1.5 3.4zM25.2 480.5c-2.1-.1-3.9-.8-4.2-3.2-.5-3.3 1.7-4.4 4.3-5 10.7-2.4 21.4-4.8 32.1-7.3 2.8-.6 5.5-1.4 8.3-1.9 2.6-.5 4.8.2 5.3 3.1.5 2.6-1 4.2-3.4 4.7-13.8 3.2-27.6 6.3-41.3 9.4-.4 0-.7.1-1.1.2zM222.8 391.6c-1.7-.2-3-.8-3.6-2.3-.8-2.1-.2-3.9 1.6-5.3 4-3.2 8.1-6.4 12.1-9.6 6.6-5.3 13.3-10.6 19.9-15.9 2.3-1.8 4.7-3.1 7-.4 2.3 2.8.4 4.9-1.8 6.7l-31.2 24.9c-1.3.9-2.5 1.8-4 1.9zM48.4 359.8c2.1-.2 3.4 1 4.7 2 10.2 8.1 20.3 16.2 30.4 24.3 2.3 1.8 4.8 3.8 2.3 7-2.4 3.1-5 1.3-7.3-.5l-31.2-24.9c-1.9-1.5-3-3.2-2.1-5.6.5-1.5 1.7-2.4 3.2-2.3z" fill="#de1d4d"/><path d="M156 333.8v20.5c0 2.9-.8 5.1-4.1 5-3.3 0-4-2.3-4-5.2v-40.9c0-2.9.9-5.1 4.1-5.1 3.2 0 4 2.4 4 5.2v20.5z" fill="#e31e4f"/></g><g><path d="M514.7 435.2c0 12.6-3.2 21.3-10 28.6-13.2 14.3-26.5 28.6-39.9 42.7-7 7.4-16.4 7.5-23.3.3-13.6-14.4-27.3-28.7-40.6-43.5-16.7-18.6-10.9-48.9 10.8-59.2 13.2-6.2 27.7-3.5 38.5 7.4 1.6 1.6 2.4 3.3 4.9.7 10.6-11.2 23.5-14.6 37.7-8.5 14.9 6.3 21.2 18.6 21.9 31.5z" fill="#e31e4f"/><path d="M583.6 476.7c-10.4-2.4-20.8-4.7-31.1-7.1-1.3-.3-2.6-.5-3.9-.9-2.6-.7-4.9-1.9-4.2-5.1.7-3 3.1-3.5 5.9-2.9 9.9 2.3 19.8 4.5 29.6 6.7 1.8.4 3.6.8 5.3 1.3 2.2.7 3.2 2.3 2.8 4.6-.5 2.5-2.3 3.3-4.4 3.4zM325.8 480.5c-2.9-.2-4.6-1-4.9-3.4-.4-3 1.5-4.2 4-4.8 7.8-1.8 15.5-3.5 23.3-5.3 3.9-.9 7.8-1.9 11.7-2.6 2.2-.4 3.9.7 4.6 2.9.7 2.3-.3 4.2-2.5 4.7-12.2 3-24.5 5.8-36.2 8.5zM397.8 569.7c-2.9-.8-4.8-2.6-3.3-5.8 5.2-11.1 10.6-22.2 16-33.2 1.1-2.3 3.3-2.8 5.5-1.6 2.1 1.1 2.6 3.2 1.6 5.1-5.3 11.1-10.6 22.2-16 33.2-.6 1.5-2 2.2-3.8 2.3zM517.4 563.5c-.1 2.4-1 3.8-2.8 4.3-2.3.7-3.9-.4-4.9-2.4-1.9-3.7-3.7-7.4-5.5-11.2-3.2-6.6-6.3-13.2-9.5-19.8-1.3-2.7-2.4-5.6 1.2-7.2 3.1-1.4 4.8.8 6.1 3.5 4.7 9.9 9.5 19.8 14.2 29.7.6 1.1 1 2.4 1.2 3.1zM560.8 360.7c-.2 1.4-.9 2.5-2 3.3-9.2 7.4-18.4 14.7-27.7 22.1-2 1.6-4.3 2.1-6.2-.1s-1.1-4.4.9-6.1c9.3-7.5 18.7-14.9 28.1-22.4 1.4-1.1 3.1-1.4 4.7-.5 1.4.8 2.1 2.1 2.2 3.7zM349 359.8c1.6 0 2.7 1.1 3.9 2 8.6 6.8 17.1 13.7 25.7 20.5 2.2 1.8 4.2 3.8 2.1 6.7-2.1 2.9-4.6 1.8-6.9-.1-8.8-7.1-17.7-14.1-26.5-21.1-1.8-1.5-3.1-3.1-2.2-5.5.6-1.9 2.1-2.6 3.9-2.5z" fill="#dd1d4d"/><path d="M456 331v16.9c0 2.7-1 4.8-3.8 4.8-3.1.1-4.2-2-4.2-5v-34.9c0-2.7 1-4.7 3.8-4.8 3.2-.1 4.2 2.1 4.2 5v18z" fill="#e31e4f"/></g><g><path d="M813 433.6c.2 14.9-3.4 23.6-10.3 31-12.6 13.5-25.2 27-37.9 40.5-7.1 7.6-16.5 7.6-23.6 0-12.7-13.5-25.3-26.9-37.9-40.5-17.5-18.9-12.3-49.5 10.1-59.5 12.7-5.7 26.4-2.9 37 7.8 1.6 1.6 2.5 2.7 4.6.4 10.4-10.9 22.9-14.2 36.8-8.3 14.5 6.1 20.7 18.1 21.2 28.6z" fill="#e31e4f"/><path d="M842.6 459c10.7 2.4 21.6 4.9 32.5 7.4 3.2.7 6.5 1.5 9.7 2.3 2.5.6 3.7 2.3 3.1 4.8-.6 2.5-2.5 3.5-5 2.9-14-3.1-27.9-6.3-41.8-9.6-2.5-.6-3.6-2.3-3.1-4.9.5-2.2 2.2-3 4.6-2.9zM721 526.9c-.5 1.1-.9 2.4-1.5 3.5-5.6 11.7-11.2 23.3-16.8 34.9-1.3 2.6-2.6 5.5-6.3 3.8-3.6-1.6-2.5-4.5-1.2-7.2 5.8-12.1 11.7-24.2 17.5-36.3 1-2.2 2.5-3.5 5.1-3 2.2.6 3 2.1 3.2 4.3zM817.4 563.2c0 2.5-.9 4-2.9 4.6-2.1.6-3.6-.4-4.6-2.2-1.8-3.6-3.5-7.2-5.3-10.8L792 528.7c-1.3-2.6-2.7-5.6.7-7.4 3.7-1.9 5.3 1 6.6 3.9 5.5 11.6 11.1 23.1 16.6 34.6.7 1.4 1.2 2.6 1.5 3.4zM625.2 480.5c-2.1-.1-3.9-.8-4.2-3.2-.5-3.3 1.7-4.4 4.3-5 10.7-2.4 21.4-4.8 32.1-7.3 2.8-.6 5.5-1.4 8.3-1.9 2.6-.5 4.8.2 5.3 3.1.5 2.6-1 4.2-3.4 4.7-13.8 3.2-27.6 6.3-41.3 9.4-.4 0-.7.1-1.1.2zM822.8 391.6c-1.7-.2-3-.8-3.6-2.3-.8-2.1-.2-3.9 1.6-5.3 4-3.2 8.1-6.4 12.1-9.6 6.6-5.3 13.3-10.6 19.9-15.9 2.3-1.8 4.7-3.1 7-.4 2.3 2.8.4 4.9-1.8 6.7l-31.2 24.9c-1.3.9-2.5 1.8-4 1.9zM648.4 359.8c2.1-.2 3.4 1 4.7 2 10.2 8.1 20.3 16.2 30.4 24.3 2.3 1.8 4.8 3.8 2.3 7-2.4 3.1-5 1.3-7.3-.5l-31.2-24.9c-1.9-1.5-3-3.2-2.1-5.6.5-1.5 1.7-2.4 3.2-2.3z" fill="#de1d4d"/><path d="M756 333.8v20.5c0 2.9-.8 5.1-4.1 5-3.3 0-4-2.3-4-5.2v-40.9c0-2.9.9-5.1 4.1-5.1 3.2 0 4 2.4 4 5.2v20.5z" fill="#e31e4f"/></g><g><path d="M1114.7 435.2c0 12.6-3.2 21.3-10 28.6-13.2 14.3-26.5 28.6-39.9 42.7-7 7.4-16.4 7.5-23.3.3-13.6-14.4-27.3-28.7-40.6-43.5-16.7-18.6-10.9-48.9 10.8-59.2 13.2-6.2 27.7-3.5 38.5 7.4 1.6 1.6 2.4 3.3 4.9.7 10.6-11.2 23.5-14.6 37.7-8.5 14.9 6.3 21.2 18.6 21.9 31.5z" fill="#e31e4f"/><path d="M1183.6 476.7c-10.4-2.4-20.8-4.7-31.1-7.1-1.3-.3-2.6-.5-3.9-.9-2.6-.7-4.9-1.9-4.2-5.1.7-3 3.1-3.5 5.9-2.9 9.9 2.3 19.8 4.5 29.6 6.7 1.8.4 3.6.8 5.3 1.3 2.2.7 3.2 2.3 2.8 4.6-.5 2.5-2.3 3.3-4.4 3.4zM925.8 480.5c-2.9-.2-4.6-1-4.9-3.4-.4-3 1.5-4.2 4-4.8 7.8-1.8 15.5-3.5 23.3-5.3 3.9-.9 7.8-1.9 11.7-2.6 2.2-.4 3.9.7 4.6 2.9.7 2.3-.3 4.2-2.5 4.7-12.2 3-24.5 5.8-36.2 8.5zM997.8 569.7c-2.9-.8-4.8-2.6-3.3-5.8 5.2-11.1 10.6-22.2 16-33.2 1.1-2.3 3.3-2.8 5.5-1.6 2.1 1.1 2.6 3.2 1.6 5.1-5.3 11.1-10.6 22.2-16 33.2-.6 1.5-2 2.2-3.8 2.3zM1117.4 563.5c-.1 2.4-1 3.8-2.8 4.3-2.3.7-3.9-.4-4.9-2.4-1.9-3.7-3.7-7.4-5.5-11.2-3.2-6.6-6.3-13.2-9.5-19.8-1.3-2.7-2.4-5.6 1.2-7.2 3.1-1.4 4.8.8 6.1 3.5 4.7 9.9 9.5 19.8 14.2 29.7.6 1.1 1 2.4 1.2 3.1zM1160.8 360.7c-.2 1.4-.9 2.5-2 3.3-9.2 7.4-18.4 14.7-27.7 22.1-2 1.6-4.3 2.1-6.2-.1-1.9-2.2-1.1-4.4.9-6.1 9.3-7.5 18.7-14.9 28.1-22.4 1.4-1.1 3.1-1.4 4.7-.5 1.4.8 2.1 2.1 2.2 3.7zM949 359.8c1.6 0 2.7 1.1 3.9 2 8.6 6.8 17.1 13.7 25.7 20.5 2.2 1.8 4.2 3.8 2.1 6.7-2.1 2.9-4.6 1.8-6.9-.1-8.8-7.1-17.7-14.1-26.5-21.1-1.8-1.5-3.1-3.1-2.2-5.5.6-1.9 2.1-2.6 3.9-2.5z" fill="#dd1d4d"/><path d="M1056 331v16.9c0 2.7-1 4.8-3.8 4.8-3.1.1-4.2-2-4.2-5v-34.9c0-2.7 1-4.7 3.8-4.8 3.2-.1 4.2 2.1 4.2 5v18z" fill="#e31e4f"/></g><g><path d="M221 736.1c.1 11-3.5 20.6-11 28.7-14.6 15.8-29.2 31.5-44 47.1-7.7 8.1-18.3 8.1-26 0-14.6-15.5-29.2-31-43.7-46.7-18.2-19.9-13.9-52 8.5-64.9 15-8.6 33.1-5.9 45.2 6.9 1.6 1.7 2.5 3.7 5.2.8 11.6-12.2 26.7-15.8 40.9-10.1 14.5 5.8 24.6 20.9 24.7 36.8.2.4.2.9.2 1.4z" fill="#e41e4f"/><path d="M283.3 776.7c-3-.8-6.3-1.4-9.4-2.4-1.9-.6-3-2.2-2.6-4.3.4-2.2 2-3.6 4.3-3.2 3.3.5 6.5 1.3 9.7 2.1 2.2.6 3.1 2.4 2.7 4.6-.6 2.4-2.4 3.1-4.7 3.2zM106 858c-1.3 3.4-2.8 7.3-5.3 10.6-1.1 1.4-2.9 1.5-4.5.5-1.6-.9-2.6-2.5-2-4.1 1.4-3.5 3.1-6.9 5-10.2.9-1.5 2.8-1.6 4.5-.8 1.6.6 2.3 1.9 2.3 4zM25.9 780.5c-2.7 0-4.5-.7-4.9-3.1-.4-2.2.4-4 2.7-4.6 3.2-.9 6.4-1.6 9.7-2.1 2.3-.3 3.9 1 4.3 3.2.4 2-.6 3.7-2.5 4.3-3.3.9-6.5 1.6-9.3 2.3zM59.9 669.6c-.5 2.7-2.4 4.5-5.2 3.4-3.7-1.4-6.9-4.1-9.2-7.3-1.7-2.2-.9-4.9 2.2-5.8 3.1-.9 12.2 6.3 12.2 9.7zM260.8 661c-.3.6-.7 1.8-1.5 2.6-2.3 2.1-4.8 4.1-7.4 5.9-1.8 1.3-3.9 1.2-5.3-.6-1.4-1.7-1.4-3.8.3-5.4 2.4-2.2 5-4.4 7.7-6.2 2.8-1.8 6.2.2 6.2 3.7zM217.4 863.5c-.1 2.3-.9 3.7-2.7 4.3-1.6.6-3.2.3-4-1-2.2-3.3-4.1-6.8-5-10.7-.3-1.5.4-3 1.9-3.7 1.6-.8 3.4-.9 4.6.6 2.5 3.1 4 7 5.2 10.5z" fill="#db1d4c"/><path d="M156 616.9v1.5c0 3 .3 6.5-4 6.5s-4-3.5-4-6.5v-5.9c.1-2.7 1.4-4.5 4.2-4.4 2.5.1 3.7 1.9 3.8 4.3v4.5z" fill="#e41e4f"/></g><g><path d="M522.4 735.9c.1 11.6-4 21.5-11.9 29.9-14.6 15.6-29.1 31.2-43.7 46.7-8.4 8.9-19.2 8.9-27.5.1-14.6-15.6-29.2-31.1-43.7-46.7-19.1-20.5-14.9-53.7 8.3-67 15.6-8.9 33.7-5.9 46.4 7.6 1.6 1.7 2.5 3 4.9.5 12-12.6 27.3-16.3 41.8-10.5 15.1 6 25.2 21.2 25.3 38 .1.4.1.9.1 1.4z" fill="#e41e4f"/><path d="M583.8 776.7c-3.2-.2-6.3-1-6.1-4.9.1-2.9 2.1-4.1 4.7-3.7 2.6.4 5.5.9 5.5 4.5.2 3-1.9 4.3-4.1 4.1zM403.1 864.1c-.4 2.5-1.4 5.4-4.9 5.5-2.4.1-4.3-1.5-4-4 .3-3 1.4-6.1 5.2-6.1 2.4 0 4.2 1.7 3.7 4.6zM325.1 780.5c-2.3.1-4.1-1.1-4.2-3.8-.1-3.9 2.9-4.4 5.7-4.7 2.7-.3 4.5 1.1 4.5 3.9-.1 4-3.2 4.4-6 4.6zM448 613.5c-.2-2.8.6-5.2 3.7-5.4 3.4-.2 4.4 2.2 4.4 5.2 0 2.8-.9 5.1-4 5.1-3.1.1-4.2-2.1-4.1-4.9zM354.9 664.6c.4 2.7-1.5 4.6-4.1 4.4-3-.2-5.3-1.9-5.9-5-.4-2.5.9-4.3 3.5-4.3 3.5.1 6.1 2.1 6.5 4.9zM517.5 863.8c.3 2.7-1.6 4.4-4.1 4.1-3.7-.4-4.7-3.5-4.8-6.5-.1-2.1 1.4-3.7 3.8-3.6 3.9.1 4.8 3.2 5.1 6z" fill="#d91c4b"/><path d="M560.8 660.7c-.2 3.1-2.9 5.1-6.2 5.3-2.3.1-3.8-1.4-3.7-3.8.2-3.4 2.6-5 5.5-5.5 2.6-.4 4.6 1.3 4.4 4z" fill="#e41e4f"/></g><g><path d="M822.4 735.9c.1 11.6-4 21.5-11.9 29.9-14.6 15.6-29.1 31.2-43.7 46.7-8.4 8.9-19.2 8.9-27.5.1-14.6-15.6-29.2-31.1-43.7-46.7-19.1-20.5-14.9-53.7 8.3-67 15.6-8.9 33.7-5.9 46.4 7.6 1.6 1.7 2.5 3 4.9.5 12-12.6 27.3-16.3 41.8-10.5 15.1 6 25.2 21.2 25.3 38 .1.4.1.9.1 1.4z" fill="#e41e4f"/></g><g><path d="M1122.4 735.9c.1 11.6-4 21.5-11.9 29.9-14.6 15.6-29.1 31.2-43.7 46.7-8.4 8.9-19.2 8.9-27.5.1-14.6-15.6-29.2-31.1-43.7-46.7-19.1-20.5-14.9-53.7 8.3-67 15.6-8.9 33.7-5.9 46.4 7.6 1.6 1.7 2.5 3 4.9.5 12-12.6 27.3-16.3 41.8-10.5 15.1 6 25.2 21.2 25.3 38 .1.4.1.9.1 1.4z" fill="#e41e4f"/></g></svg>