<svg viewBox="0 0 24 24"><path d="M14.4 2.4v7.8609c0 .6917-.0424 1.3778-.1272 2.0583a30.163 30.163 0 0 1-.3355 2.0808h-3.8746a30.163 30.163 0 0 1-.3355-2.0808A16.6239 16.6239 0 0 1 9.6 10.2609V2.4h4.8zM9.6 19.2c0-.3368.0614-.6503.184-.9404.1228-.29.291-.5426.5046-.7578.2137-.2153.466-.386.7569-.5123.2909-.1263.609-.1895.9545-.1895.3364 0 .65.0632.941.1895.2908.1263.5454.297.7635.5123.2182.2152.3887.4678.5114.7578.1227.2901.1841.6036.1841.9404s-.0614.6526-.184.9474c-.1228.2947-.2933.5497-.5115.7649-.2181.2152-.4727.3836-.7636.5052-.2909.1217-.6045.1825-.9409.1825-.3455 0-.6636-.0608-.9545-.1825-.291-.1216-.5432-.29-.7569-.5052-.2136-.2152-.3818-.4702-.5045-.765-.1227-.2947-.1841-.6105-.1841-.9473z" fill-rule="evenodd"/></svg>