<svg viewBox="0 0 24 24" xmlns:xlink="http://www.w3.org/1999/xlink"><path d="M12 22.1775c-.6634 0-1.2293-.2359-1.6976-.7076C9.8341 20.9982 9.6 20.4415 9.6 19.8h4.8c0 .6415-.2341 1.1982-.7024 1.6699-.4683.4717-1.0342.7076-1.6976.7076zM19.4216 16.8l.6341.6282c.2203.2182.3443.5155.3443.8256a.4846.4846 0 0 1-.4846.4847H4.0846a.4846.4846 0 0 1-.4846-.4847c0-.31.124-.6074.3443-.8256l.6341-.6282a3.3028 3.3028 0 0 0 .9784-2.3464v-3.8844c0-1.4461.4693-2.7307 1.408-3.8538.9386-1.1231 2.1238-1.8539 3.5557-2.1923v-.6923c0-.4.1352-.7385.4056-1.0154.2705-.277.6284-.4154 1.0739-.4154.4455 0 .8034.1385 1.0739.4154.2704.277.4056.6154.4056 1.0154v.6923c1.4319.3384 2.617 1.0692 3.5557 2.1923.9387 1.123 1.408 2.4077 1.408 3.8538v3.8844c0 .8813.3522 1.7261.9784 2.3464z"/></svg>
