<svg xmlns:xlink="http://www.w3.org/1999/xlink" viewBox="0 0 134 64"><path d="M124.5668 0H114.57c-.498.0045-.9508.201-1.2904.517l-20.03 18.758c-6.8614 6.4302-16.0954 10.0405-26.2485 10.0405-10.5831 0-20.159-3.9422-27.0974-10.8556 0 0-14.7327-13.7998-14.8595-13.924C22.2167 1.9124 18.3253.0993 13.8452 0H1.8858C.8444 0 0 .8422 0 1.8808v52.7064C0 59.7892 4.222 64 9.4354 64h6.119c1.0482 0 1.897-.849 1.897-1.892l.0046-18.7557c0-4.9017 4.0114-8.9455 8.8469-8.9455 9.0008 0 15.4548 7.6901 21.2863 12.8267 7.1422 6.2925 12.6432 12.3547 19.412 12.3547 6.7618 0 12.2651-6.0622 19.4073-12.3547 5.8338-5.1366 12.2878-12.8267 21.2841-12.8267 4.8105 0 8.8016 4.0031 8.8491 8.8665v11.3139c0 5.202 4.2242 9.4038 9.44 9.4038h4.0725c1.064 0 2.051.009 2.051.009 1.0459 0 1.8948-.849 1.8948-1.8898V9.4128C134 4.2131 129.7735 0 124.5668 0z"/></svg>
