<svg viewBox="0 0 24 24"><path d="M6.3383 4.8H8.498c.535 0 .729.0557.9245.1603s.349.258.4536.4536c.1046.1955.1603.3895.1603.9244v11.3234c0 .5349-.0557.7289-.1603.9244a1.0904 1.0904 0 0 1-.4536.4536c-.1956.1046-.3896.1603-.9245.1603H6.3383c-.5349 0-.7289-.0557-.9244-.1603a1.0904 1.0904 0 0 1-.4536-.4536c-.1046-.1955-.1603-.3895-.1603-.9244V6.3383c0-.5349.0557-.7289.1603-.9244a1.09 1.09 0 0 1 .4536-.4536c.1955-.1046.3895-.1603.9244-.1603zm9.1637 0h2.1597c.5349 0 .7289.0557.9244.1603a1.09 1.09 0 0 1 .4536.4536c.1046.1955.1603.3895.1603.9244v11.3234c0 .5349-.0557.7289-.1603.9244a1.0904 1.0904 0 0 1-.4536.4536c-.1955.1046-.3895.1603-.9244.1603H15.502c-.535 0-.729-.0557-.9245-.1603a1.0904 1.0904 0 0 1-.4536-.4536c-.1046-.1955-.1603-.3895-.1603-.9244V6.3383c0-.5349.0557-.7289.1603-.9244a1.09 1.09 0 0 1 .4536-.4536c.1956-.1046.3896-.1603.9245-.1603z" fill-rule="evenodd"/></svg>