<svg xmlns:xlink="http://www.w3.org/1999/xlink" viewBox="0 0 20 20"><defs><path id="id-3a" d="M18 8.8646v2.3125c0 .0833-.0278.1632-.0833.2396-.0556.0764-.125.1215-.2084.1354l-1.927.2917c-.132.375-.2674.691-.4063.9479.243.3472.6146.8264 1.1146 1.4375.0694.0833.1042.1701.1042.2604 0 .0903-.0313.1701-.0938.2396-.1875.257-.5312.632-1.0313 1.125-.5.493-.8263.7395-.9791.7395-.0834 0-.1736-.0312-.2708-.0937l-1.4375-1.125a5.9433 5.9433 0 0 1-.948.3958c-.111.9445-.2118 1.5903-.302 1.9375-.0487.1945-.1737.2917-.375.2917H8.8438c-.0973 0-.1823-.0295-.2553-.0885-.0729-.059-.1128-.1337-.1197-.224l-.2917-1.9167c-.3403-.111-.6528-.2395-.9375-.3854L5.7708 16.5c-.0694.0625-.1562.0938-.2604.0938-.0972 0-.184-.0382-.2604-.1146-.875-.7917-1.448-1.375-1.7188-1.75-.0486-.0695-.0729-.1493-.0729-.2396 0-.0834.0278-.1632.0834-.2396.1041-.1458.2812-.3767.5312-.6927s.4375-.5608.5625-.7344c-.1875-.3472-.3298-.691-.427-1.0312l-1.9063-.2813a.3283.3283 0 0 1-.2188-.1302A.394.394 0 0 1 2 11.1354V8.823c0-.0833.0278-.1632.0833-.2396.0556-.0764.1216-.1215.198-.1354l1.9375-.2917c.0972-.3194.2326-.6388.4062-.9583-.2778-.3958-.6493-.875-1.1146-1.4375-.0694-.0833-.1042-.1666-.1042-.25 0-.0694.0313-.1493.0938-.2396.1806-.25.5226-.6232 1.026-1.1198.5035-.4965.8316-.7447.9844-.7447.0903 0 .1806.0347.2709.1041L7.2188 4.625a5.9433 5.9433 0 0 1 .9479-.3958c.111-.9445.2118-1.5903.302-1.9375.0487-.1945.1737-.2917.375-.2917h2.3125c.0973 0 .1823.0295.2553.0885.0729.059.1128.1337.1197.224l.2917 1.9167c.3403.111.6528.2395.9375.3854L14.2396 3.5c.0625-.0625.1458-.0938.25-.0938.0903 0 .177.0348.2604.1042.8958.8264 1.4687 1.4167 1.7188 1.7708.0486.0556.0729.132.0729.2292 0 .0834-.0278.1632-.0834.2396-.1041.1458-.2812.3767-.5312.6927s-.4375.5608-.5625.7344c.1805.3472.3229.6875.427 1.0208l1.9063.2917a.3283.3283 0 0 1 .2188.1302.394.394 0 0 1 .0833.2448zM12 10c0-.552-.1953-1.0234-.586-1.414C11.0235 8.1952 10.552 8 10 8c-.552 0-1.0234.1953-1.414.586C8.1952 8.9765 8 9.448 8 10c0 .552.1953 1.0234.586 1.414.3906.3907.862.586 1.414.586.552 0 1.0234-.1953 1.414-.586.3907-.3906.586-.862.586-1.414z"/></defs><use xlink:href="#id-3a" fill-rule="evenodd"/></svg>