<svg viewBox="0 0 24 24"><path d="M16.423 10.458c-1.553 0-2.815-1.246-2.815-2.785 0-1.54 1.262-2.785 2.815-2.785s2.814 1.246 2.814 2.785c0 1.54-1.261 2.785-2.814 2.785zm0-1c1.003 0 1.814-.8 1.814-1.785 0-.984-.81-1.785-1.814-1.785s-1.815.8-1.815 1.785c0 .984.811 1.785 1.815 1.785z"/><path d="M21.871 8.45l.907.517a.5.5 0 0 1 .185.686l-1.543 2.638a.5.5 0 0 1-.68.182l-.916-.522c-.416.325-.876.59-1.366.784v1.03a.5.5 0 0 1-.5.5h-3.086a.5.5 0 0 1-.5-.5v-1.031a5.508 5.508 0 0 1-1.366-.784l-.916.523a.5.5 0 0 1-.68-.182L9.868 9.653a.5.5 0 0 1 .184-.687l.905-.516a5.303 5.303 0 0 1 0-1.552l-.907-.517a.5.5 0 0 1-.184-.687l1.543-2.638a.5.5 0 0 1 .679-.182l.917.522c.416-.325.876-.59 1.366-.784V1.581a.5.5 0 0 1 .5-.5h3.086a.5.5 0 0 1 .5.5v1.031c.49.194.95.459 1.367.784l.916-.522a.5.5 0 0 1 .679.182l1.543 2.638a.5.5 0 0 1-.184.687l-.906.516a5.29 5.29 0 0 1 0 1.553zm-.803.693a.5.5 0 0 1-.24-.54 4.329 4.329 0 0 0 0-1.86.5.5 0 0 1 .241-.54l.774-.44-1.038-1.775-.787.449a.5.5 0 0 1-.58-.061 4.525 4.525 0 0 0-1.633-.935.5.5 0 0 1-.348-.477v-.883h-2.086v.883a.5.5 0 0 1-.348.477 4.514 4.514 0 0 0-1.632.935.5.5 0 0 1-.58.06l-.788-.448-1.038 1.775.774.44a.5.5 0 0 1 .241.54 4.342 4.342 0 0 0 .001 1.86.5.5 0 0 1-.24.54l-.775.441 1.038 1.775.788-.45a.5.5 0 0 1 .58.062 4.51 4.51 0 0 0 1.632.934.5.5 0 0 1 .348.477v.883h2.086v-.883a.5.5 0 0 1 .348-.476 4.51 4.51 0 0 0 1.631-.935.5.5 0 0 1 .58-.06l.79.449 1.037-1.775-.776-.442zM3.42 19.796l4.052-1.104 4.739 2.89 8.778-2.542a.743.743 0 0 0 .492-.965.86.86 0 0 0-1.032-.54l-3.542.952-.225.324a2.4 2.4 0 0 1-3.037.782l-2.736-1.356a.656.656 0 0 1-.306-.86.617.617 0 0 1 .832-.294l2.836 1.424c.351.17.762.026.926-.315a.722.722 0 0 0-.313-.953l-4.593-2.423a3.6 3.6 0 0 0-2.688-.272L2.4 16.063l1.019 3.733zm13.227-2.275l3.542-.951a1.86 1.86 0 0 1 2.233 1.166 1.743 1.743 0 0 1-1.049 2.23c-.052.018-.052.018-.106.034l-8.778 2.542a1 1 0 0 1-.8-.107l-4.37-2.665-3.636.991a1 1 0 0 1-1.228-.701l-1.019-3.734a1 1 0 0 1 .685-1.223l5.201-1.519a4.6 4.6 0 0 1 3.436.347l4.593 2.423c.534.282.86.806.912 1.368a1 1 0 0 1 .384-.2z"/></svg>