<svg viewBox="0 0 24 24"><path d="M21.6 10.6375v2.775c0 .1-.0333.1958-.1.2875-.0667.0917-.15.1458-.25.1625l-2.3125.35c-.1583.45-.3208.8292-.4875 1.1375.2917.4167.7375.9917 1.3375 1.725.0833.1.125.2042.125.3125 0 .1083-.0375.2042-.1125.2875-.225.3083-.6375.7583-1.2375 1.35-.6.5917-.9917.8875-1.175.8875-.1 0-.2083-.0375-.325-.1125l-1.725-1.35a7.132 7.132 0 0 1-1.1375.475c-.1333 1.1333-.2542 1.9083-.3625 2.325-.0583.2333-.2083.35-.45.35h-2.775c-.1167 0-.2187-.0354-.3063-.1063-.0875-.0708-.1354-.1604-.1437-.2687l-.35-2.3c-.4083-.1333-.7833-.2875-1.125-.4625L6.925 19.8c-.0833.075-.1875.1125-.3125.1125-.1167 0-.2208-.0458-.3125-.1375-1.05-.95-1.7375-1.65-2.0625-2.1-.0583-.0833-.0875-.1792-.0875-.2875 0-.1.0333-.1958.1-.2875.125-.175.3375-.452.6375-.8313.3-.3791.525-.6729.675-.8812-.225-.4167-.3958-.8292-.5125-1.2375l-2.2875-.3375a.394.394 0 0 1-.2625-.1563.4728.4728 0 0 1-.1-.2937v-2.775c0-.1.0333-.1958.1-.2875.0667-.0917.1458-.1458.2375-.1625l2.325-.35c.1167-.3833.2792-.7667.4875-1.15-.3333-.475-.7792-1.05-1.3375-1.725-.0833-.1-.125-.2-.125-.3 0-.0833.0375-.1792.1125-.2875.2167-.3.627-.748 1.2313-1.3438.6041-.5958.9979-.8937 1.1812-.8937.1083 0 .2167.0417.325.125L8.6625 5.55A7.132 7.132 0 0 1 9.8 5.075c.1333-1.1333.2542-1.9083.3625-2.325.0583-.2333.2083-.35.45-.35h2.775c.1167 0 .2187.0354.3063.1063.0875.0708.1354.1604.1437.2687l.35 2.3c.4083.1333.7833.2875 1.125.4625L17.0875 4.2c.075-.075.175-.1125.3-.1125.1083 0 .2125.0417.3125.125 1.075.9917 1.7625 1.7 2.0625 2.125.0583.0667.0875.1583.0875.275 0 .1-.0333.1958-.1.2875-.125.175-.3375.452-.6375.8312-.3.3792-.525.673-.675.8813.2167.4167.3875.825.5125 1.225l2.2875.35a.394.394 0 0 1 .2625.1563c.0667.0875.1.1854.1.2937zM14.4 12c0-.6625-.2344-1.2281-.7031-1.6969C13.228 9.8344 12.6625 9.6 12 9.6c-.6625 0-1.2281.2344-1.6969.7031C9.8344 10.772 9.6 11.3375 9.6 12c0 .6625.2344 1.2281.7031 1.6969.4688.4687 1.0344.7031 1.6969.7031.6625 0 1.2281-.2344 1.6969-.7031.4687-.4688.7031-1.0344.7031-1.6969z"/></svg>