<svg viewBox="0 0 24 24"><path d="M11.2403 20.7218l-5.7725 3.1798c-.399.2198-.8925.059-1.1022-.359A.8911.8911 0 0 1 4.2836 23l1.1024-6.7348c.0908-.5549-.0847-1.121-.4695-1.514l-4.67-4.7697c-.3228-.3297-.3294-.8711-.0148-1.2093a.8038.8038 0 0 1 .4671-.2494l6.4539-.9826c.5317-.081.9913-.4309 1.229-.9357L11.268.477c.1995-.4235.689-.5974 1.0932-.3884.161.0832.2912.2198.3707.3884l2.8862 6.1276c.2378.5048.6974.8547 1.2291.9357l6.4539.9826c.446.068.7551.5019.6903.9693a.8702.8702 0 0 1-.238.4894l-4.67 4.7697c-.3848.393-.5603.9591-.4695 1.514L19.7163 23c.0762.4656-.2222.9077-.6664.9875a.7837.7837 0 0 1-.5178-.086l-5.7725-3.1797a1.5667 1.5667 0 0 0-1.5193 0z"/></svg>