<svg viewBox="0 0 24 24"><path d="M12 24C5.3726 24 0 18.6274 0 12S5.3726 0 12 0s12 5.3726 12 12-5.3726 12-12 12zm1.296-14.5108h-2.604V18.2h2.604V9.4892zm.3024-2.3856c0-.2128-.042-.4116-.126-.5964a1.5723 1.5723 0 0 0-.3444-.4872 1.5855 1.5855 0 0 0-.5082-.3276c-.1932-.0784-.399-.1176-.6174-.1176-.2128 0-.4116.0392-.5964.1176a1.5735 1.5735 0 0 0-.4914.3276 1.5476 1.5476 0 0 0-.336.4872c-.0812.1848-.1218.3836-.1218.5964 0 .2072.0406.4018.1218.5838.0812.182.1932.3416.336.4788s.3066.2464.4914.3276c.1848.0812.3836.1218.5964.1218.2184 0 .4242-.0406.6174-.1218.1932-.0812.3626-.1904.5082-.3276a1.5366 1.5366 0 0 0 .3444-.4788c.084-.182.126-.3766.126-.5838z" fill-rule="evenodd"/></svg>