<svg viewBox="0 0 20 20"><path d="M12 2v6.55c0 .577-.035 1.149-.106 1.716-.07.567-.164 1.145-.28 1.734H8.386a25.136 25.136 0 0 1-.28-1.734A13.853 13.853 0 0 1 8 8.551V2h4zM8 16a1.99 1.99 0 0 1 .574-1.415A1.976 1.976 0 0 1 10 14c.28 0 .542.053.784.158.243.105.455.247.636.427.182.18.324.39.427.631.102.242.153.503.153.784 0 .28-.051.544-.153.79a1.922 1.922 0 0 1-.427.637A1.99 1.99 0 0 1 10 18c-.288 0-.553-.05-.795-.152a1.924 1.924 0 0 1-1.052-1.059A2.033 2.033 0 0 1 8 16z" fill-rule="evenodd"/></svg>