<svg xmlns="http://www.w3.org/2000/svg" xmlns:xlink="http://www.w3.org/1999/xlink" viewBox="0 0 150 150"><defs><path id="a" d="M1397.67 657V507h150v150z"/><path id="b" d="M1481.33 570.25c0-8.42 6.79-15.25 15.17-15.25 8.38 0 15.17 6.83 15.17 15.25s-6.8 15.24-15.17 15.24a15.21 15.21 0 0 1-15.18-15.24z"/><path id="c" d="M1480.94 602.4c-.4-8.3-3.97-36.99-11.14-31.45-7.17 5.54-7.62 24.7-13.04 29.18-5.4 4.48-7.03-19.55-10.95-19.11-3.93.43-10.64 27.24-10.64 27.24l.17-.17s46.47.06 45.84.67c0 0-.12-3.85-.24-6.36z"/><path id="d" d="M1486.72 565.8h-23.34a1.31 1.31 0 0 0 0 2.63h4.97a1.31 1.31 0 0 1 0 2.62h-9.9a1.32 1.32 0 1 0 0 2.63h38.25a1.3 1.3 0 0 0 .01-2.62h-18.02a1.32 1.32 0 1 1 0-2.63h8.03a1.32 1.32 0 1 0 0-2.63z"/><path id="e" d="M1512.59 579.37h-26.17a1.31 1.31 0 0 0 0 2.63h7.8c.48-.03.94.22 1.19.63a1.32 1.32 0 0 1-1.2 2h-27.37a1.32 1.32 0 1 0 0 2.63h7.8c.48-.04.93.21 1.18.63a1.32 1.32 0 0 1-1.18 1.99h-9.92a1.31 1.31 0 0 0 0 2.62h26.16a1.3 1.3 0 0 0 .02-2.62h-3a1.32 1.32 0 1 1 0-2.63h22.57a1.3 1.3 0 0 0 .02-2.62h-3a1.32 1.32 0 1 1 0-2.63h5.1a1.31 1.31 0 0 0 0-2.63z"/></defs><g clip-path="url(#clip-62ECF245-134F-A126-5F63-46B162D13B74)" transform="translate(-1397 -507)"><use fill="#f8f8fc" xlink:href="#a"/></g><g clip-path="url(#clip-62ECF245-134F-A126-5F63-46B162D13B74)" transform="translate(-1397 -507)"><use fill="#d5d5d9" xlink:href="#b" opacity=".1"/><use fill="#9e9e9e" xlink:href="#c" opacity=".2"/><use fill="#fff" xlink:href="#d" opacity=".78"/><use fill="#fff" xlink:href="#e" opacity=".73"/></g></svg>
