<svg xmlns="http://www.w3.org/2000/svg" xmlns:xlink="http://www.w3.org/1999/xlink" viewBox="0 0 600 300"><defs><rect id="a" width="600" height="300" rx="6"/></defs><g fill="none" fill-rule="evenodd"><mask id="b" fill="#fff"><use xlink:href="#a"/></mask><use fill="#FBFBFD" xlink:href="#a"/><g fill="#F8F8FC" mask="url(#b)"><path d="M0 0h600v300H0z"/></g><g stroke="#F3F3F7" stroke-linecap="round" stroke-linejoin="round" stroke-width="3" mask="url(#b)" opacity=".7"><path d="M123 225l-72 30m72-180L51 45m426 180l72 30M477 75l72-30"/></g><g transform="translate(66 27)"><ellipse cx="360.246" cy="68.319" fill="#D5D5D9" opacity=".1" rx="88.362" ry="68.319"/><path fill="#9E9E9E" fill-rule="nonzero" d="M268.751 218.222c-2.32-38.679-23.298-172.426-65.4-146.6-42.104 25.825-44.759 115.163-76.54 136.013-31.782 20.85-41.287-91.115-64.343-89.086C39.41 120.577 0 245.514 0 245.514l.984-.785s272.89.267 269.178 3.11c.018 0-.706-17.933-1.411-29.617z" opacity=".2"/><g fill="#FFF" fill-rule="nonzero"><path d="M304.723 47.298H167.665c-4.093.162-7.308 2.883-7.308 6.184s3.215 6.022 7.308 6.184h29.22c4.093.162 7.308 2.883 7.308 6.184 0 3.302-3.215 6.022-7.308 6.185h-58.198c-2.833-.113-5.512 1.04-6.97 3-1.458 1.96-1.458 4.407 0 6.367s4.137 3.113 6.97 3H363.31c4.235.026 7.692-2.72 7.723-6.131.03-3.411-3.377-6.197-7.611-6.222H257.608c-2.833.113-5.512-1.04-6.97-3-1.458-1.96-1.458-4.407 0-6.367s4.137-3.113 6.97-3h47.115c2.833.111 5.512-1.042 6.97-3.002 1.458-1.96 1.458-4.407 0-6.366-1.458-1.96-4.137-3.113-6.97-3.001v-.015z" opacity=".78"/><path d="M456.632 111.173H303.015c-4.092.163-7.308 2.883-7.308 6.185 0 3.3 3.216 6.022 7.308 6.184h45.76c2.833-.112 5.512 1.041 6.97 3 1.458 1.96 1.458 4.408 0 6.367-1.458 1.96-4.137 3.113-6.97 3.001H188.03c-2.833-.112-5.512 1.041-6.97 3.001-1.458 1.96-1.458 4.407 0 6.367s4.137 3.113 6.97 3h45.76c2.833-.112 5.512 1.042 6.97 3.001 1.458 1.96 1.458 4.407 0 6.367s-4.137 3.113-6.97 3h-58.235c-4.093.163-7.308 2.884-7.308 6.185 0 3.301 3.215 6.022 7.308 6.184h153.617c4.234.025 7.692-2.72 7.723-6.132.03-3.411-3.377-6.196-7.612-6.221h-17.58c-2.832.112-5.511-1.042-6.97-3.001-1.457-1.96-1.457-4.407 0-6.367 1.459-1.96 4.138-3.113 6.97-3h132.492c4.234.024 7.691-2.721 7.722-6.132.031-3.412-3.377-6.197-7.611-6.222H426.67c-2.832.112-5.511-1.041-6.97-3-1.457-1.96-1.457-4.408 0-6.367 1.459-1.96 4.138-3.114 6.97-3.001h29.944c4.093-.162 7.308-2.883 7.308-6.184 0-3.302-3.215-6.022-7.308-6.185l.018-.03z" opacity=".73"/></g></g></g></svg>