<svg xmlns:xlink="http://www.w3.org/1999/xlink" viewBox="0 0 300 300"><defs><rect id="id-12a" width="300" height="300" rx="6"/></defs><g fill="none" fill-rule="evenodd"><mask id="id-13b" fill="#fff"><use xlink:href="#id-12a"/></mask><use fill="#FBFBFD" xlink:href="#id-12a"/><g fill="#F8F8FC" mask="url(#id-13b)"><path d="M0 0h300v300H0z"/></g><path stroke="#F3F3F7" stroke-linecap="round" stroke-linejoin="round" stroke-width="3" d="M15 251.47L49.076 285" mask="url(#id-13b)" opacity=".7" transform="matrix(-1 0 0 1 64.076 0)"/><path stroke="#F3F3F7" stroke-linecap="round" stroke-linejoin="round" stroke-width="3" d="M15 15l34.076 33.53" mask="url(#id-13b)" opacity=".7" transform="rotate(180 32.038 31.765)"/><path stroke="#F3F3F7" stroke-linecap="round" stroke-linejoin="round" stroke-width="3" d="M251.47 251.47L285 285" mask="url(#id-13b)" opacity=".7"/><path stroke="#F3F3F7" stroke-linecap="round" stroke-linejoin="round" stroke-width="3" d="M251.47 15L285 48.53" mask="url(#id-13b)" opacity=".7" transform="matrix(1 0 0 -1 0 63.53)"/><g transform="translate(75 96)"><ellipse cx="122.653" cy="30.494" fill="#D5D5D9" opacity=".1" rx="30.347" ry="30.494"/><path fill="#9E9E9E" fill-rule="nonzero" d="M90.224 94.269c-.779-16.456-7.821-73.357-21.956-62.37-14.135 10.987-15.026 48.995-25.695 57.866C31.903 98.635 28.712 51 20.972 51.864 13.232 52.727 0 105.88 0 105.88l.33-.334s91.615.113 90.368 1.323c.006 0-.237-7.63-.474-12.6z" opacity=".2"/><g fill="#FFF" fill-rule="nonzero"><path d="M103.41 21.6H56.489a2.645 2.645 0 0 0-2.502 2.653c0 1.417 1.1 2.584 2.502 2.654h10.003a2.645 2.645 0 0 1 2.502 2.653c0 1.416-1.1 2.584-2.502 2.653H46.568a2.625 2.625 0 0 0-2.386 1.288 2.678 2.678 0 0 0 0 2.731 2.627 2.627 0 0 0 2.386 1.288h76.899c1.45.01 2.633-1.167 2.644-2.631.01-1.464-1.156-2.659-2.606-2.67H87.28a2.625 2.625 0 0 1-2.386-1.287c-.5-.84-.5-1.89 0-2.731a2.625 2.625 0 0 1 2.386-1.288h16.13a2.625 2.625 0 0 0 2.386-1.288c.499-.84.499-1.89 0-2.731a2.625 2.625 0 0 0-2.386-1.288V21.6z" opacity=".78"/><path d="M155.415 49.006h-52.59a2.645 2.645 0 0 0-2.502 2.653c0 1.416 1.1 2.584 2.502 2.653h15.666a2.625 2.625 0 0 1 2.386 1.288c.499.84.499 1.89 0 2.731a2.625 2.625 0 0 1-2.386 1.288H63.46a2.625 2.625 0 0 0-2.386 1.287c-.5.841-.5 1.891 0 2.732a2.626 2.626 0 0 0 2.386 1.287h15.665a2.625 2.625 0 0 1 2.386 1.288c.5.84.5 1.89 0 2.731a2.625 2.625 0 0 1-2.386 1.288H59.19a2.645 2.645 0 0 0-2.502 2.653c0 1.417 1.1 2.584 2.502 2.653h52.59c1.45.011 2.633-1.167 2.643-2.63.01-1.464-1.156-2.659-2.605-2.67h-6.019a2.625 2.625 0 0 1-2.386-1.287 2.68 2.68 0 0 1 0-2.732 2.625 2.625 0 0 1 2.386-1.287h45.358c1.45.01 2.633-1.167 2.644-2.631.01-1.464-1.156-2.659-2.606-2.67h-6.038a2.625 2.625 0 0 1-2.386-1.287 2.678 2.678 0 0 1 0-2.731 2.625 2.625 0 0 1 2.386-1.288h10.251a2.645 2.645 0 0 0 2.502-2.653c0-1.417-1.1-2.584-2.502-2.654l.007-.012z" opacity=".73"/></g></g></g></svg>