<svg viewBox="0 0 24 24"><g fill-rule="evenodd"><path d="M8.927 7.0584c-3.4176-1.3229-6.1277-1.582-6.7805-.4522-.6528 1.131.9274 3.3485 3.7814 5.6458.7978-.6413 1.6954-1.2883 2.6708-1.92.0595-1.1616.1708-2.2618.3283-3.2736m8.9958 5.1937c-.7968.6422-1.6944 1.2893-2.6708 1.921-.0595 1.1616-.1699 2.2617-.3283 3.2726 3.4186 1.3238 6.1287 1.584 6.7815.4531s-.9274-3.3485-3.7824-5.6467"/><path d="M17.9228 12.2521c2.855-2.2982 4.4352-4.5149 3.7824-5.6458-.6528-1.1308-3.363-.8707-6.7815.4522.1584 1.0118.2688 2.112.3283 3.2736.9764.6317 1.874 1.2787 2.6708 1.92"/><path d="M15.2523 10.3321a37.0024 37.0024 0 0 0-1.6368-1.006c-.5683-.3284-1.1318-.6298-1.6896-.915-.5577.2852-1.1213.5866-1.6896.915-.5683.3282-1.1117.6652-1.6377 1.006-.0317.625-.0519 1.2634-.0519 1.92 0 .6566.0202 1.296.0519 1.921.526.3398 1.0694.6777 1.6377 1.006.5683.3284 1.1319.6298 1.6896.915.5578-.2852 1.1213-.5866 1.6896-.915.5683-.3283 1.1117-.6662 1.6368-1.006.0327-.625.0528-1.2644.0528-1.921 0-.6566-.0201-1.295-.0528-1.92"/><path d="M5.9284 12.2521c-2.854 2.2982-4.4352 4.5158-3.7824 5.6467.6528 1.1309 3.3639.8707 6.7815-.4531-.1575-1.0109-.2688-2.111-.3284-3.2726-.9763-.6317-1.873-1.2788-2.6707-1.921"/><path d="M8.927 17.4459c.5625 3.6211 1.6934 6.0998 2.999 6.0998 1.3047 0 2.4355-2.4787 2.9981-6.0998-.9542-.3696-1.9622-.8227-2.998-1.3517-1.036.529-2.0449.982-2.9991 1.3517m5.9972-10.3875c-.5626-3.6202-1.6934-6.0989-2.999-6.0989-1.3047 0-2.4356 2.4787-2.9981 6.0989.9542.3696 1.9632.8237 2.998 1.3526 1.0369-.529 2.0449-.983 2.999-1.3526"/></g></svg>