<svg viewBox="0 0 24 24"><path d="M5 3.5001c0 1.381-1.119 2.5-2.5 2.5S0 4.8811 0 3.5001s1.119-2.5 2.5-2.5 2.5 1.119 2.5 2.5zm0 8.4053c0 1.38-1.119 2.5-2.5 2.5s-2.5-1.12-2.5-2.5c0-1.381 1.119-2.5 2.5-2.5s2.5 1.119 2.5 2.5zm0 8.4043c0 1.381-1.119 2.5-2.5 2.5s-2.5-1.119-2.5-2.5 1.119-2.5 2.5-2.5 2.5 1.119 2.5 2.5zM22.4321 4.5001H7.8791c-.552 0-1-.448-1-1 0-.553.448-1 1-1h14.553c.553 0 1 .447 1 1 0 .552-.447 1-1 1zm0 8.4053H7.8791c-.552 0-1-.448-1-1 0-.553.448-1 1-1h14.553c.553 0 1 .447 1 1 0 .552-.447 1-1 1zm0 8.4043H7.8791c-.552 0-1-.447-1-1 0-.552.448-1 1-1h14.553c.553 0 1 .448 1 1 0 .553-.447 1-1 1z" fill-rule="evenodd"/></svg>