<svg viewBox="0 0 24 24"><path d="M15.852 13.45l-3.321 3.322a.7509.7509 0 0 1-.531.22.7503.7503 0 0 1-.53-.22L8.148 13.45a.7502.7502 0 1 1 1.061-1.061l2.041 2.042V9.83c0-.414.336-.75.75-.75s.75.336.75.75v4.601l2.041-2.042a.7512.7512 0 0 1 .531-.219c.192 0 .384.073.53.219.293.293.293.768 0 1.061m4.745-3.292C19.778 6.629 16.618 4 12.842 4 9.871 4 7.283 5.627 5.914 8.039 2.645 8.054 0 10.709 0 13.98c0 1.831.829 3.466 2.13 4.557h20.31c.959-.914 1.56-2.201 1.56-3.631 0-2.206-1.425-4.075-3.403-4.748" fill-rule="evenodd"/></svg>