<svg viewBox="0 0 24 24"><path d="M8.6412 16H1.177C.5273 16 0 15.3698 0 14.5934V1.4066C0 .6287.5273 0 1.177 0h7.4642c.6497 0 1.177.6287 1.177 1.4066v13.1868c0 .7764-.5273 1.4066-1.177 1.4066zM22.7584 5.7143h-7.335c-.6866 0-1.2416-.64-1.2416-1.4286V1.4286c0-.79.555-1.4286 1.2416-1.4286h7.335C23.4438 0 24 .6386 24 1.4286v2.8571c0 .7886-.5562 1.4286-1.2416 1.4286zM15.3588 8h7.4642C23.4727 8 24 8.6287 24 9.4066v13.1868C24 23.3698 23.4727 24 22.823 24h-7.4642c-.6497 0-1.177-.6302-1.177-1.4066V9.4066c0-.7779.5273-1.4066 1.177-1.4066zM1.2416 18.2857h7.335c.6854 0 1.2416.6386 1.2416 1.4286v2.8571C9.8182 23.36 9.262 24 8.5766 24h-7.335C.555 24 0 23.36 0 22.5714v-2.8571c0-.79.555-1.4286 1.2416-1.4286z" fill-rule="evenodd"/></svg>