<svg viewBox="0 0 24 24"><path d="M15.0605 16.2073c-.4643.5666-1.0675.9475-1.777 1.1405-.3078.0845-.4466.2473-.431.5677.0115.313-.0031.6302-.0031.9443 0 .2807-.142.431-.4195.4372-.338.0094-.6793.0094-1.0174.0032-.2984-.0063-.4372-.1753-.4393-.4644-.0042-.2295-.0042-.4622-.0062-.6918-.0063-.506-.022-.527-.5103-.6063-.625-.099-1.2376-.241-1.8104-.5186-.4498-.2201-.4978-.3318-.3684-.8024.097-.3506.193-.7002.3016-1.0477.1273-.4007.2358-.4518.6073-.2587.6334.3287 1.3064.5123 2.0087.6.456.0574.8995.0125 1.319-.1722.7846-.3433.9046-1.2522.2441-1.798-.2233-.1867-.48-.3224-.7482-.4403-.6887-.3047-1.4066-.5342-2.0546-.9235C8.903 11.5461 8.233 10.68 8.3113 9.3976c.0877-1.4484.9078-2.353 2.2362-2.8362.5488-.1993.552-.19.5551-.7638.0021-.1962-.0031-.3893.0021-.5823.0125-.431.0856-.5071.5134-.5186.1325-.0031.266 0 .3986 0 .9172 0 .9172 0 .9193.914.0042.6491.0042.6523.649.7514.4957.0782.9663.2233 1.4244.4257.2504.1117.3475.287.2682.552-.1169.3955-.2223.7941-.3496 1.1854-.121.3715-.238.4258-.5948.2536-.7148-.3433-1.466-.4884-2.256-.4466-.2055.0125-.408.0396-.601.1241-.6814.2985-.793 1.053-.2108 1.5173.2953.2358.6303.4048.9798.5499.6042.2494 1.2136.4915 1.7865.8087 1.8292 1.01 2.3206 3.3068 1.0288 4.8751M12 0C5.3729 0 0 5.3729 0 12s5.3729 12 12 12 12-5.3729 12-12S18.6271 0 12 0" fill-rule="evenodd"/></svg>