<svg viewBox="0 0 24 24"><path d="M14.1824 4.841c0 1.0167-3.1757 1.8404-7.091 1.8404-3.9163 0-7.0909-.8237-7.0909-1.8404 0-1.0167 3.1746-1.8403 7.091-1.8403 3.9152 0 7.0909.8236 7.0909 1.8403zm-7.0915 5.536c3.9164 0 7.091-.8236 7.091-1.8403v2.5898c0 1.0178-3.1746 1.8415-7.091 1.8415C3.1745 12.968 0 12.1443 0 11.1265V8.5367c0 1.0167 3.1745 1.8404 7.091 1.8404zm0-3.1427c3.9164 0 7.091-.8248 7.091-1.8404v2.5898c0 1.0167-3.1746 1.8415-7.091 1.8415C3.1745 9.8252 0 9.0004 0 7.9837V5.394c0 1.0156 3.1745 1.8404 7.091 1.8404zm9.1364 13.7882c3.9163 0 7.0909-.8237 7.0909-1.8404v2.5898c0 1.0178-3.1746 1.8415-7.091 1.8415-3.9163 0-7.0908-.8237-7.0908-1.8415v-2.5898c0 1.0167 3.1745 1.8404 7.0909 1.8404zm0-3.1428c3.9163 0 7.0909-.8248 7.0909-1.8404v2.5898c0 1.0168-3.1746 1.8415-7.091 1.8415-3.9163 0-7.0908-.8247-7.0908-1.8415v-2.5898c0 1.0156 3.1745 1.8404 7.0909 1.8404zM8.6325 15.105c0-.0033 0 .3829-.0011.961a26.045 26.045 0 0 1-1.5404.0448c-3.9163 0-7.0909-.8237-7.0909-1.8404v-2.5909c0 1.0167 3.1746 1.8404 7.091 1.8404 3.9163 0 7.0908-.8237 7.0908-1.8404v1.5742c-3.1505.2258-5.4774.9654-5.5494 1.8513zm-.0022 1.5138c-.0011.7647-.0022 1.7095-.0033 2.591a26.8586 26.8586 0 0 1-1.536.0446c-3.9163 0-7.0909-.8247-7.0909-1.8403v-2.591c0 1.0157 3.1746 1.8404 7.091 1.8404.529 0 1.0428-.0163 1.5392-.0447zm14.6884-1.1325c0 1.0168-3.1756 1.8404-7.0909 1.8404-3.9163 0-7.0909-.8236-7.0909-1.8404 0-1.0167 3.1746-1.8403 7.091-1.8403 3.9152 0 7.0908.8236 7.0908 1.8403zM8.6245 21.862c0 .1637.0862.323.2324.4757-.5651.0381-1.1553.06-1.7662.06-3.9164 0-7.091-.8248-7.091-1.8404v-2.591c0 1.0157 3.1746 1.8405 7.091 1.8405.529 0 1.0407-.0164 1.536-.0448-.0011 1.1695-.0022 2.1-.0022 2.1zM22.0447 5.615c1.272.7026 1.6135 2.2997.7157 3.3906-.323.3949-.743.6589-1.236.793-.2139.059-.311.1724-.3.395.0087.2182-.0022.4385-.0022.6567 0 .1953-.0982.3-.2913.3044a19.0886 19.0886 0 0 1-.707.0021c-.2083-.0043-.3043-.1221-.3065-.324-.0021-.1592-.0021-.3207-.0043-.48-.0044-.3523-.0142-.3676-.3546-.421-.4341-.0699-.8607-.1691-1.2589-.3622-.313-.1528-.3458-.2302-.2563-.5575.0676-.2433.1352-.4876.2094-.7287.0884-.2793.1647-.3142.4222-.18.4407.229.9087.3567 1.3975.4178.3163.0393.625.0076.9174-.12.5455-.2389.6295-.8705.1691-1.2502-.155-.1298-.3327-.2247-.5204-.3065-.4778-.2117-.9774-.371-1.428-.6415-.733-.4396-1.1989-1.0418-1.1432-1.933.06-1.007.6305-1.6364 1.5545-1.9724.3818-.1386.384-.132.3851-.5313.0022-.1364-.001-.2705.0022-.4047.0087-.3.0589-.3524.3567-.3611.0927-.0011.1855 0 .2771 0 .6382 0 .6382 0 .6404.636.0021.4516.0021.4538.4505.5225.3447.0546.672.155.9916.2957.1735.0774.2411.1996.1855.384-.0807.2749-.155.552-.2433.8247-.0829.2585-.1658.2956-.4134.1767-.4964-.24-1.019-.3403-1.5688-.3109-.1429.0087-.2836.0273-.4178.0862-.4734.2073-.552.732-.1472 1.0549.2061.1636.4385.2815.6818.3818.42.1746.8443.3426 1.2425.563z" fill-rule="evenodd"/></svg>