<svg viewBox="0 0 24 24"><path d="M14.7592 10.9943c-.8633-.4776-1.781-.8407-2.6898-1.2184-.5264-.2178-1.0312-.472-1.477-.826-.877-.6999-.708-1.8355.3187-2.2858.2905-.127.5945-.168.9042-.186 1.19-.0647 2.3222.1542 3.3988.6715.5366.2598.7136.1781.8951-.3812.1906-.591.3494-1.19.5264-1.7856.118-.4005-.0272-.6636-.4039-.8315-.6908-.3052-1.3999-.523-2.1452-.641-.9722-.1498-.9722-.1543-.9768-1.131-.0045-1.3773-.0045-1.3773-1.3851-1.3773-.2008 0-.4005-.0045-.6002 0-.6455.0182-.7544.1327-.7725.7817-.0091.2904 0 .582-.0046.8769-.0045.8633-.009.8497-.836 1.1492-1.999.7272-3.2355 2.0908-3.3671 4.2723-.118 1.9309.8905 3.2344 2.4765 4.1839.9768.5865 2.0579.9314 3.0948 1.3908.4038.177.7907.3812 1.1265.6637.9949.8225.8134 2.1895-.3687 2.708-.6308.2767-1.299.3448-1.9853.2586-1.0584-.1316-2.0715-.4084-3.0256-.9042-.5593-.2904-.7226-.2133-.9132.3903-.1634.523-.3097 1.0505-.455 1.5769-.195.709-.1225.8769.5548 1.2093.8633.4175 1.7856.6307 2.7261.7816.7363.118.759.1498.768.9121.0046.346.0046.6955.0091 1.0415.0045.4356.2133.6897.6625.7a38.3226 38.3226 0 0 0 1.5315-.0046c.4186-.0102.632-.2371.632-.6591 0-.4731.0226-.9496.0045-1.4226-.0227-.4822.186-.726.65-.8543 1.0675-.2904 1.9762-.8633 2.6762-1.7175 1.9444-2.362 1.2036-5.821-1.5497-7.3422z" fill-rule="evenodd"/></svg>