<svg viewBox="0 0 24 24"><path d="M18.5221 19.356h-2.4104V10.57c0-.1013-.0595-.189-.1534-.2244l-4.248-3.074 5.1172.8263c1.0133.3914 1.6946 1.3847 1.6946 2.472v8.7861zm-2.9316-7.5407v4.5726c-1.0842.1993-2.2998.315-3.5906.315-4.4922 0-8.134-1.3585-8.134-3.0343v-3.361l7.4088 2.6587c.3099.1106.648.1127.96.0052l3.3558-1.1562zm3.4534-1.1892l1.0894-.3757v3.4185c0 .551-.3997 1.0664-1.0894 1.512V10.626zm4.8593-2.4986a.148.148 0 0 1 .0887.0897c.026.0751-.0147.1565-.0898.1837l-4.896 1.6873c-.1722-1.1061-.9287-2.0682-1.991-2.4772a.452.452 0 0 0-.1043-.0272l-5.1172-.8264a.4625.4625 0 0 0-.0845-.0073.5215.5215 0 0 0-.3047.9443l4.1864 3.0293v.5405l-3.3569 1.1572a1.4465 1.4465 0 0 1-.959-.0063L.0953 8.403a.1415.1415 0 0 1-.0867-.0877.1437.1437 0 0 1 .0877-.1847l11.424-4.0476a1.4483 1.4483 0 0 1 .9663 0l11.4167 4.0445z" fill-rule="evenodd"/></svg>