<svg viewBox="0 0 24 24"><path d="M15.5958 17.5023a6.571 6.571 0 0 1-1.0132.3673c-1.3242.3652-2.6473.3777-3.962-.048-1.5893-.5155-2.6453-1.5976-3.2756-3.118-.119-.2932-.1993-.6041-.2932-.9109H5.807a.3763.3763 0 0 1-.3778-.3777v-.839a.377.377 0 0 1 .3778-.3777H6.84v-.6835H5.807a.3763.3763 0 0 1-.3778-.3778v-.839a.377.377 0 0 1 .3778-.3777h1.3106l.0438-.1304c.3516-1.1249.959-2.0817 1.896-2.8059.7419-.577 1.6017-.8932 2.522-1.0414 1.3096-.2087 2.5775-.0303 3.8067.4497.0793.0303.1565.0668.2306.1096.2953.1732.3715.3955.241.7096-.1367.3339-.2754.6657-.4257.9913-.1294.2838-.3057.3725-.6094.3036-.4163-.0939-.8243-.2212-1.2396-.3057-.8776-.1805-1.7479-.1889-2.5993.1482-.7326.2911-1.1792.8494-1.485 1.5454-.0051.0052-.0051.0156-.0051.026h2.5513c.2087 0 .3767.169.3767.3778v.839a.376.376 0 0 1-.3767.3777H9.1263c-.0032.2243 0 .4487 0 .6835h2.9186c.2087 0 .3767.169.3767.3777v.839a.376.376 0 0 1-.3767.3777h-2.664c.3214.9193.8452 1.63 1.826 1.9388.7837.2483 1.5799.2327 2.373.0668.411-.0846.8138-.2087 1.225-.3037.3234-.074.4977.0125.6323.3089.1534.3308.2932.6678.431 1.0048.1252.3037.0438.549-.2724.694M12 0C5.3729 0 0 5.3718 0 12c0 6.6271 5.3729 12 12 12 6.6282 0 12-5.3729 12-12 0-6.6282-5.3718-12-12-12" fill-rule="evenodd"/></svg>