<svg viewBox="0 0 24 24"><path d="M19.7674 8.1705H18.616c-.0085 0-.0148-.0043-.0223-.0053-.2443 1.2087-1.316 2.1184-2.6022 2.1184-1.2926 0-2.3664-.9203-2.6044-2.1364-.0382.0085-.0743.0233-.1157.0233H4.1519c-.2942 0-.531-.2378-.531-.5283 0-.2927.2368-.5283.531-.5283h9.1195c.0414 0 .0775.0148.1157.0222.238-1.2172 1.3118-2.1354 2.6044-2.1354 1.2862 0 2.358.9087 2.6022 2.1174.0075-.001.0138-.0042.0223-.0042h1.1514c.2931 0 .531.2356.531.5283 0 .2905-.2379.5283-.531.5283m0 8.7167h-9.1195c-.0414 0-.0775-.0148-.1158-.0233-.2379 1.2161-1.3117 2.1364-2.6043 2.1364-1.2863 0-2.358-.9097-2.6033-2.1184-.0064.001-.0128.0053-.0213.0053H4.152c-.2942 0-.531-.2378-.531-.5283 0-.2927.2368-.5283.531-.5283h1.1513c.0085 0 .015.0032.0213.0042.2453-1.2087 1.317-2.1173 2.6033-2.1173 1.2926 0 2.3664.9181 2.6043 2.1353.0383-.0074.0744-.0222.1158-.0222h9.1195c.2931 0 .531.2356.531.5283 0 .2905-.2379.5283-.531.5283M22.6107 0H1.3903C.6224 0 0 .618 0 1.382v21.236C0 23.3808.6224 24 1.3903 24h21.2204C23.3776 24 24 23.3808 24 22.618V1.382C24 .618 23.3776 0 22.6107 0" fill-rule="evenodd"/></svg>