<svg viewBox="0 0 24 24"><path d="M2.3403 14.8427c-.6163 0-1.1138-.4996-1.1138-1.1138 0-.6142.4975-1.1149 1.1138-1.1149.2018 0 .3808.0687.5433.1615l4.7236-4.547c-.0261-.0949-.0589-.1865-.0589-.288 0-.6141.4975-1.1149 1.115-1.1149.493 0 .8978.3262 1.044.7691l4.0494 1.5404c.193-.1615.433-.2706.7047-.2706.1538 0 .299.0306.432.0873l5.0018-5.5222c-.0316-.1025-.0643-.2029-.0643-.3152 0-.6142.4974-1.1139 1.1149-1.1139.6163 0 1.1138.4997 1.1138 1.1139 0 .6141-.4975 1.1149-1.1138 1.1149-.108 0-.2062-.0338-.3044-.0622l-5.101 5.6313c.0097.061.036.1167.036.18 0 .6141-.4975 1.1138-1.115 1.1138-.5542 0-.9938-.4124-1.0789-.9415L9.4912 8.6704c-.205.2312-.4941.384-.828.384-.1167 0-.2214-.0328-.3272-.0655l-4.8873 4.7062c0 .0109.0054.0218.0054.0338 0 .6142-.4974 1.1138-1.1138 1.1138zm20.787 5.5754c.301 0 .5454.2444.5454.5455a.5457.5457 0 0 1-.5454.5455H.5455A.545.545 0 0 1 0 20.9636a.545.545 0 0 1 .5455-.5455h7.6494c0-.0163-.0087-.0305-.0076-.0469l.1429-7.8752c.0043-.3175.264-.5717.5814-.5717h1.7815c.325 0 .588.2673.5814.5924l-.1429 7.8764c0 .0087-.0043.0163-.0054.025h2.593c-.001-.0196-.0097-.037-.0097-.0578l.1221-3.3556a.5814.5814 0 0 1 .5815-.5607h1.7814c.3284 0 .5924.2738.5804.6032l-.121 3.3557c0 .0054-.0034.0098-.0034.0152h2.5648c-.0011-.0152-.0088-.0272-.0088-.0436l.1506-12.636a.5813.5813 0 0 1 .5814-.5749H21.72a.583.583 0 0 1 .5825.589l-.1505 12.636c0 .01-.0055.0197-.0055.0295h.9808z" fill-rule="evenodd"/></svg>