<svg viewBox="0 0 24 24"><path d="M22.455 22.274h.992c.3053 0 .553.2478.553.553a.5532.5532 0 0 1-.553.553H.553A.5525.5525 0 0 1 0 22.827c0-.3052.2466-.553.553-.553h2.5333a.5997.5997 0 0 1-.0007-.0585l.1228-3.402c.0121-.3164.272-.5685.5895-.5685h1.806c.334 0 .6017.2776.5895.6116l-.1238 3.402a.6011.6011 0 0 1-.0008.0155h2.462a.599.599 0 0 1-.001-.0471l.1448-7.9853a.5892.5892 0 0 1 .5895-.5784h1.806c.3297 0 .5962.271.5907.6005l-.1449 7.9842a.6028.6028 0 0 1-.0011.026h2.4831a.597.597 0 0 1-.001-.044l.1515-12.8107a.5893.5893 0 0 1 .5895-.5829h1.806c.3285 0 .594.2688.5907.5972l-.1527 12.8107a.5973.5973 0 0 1-.001.0298h2.4902a.5973.5973 0 0 1-.0011-.0415l.157-19.3504a.589.589 0 0 1 .5895-.585h1.8061a.5907.5907 0 0 1 .5906.595l-.157 19.3493a.5992.5992 0 0 1-.0012.0326zM15.7548.4535c.021.0575.0365.1184.0365.1836v2.484a.5525.5525 0 0 1-.553.553.5532.5532 0 0 1-.553-.553V1.983L2.0516 14.766a.5485.5485 0 0 1-.3926.1649.5511.5511 0 0 1-.3893-.1604.5534.5534 0 0 1-.0044-.782l12.69-12.8405-1.2552-.041a.5533.5533 0 0 1-.5342-.5706c.01-.3042.2356-.563.5707-.5342l2.5205.083c.0089 0 .0155.0066.0244.0077.0885.0066.168.0365.24.0796a.6086.6086 0 0 1 .0553.0376c.074.0586.136.1294.1725.2179.0011.0022.0033.0022.0033.0044.0022.0067 0 .0144.0022.021z" fill-rule="evenodd"/></svg>