<svg viewBox="0 0 24 24"><path d="M20.4222 22.124c0 .9392-.7617 1.702-1.7019 1.702h-1.7019c-.9402 0-1.702-.7628-1.702-1.702v-5.1057c0-.9402.7618-1.7009 1.702-1.7009h1.702c.94 0 1.7018.7607 1.7018 1.7009v5.1057zM13.4812.101c6.004.77 10.345 6.1732 10.345 12.2275v8.0943h-3.4039v-1.702h1.702v-6.8076h-.1514c-.841 0-1.5318-.6188-1.6737-1.4473-.6887-4.0049-4.1875-7.0623-8.3864-7.0623-4.198 0-7.6967 3.0574-8.3865 7.0623-.1419.8285-.8316 1.4473-1.6727 1.4473h-.1523v6.8076h1.7019v1.702H.0004V11.913c0-7.0852 6.216-12.745 13.4807-11.8122zM3.4034 17.0187c0-.9402.7618-1.7019 1.702-1.7019h1.7018c.9402 0 1.702.7617 1.702 1.702v5.1057c0 .939-.7618 1.7008-1.702 1.7008H5.1054c-.9401 0-1.7019-.7617-1.7019-1.7008v-5.1058z" fill-rule="evenodd"/></svg>