<svg viewBox="0 0 24 24"><path d="M0 15.3807c0-.3829.2041-.7348.5351-.9268l4.1133-2.3744a1.0717 1.0717 0 0 1 1.0702 0l4.1133 2.3744c.331.192.5351.544.5351.9268v4.751a1.07 1.07 0 0 1-.535.9257L5.7185 23.433a1.0717 1.0717 0 0 1-1.0702 0L.5351 21.0574A1.0704 1.0704 0 0 1 0 20.1317v-4.751zm13.633 0c0-.3829.204-.7348.534-.9268l4.1144-2.3744a1.0697 1.0697 0 0 1 1.0691 0l4.1144 2.3744c.331.192.5351.544.5351.9268v4.751c0 .3807-.2041.7349-.5351.9257l-4.1144 2.3755a1.0697 1.0697 0 0 1-1.0691 0l-4.1144-2.3755a1.0717 1.0717 0 0 1-.534-.9257v-4.751zM6.8163 3.4444c0-.3818.204-.7349.535-.9257L11.4648.1432a1.0717 1.0717 0 0 1 1.0702 0l4.1133 2.3755c.331.1908.5351.544.5351.9257v4.751c0 .3817-.2041.7348-.5351.9268l-4.1133 2.3744a1.0717 1.0717 0 0 1-1.0702 0L7.3514 9.1222a1.0721 1.0721 0 0 1-.5351-.9268v-4.751z" fill-rule="evenodd"/></svg>