<svg viewBox="0 0 24 24"><path d="M16.2866 16.8178s5.3144-2.8852 6.3068-2.8166S24 14.1164 24 14.1164s-8.1916 7.2585-9.9285 7.5366c-1.7382.2768-8.65-.9645-8.65-.9645L2.713 22.736 0 18.542s4.556-3.4798 6.8723-3.7276c2.3163-.249 6.992 1.4473 6.992 1.4473s.185.9924-.5072 1.324c-.6922.3315-4.4512.6561-4.4512.6561 2.6584.5515 5.1458.2444 7.3807-1.424m-2.7563-8.7141c-.2322.2833-.5338.4737-.8886.5702-.1539.0423-.2233.1237-.2154.2838.0057.1566-.0016.3152-.0016.4722 0 .1404-.071.2155-.2097.2186-.169.0047-.3397.0047-.5087.0016-.1493-.0031-.2186-.0877-.2197-.2322-.002-.1148-.002-.2311-.0031-.3459-.0032-.253-.011-.2635-.2552-.3031-.3125-.0496-.6187-.1206-.9052-.2593-.2248-.1101-.2488-.166-.1841-.4013.0485-.1753.0965-.35.1507-.5238.0637-.2003.118-.2259.3037-.1294.3167.1644.6532.2562 1.0043.3.228.0287.4498.0063.6595-.086.3924-.1717.4524-.6261.1221-.899-.1116-.0934-.24-.1612-.374-.2202-.3444-.1523-.7034-.2671-1.0274-.4617-.5264-.3152-.8614-.7482-.8222-1.3894.0438-.7242.4539-1.1765 1.118-1.4181.2745-.0997.276-.095.2776-.382.001-.098-.0016-.1945.001-.291.0063-.2155.0428-.2536.2567-.2594.0663-.0015.133 0 .1993 0 .4587 0 .4587 0 .4597.457.002.3246.002.3262.3245.3757.2478.0392.4832.1117.7122.213.1252.0557.1737.1434.134.276-.0584.1977-.111.397-.1747.5926-.0605.1857-.119.2129-.2974.1268-.3574-.1717-.733-.2442-1.128-.2233-.1028.0062-.204.0198-.3005.062-.3407.1493-.3965.5265-.1054.7587.1476.1179.3151.2024.49.275.302.1246.6067.2457.8931.4043.9146.505 1.1604 1.6534.5145 2.4376M12 0C8.6864 0 6 2.6864 6 6s2.6864 6 6 6 6-2.6864 6-6-2.6864-6-6-6" fill-rule="evenodd"/></svg>