<svg viewBox="0 0 24 24"><path d="M16.9462 3.9317H9.857V1.8455a.9222.9222 0 0 0-.923-.923.9228.9228 0 0 0-.9232.923v2.0862H.9234a.9222.9222 0 0 0-.923.923c0 .5105.4126.9231.923.9231h11.4157c-.8243 2.6963-2.8846 4.957-3.7061 5.7776-1.2499-1.4262-2.1692-2.785-2.125-3.5714a.9217.9217 0 0 0-.8686-.9739c-.515-.0203-.9443.36-.9738.8686-.0812 1.4299 1.1788 3.2991 2.6418 4.9699l-4.8276 4.7317c-.3637.3572-.3693.9415-.013 1.3052.181.1837.421.277.6591.277a.923.923 0 0 0 .647-.264l4.7927-4.6995c1.2212 1.236 2.3677 2.22 2.8172 2.5957a.9165.9165 0 0 0 .5899.2142c.264 0 .527-.1126.7098-.3314a.9252.9252 0 0 0-.1163-1.3006c-.8381-.6988-1.7815-1.5665-2.6723-2.4692.937-.9194 3.5132-3.6933 4.3662-7.1299h2.6861a.9222.9222 0 0 0 .923-.923.9222.9222 0 0 0-.923-.9231m-.0502 13.0745l1.4751-3.7948 1.525 3.7948h-3zm6.9323 4.8296L19.213 10.3564a.924.924 0 0 0-.8567-.5788h-.0055a.9224.9224 0 0 0-.8548.589l-2.7987 7.2027v.001l-1.6625 4.2756c-.1846.4754.0508 1.0108.5262 1.1945a.9044.9044 0 0 0 .3341.0627.9238.9238 0 0 0 .8603-.588l1.4234-3.6627h4.4603l1.476 3.6729c.1902.4735.7274.6988 1.201.5114.4735-.1902.7024-.7274.5122-1.201z" fill-rule="evenodd"/></svg>