<svg viewBox="0 0 24 24"><path d="M20.3107 19.9734a.6275.6275 0 0 1-.6272-.6272c0-.3461.281-.6272.6272-.6272.3461 0 .6272.281.6272.6272a.6275.6275 0 0 1-.6272.6272m2.4599-10.227c.6793 0 1.2294.5501 1.2294 1.2294v8.6091c0 .6793-.5501 1.2284-1.2294 1.2284h-4.9199c-.6792 0-1.2294-.549-1.2294-1.2284v-8.6091c0-.6793.5502-1.2294 1.2294-1.2294h4.9199zm-6.7187.7642v5.2085H2.5207c-.4905 0-.892-.4004-.892-.8909V4.8909c0-.4905.4015-.8909.892-.8909h16.4468c.4905 0 .8909.4004.8909.8909v4.3176H17.354c-.7194 0-1.3021.5827-1.3021 1.302zm0 9.1142c0 .0683.0282.127.039.1931H1.772C.7976 19.818 0 19.0204 0 18.046v-1.1653a.053.053 0 0 1 .052-.0532h16v2.7974z" fill-rule="evenodd"/></svg>