<svg viewBox="0 0 24 24"><path d="M20.5264 21.2858a.5752.5752 0 0 1-.5763.575H4.0487a.575.575 0 0 1-.575-.575v-.975a.575.575 0 0 1 .575-.5751h15.9014a.5752.5752 0 0 1 .5763.575v.9751zM6.3664 4.8267l1.5026-1.854 1.5003 1.854 1.5014 1.8539H9.1235v11.251H6.6133V6.6806H4.865l1.5015-1.854zm8.2632 0l1.5014-1.854 1.5015 1.854 1.5014 1.8539h-1.7472v11.251h-2.5113V6.6806H13.128l1.5015-1.854zM23.1328 0H.8672A.8674.8674 0 0 0 0 .8672v22.2644c0 .48.3884.8684.8672.8684h22.2656c.4788 0 .8672-.3884.8672-.8684V.8672A.8674.8674 0 0 0 23.1328 0z" fill-rule="evenodd"/></svg>