<svg viewBox="0 0 24 24"><path d="M20.0265 8.7861a.7083.7083 0 0 1 .9302.3711l1.221 2.8436a.7076.7076 0 0 1-.372.9303l-5.9262 2.5447c-.3588.1535-.7757-.0122-.9302-.3711l-1.221-2.8446a.7083.7083 0 0 1 .371-.9303l5.9272-2.5437zm-7.37 1.7918c.1576.368-.0132.795-.3813.9536l-2.812 1.2068c-.368.1586-.794-.0122-.9526-.3812L6.2149 7.0094a.7258.7258 0 0 1 .3803-.9536l2.812-1.2068a.7247.7247 0 0 1 .9527.3803l2.2966 5.3486zm2.0831-5.5202a.7102.7102 0 0 1 .9323.372l1.22 2.8406a.7115.7115 0 0 1-.3731.9333l-2.3089.9912a.7102.7102 0 0 1-.9323-.372l-1.22-2.8406c-.1545-.361.0123-.7788.3732-.9323l2.3088-.9922zM14.3033 19.15a.7673.7673 0 0 1-.4148-.429 3.8518 3.8518 0 0 1-.0488-.1536c-.3853-.9028-1.1102-1.6094-2.0353-1.9774-.9221-.37-1.9347-.3579-2.8497.0366-.0051.0081-.0488.0325-.0966.055-.187.0843-.4006.0924-.5907.0162a.7593.7593 0 0 1-.426-.4097L2.4644 3.7649l-1.401.6008C.676 4.5314.2277 4.3535.062 3.9662a.7639.7639 0 0 1 .3995-1.0025L2.564 2.062a.759.759 0 0 1 .5835-.0072.7654.7654 0 0 1 .4179.4067l5.3862 12.5466c1.1194-.3274 2.314-.2745 3.419.1647 1.1194.4473 2.0313 1.2454 2.616 2.2793l7.9502-3.4139a.7637.7637 0 0 1 1.0014.4006.7633.7633 0 0 1-.3996 1.0014l-8.6375 3.7077a.7703.7703 0 0 1-.301.062.7743.7743 0 0 1-.2968-.06zm-1.5597.0301c.5601 1.3054-.0438 2.8182-1.3492 3.3794-1.3053.5602-2.8191-.0437-3.3793-1.349-.5602-1.3055.0437-2.8183 1.349-3.3795 1.3055-.5601 2.8183.0438 3.3795 1.3491z" fill-rule="evenodd"/></svg>