<svg viewBox="0 0 24 24"><path d="M12.2965 15.7078c-1.954 0-3.553-1.6-3.553-3.554v-8.601c0-1.954 1.599-3.553 3.553-3.553s3.553 1.599 3.553 3.553v8.601c0 1.954-1.599 3.554-3.553 3.554zm5.7969-8.167c.276 0 .5.224.5.5v4.113c0 3.303-2.558 6.016-5.796 6.272v4.074h2.809c.277 0 .5.224.5.5s-.223.5-.5.5h-6.619c-.277 0-.5-.224-.5-.5s.223-.5.5-.5h2.81v-4.074c-3.239-.256-5.797-2.969-5.797-6.272v-4.113c0-.276.223-.5.5-.5.276 0 .5.224.5.5v4.113c0 2.921 2.376 5.297 5.297 5.297 2.92 0 5.296-2.376 5.296-5.297v-4.113c0-.276.224-.5.5-.5z" fill-rule="evenodd"/></svg>