<svg viewBox="0 0 24 24"><path d="M3.6314 12.6715c-.455-.293-.586-.902-.293-1.36.296-.454.905-.587 1.359-.293l5.103 3.29c.457.293.587.902.293 1.359-.188.291-.504.45-.829.45a.9739.9739 0 0 1-.53-.157l-5.103-3.289zm18.0313 6.3867c1.086 0 1.967.883 1.967 1.971 0 1.086-.881 1.97-1.967 1.97H2.9667c-1.086 0-1.967-.884-1.967-1.97 0-1.086.881-1.971 1.967-1.971h10.412c1.969-.778 3.361-2.726 3.361-4.979 0-2.567-1.813-4.714-4.224-5.241l-2.801 4.344-3.955-2.551 6.161-9.553c.704-1.093 2.16-1.407 3.253-.702.524.337.892.87 1.023 1.48a2.354 2.354 0 0 1-.321 1.77l-1.421 2.2c3.343 1.254 5.729 4.48 5.729 8.253 0 1.848-.573 3.567-1.546 4.979h3.025z" fill-rule="evenodd"/></svg>