<svg viewBox="0 0 24 24"><path d="M16.9343 7.2869c-1.89.15-3.57 1.06-4.73 2.42h-7.25c-.88 0-1.61-.73-1.61-1.61 0-.89.73-1.62 1.61-1.62h10.6c.59 0 1.11.33 1.38.81zm-4.9301 2.6699c-.73.92-1.23 2.02-1.41 3.23h-7.07c-.88 0-1.61-.73-1.61-1.61 0-.89.73-1.62 1.61-1.62h8.48zm-1.0601 6.71h-7.42c-.88 0-1.61-.73-1.61-1.61 0-.89.73-1.61 1.61-1.61h7.03c-.03.27-.05.54-.05.82 0 .84.15 1.65.44 2.4zm2.7798 3.48h-10.2c-.88 0-1.61-.73-1.61-1.61 0-.89.73-1.61 1.61-1.61h7.51c.55 1.33 1.49 2.45 2.69 3.22zm.0947-15.5347c0 .884-.728 1.612-1.612 1.612H1.6116c-.884 0-1.612-.728-1.612-1.612 0-.884.728-1.612 1.612-1.612h10.595c.884 0 1.612.728 1.612 1.612zm5.5254 11.8292c-.2418.2951-.556.4935-.9255.594-.1603.044-.2326.1288-.2245.2957.006.163-.0016.3282-.0016.4918 0 .1462-.074.2245-.2185.2277-.176.005-.3538.005-.5299.0017-.1554-.0033-.2277-.0913-.2288-.2419-.0022-.1195-.0022-.2407-.0032-.3603-.0033-.2636-.0115-.2745-.2658-.3158-.3255-.0516-.6446-.1255-.943-.27-.2342-.1147-.2592-.1729-.1918-.418.0506-.1826.1006-.3647.157-.5457.0664-.2087.1229-.2353.3164-.1347.3299.1712.6804.2668 1.0462.3125.2375.0299.4685.0065.687-.0897.4086-.1788.4711-.6522.1271-.9364-.1163-.0973-.25-.168-.3897-.2294-.3587-.1587-.7326-.2782-1.07-.481-.5484-.3282-.8974-.7793-.8566-1.4472.0457-.7544.4728-1.2256 1.1647-1.4772.2858-.1038.2875-.099.2891-.3978.0011-.1022-.0016-.2028.0011-.3033.0065-.2245.0446-.2641.2674-.2701.069-.0016.1386 0 .2076 0 .4777 0 .4777 0 .4788.476.0022.3381.0022.3398.338.3914.2582.0407.5033.1163.7419.2217.1304.0582.181.1495.1397.2875-.0609.206-.1158.4136-.1821.6174-.063.1935-.124.2218-.3098.132-.3723-.1787-.7636-.2543-1.175-.2325-.107.0065-.2125.0206-.313.0646-.355.1555-.413.5484-.1098.7903.1538.1228.3283.2108.5103.2864.3147.1299.632.256.9305.4212.9527.526 1.2086 1.7223.5358 2.5391M17.75 8c-3.4516 0-6.25 2.7984-6.25 6.25s2.7984 6.25 6.25 6.25S24 17.7016 24 14.25 21.2016 8 17.75 8" fill-rule="evenodd"/></svg>