<svg viewBox="0 0 24 24"><path d="M14.2497 10.0083c-2.0754 0-3.7586-1.682-3.7586-3.7586 0-2.0754 1.6832-3.7575 3.7586-3.7575 2.0755 0 3.7586 1.682 3.7586 3.7575 0 2.0766-1.682 3.7586-3.7586 3.7586M4.4995 10c-1.656 0-3-1.343-3-3s1.344-3 3-3c1.657 0 3 1.343 3 3s-1.343 3-3 3m18 0L18 13c0-.911-.4143-1.7155-1.055-2.2664 1.5246-.9193 2.5545-2.5733 2.5545-4.4839C19.4995 3.351 17.1495 1 14.2497 1 11.351 1 9 3.351 9 6.2497 9 7.721 9.6083 9.0473 10.583 10H7.8323C8.5503 9.2038 9 8.1583 9 7c0-2.4856-2.015-4.4995-4.5005-4.4995C2.0139 2.5005 0 4.5145 0 7c0 1.3565.6125 2.5576 1.561 3.382C.6355 10.8942 0 11.8677 0 13v6c0 1.657 1.343 3 3 3h12c1.657 0 3-1.343 3-3l4.4995 3C23.329 22 24 21.329 24 20.5005v-9C24 10.672 23.329 10 22.4995 10" fill-rule="evenodd"/></svg>