<svg viewBox="0 0 24 24"><path d="M4.2842 18.026c-.5576.5576-.5945 1.4233-.0825 1.9353.5113.5113 1.3776.475 1.9352-.0825l7.458-7.4581-1.8526-1.8527-7.4581 7.458zm11.785-5.6909c-.3329.333-.851.3557-1.1572.0494l-.0266-.0266-6.0147 6.0148-2.3063 2.3062c-.7015.7015-1.6966.9062-2.5102.5958L2.336 22.9892c-.1749.1749-.3984.2687-.6178.2794-.2206.0094-.4363-.0664-.5969-.227-.3217-.3217-.2979-.8655.0518-1.2153l1.7158-1.7157c-.3124-.8128-.107-1.81.5951-2.512l5.661-5.661 2.66-2.66-.0271-.0272c-.3057-.3057-.2836-.8244.0493-1.1573l.528-.528c.3329-.3329.8515-.355 1.1572-.0493l6.2556-6.2555c.9428-.9417 2.4084-1.0042 3.2736-.139.4323.4323.6335 1.0155.6082 1.6076-.0252.5922-.277 1.1947-.7477 1.6655l-6.2556 6.2555c.3063.3063.2842.825-.0494 1.1586l-.5279.5266z" fill-rule="evenodd"/></svg>