<svg viewBox="0 0 24 24"><path d="M14.1824 3.841c0 1.0167-3.1757 1.8404-7.091 1.8404-3.9163 0-7.0909-.8237-7.0909-1.8404 0-1.0167 3.1746-1.8403 7.091-1.8403 3.9152 0 7.0909.8236 7.0909 1.8403zM7.0909 9.377c3.9164 0 7.091-.8236 7.091-1.8403v2.5898c0 1.0178-3.1746 1.8415-7.091 1.8415C3.1745 11.968 0 11.1443 0 10.1265V7.5367C0 8.5534 3.1745 9.377 7.091 9.377zm0-3.1427c3.9164 0 7.091-.8248 7.091-1.8404v2.5898c0 1.0167-3.1746 1.8415-7.091 1.8415C3.1745 8.8252 0 8.0004 0 6.9837V4.394c0 1.0156 3.1745 1.8404 7.091 1.8404zm9.1364 13.7882c3.9163 0 7.0909-.8237 7.0909-1.8404v2.5898c0 1.0178-3.1746 1.8415-7.091 1.8415-3.9163 0-7.0908-.8237-7.0908-1.8415v-2.5898c0 1.0167 3.1745 1.8404 7.0909 1.8404zm0-3.1428c3.9163 0 7.0909-.8248 7.0909-1.8404v2.5898c0 1.0168-3.1746 1.8415-7.091 1.8415-3.9163 0-7.0908-.8247-7.0908-1.8415v-2.5898c0 1.0156 3.1745 1.8404 7.0909 1.8404zM8.6325 14.105c0-.0033 0 .3829-.0011.961a26.045 26.045 0 0 1-1.5404.0448c-3.9163 0-7.0909-.8237-7.0909-1.8404v-2.5909c0 1.0167 3.1746 1.8404 7.091 1.8404 3.9163 0 7.0908-.8237 7.0908-1.8404v1.5742c-3.1505.2258-5.4774.9654-5.5494 1.8513zm-.0022 1.5138c-.0011.7647-.0022 1.7095-.0033 2.591a26.8586 26.8586 0 0 1-1.536.0446c-3.9163 0-7.0909-.8247-7.0909-1.8403v-2.591c0 1.0157 3.1746 1.8404 7.091 1.8404.529 0 1.0428-.0163 1.5392-.0447zm14.6884-1.1325c0 1.0168-3.1756 1.8404-7.0909 1.8404-3.9163 0-7.0909-.8236-7.0909-1.8404 0-1.0167 3.1746-1.8403 7.091-1.8403 3.9152 0 7.0908.8236 7.0908 1.8403zM8.6245 20.862c0 .1637.0862.323.2324.4757-.5651.0381-1.1553.06-1.7662.06-3.9164 0-7.091-.8248-7.091-1.8404v-2.591c0 1.0157 3.1746 1.8405 7.091 1.8405.529 0 1.0407-.0164 1.536-.0448-.0011 1.1695-.0022 2.1-.0022 2.1z" fill-rule="evenodd"/></svg>