<svg viewBox="0 0 24 24"><path d="M15.8953 17.6473H8.1057v-1.3816c.9047-.3746 1.895-1.3492 1.895-2.5147 0-.237 0-.4602-.0324-.6804H8.2936v-1.777h1.369c-.0897-.4289-.1388-.91-.1388-1.3868 0-2.135 1.5538-3.5541 3.8609-3.5541.9245 0 1.6216.2045 2.0014.4122l-.4122 1.9648c-.3422-.1878-.8191-.3099-1.4515-.3099-1.2146 0-1.5892.7701-1.5892 1.606 0 .4476.0689.8389.1711 1.2678h2.3395v1.777h-2.1193a3.565 3.565 0 0 1-.1513 1.2104c-.1544.4279-.4278.8557-.839 1.2147v.0365h4.5611v2.1151zM12 0C5.3729 0 0 5.3729 0 12s5.3729 12 12 12c6.6282 0 12-5.3729 12-12S18.6282 0 12 0z" fill-rule="evenodd"/></svg>