<svg viewBox="0 0 24 24"><path d="M18.4611 11.57a3.6836 3.6836 0 0 1 1.8467-.4933C22.3467 11.0767 24 12.73 24 14.7689s-1.6533 3.6922-3.6922 3.6922c-.6734 0-1.3034-.18-1.8467-.4933v4.6978c0 .7366-.5967 1.3344-1.3333 1.3344H1.3322C.5967 24 0 23.4022 0 22.6656v-4.349a3.7127 3.7127 0 0 0 1.0256.1445c2.0388 0 3.6922-1.6533 3.6922-3.6922s-1.6534-3.6922-3.6922-3.6922c-.3567 0-.7.05-1.0256.1444v-4.35c0-.7367.5967-1.3333 1.3322-1.3333h4.7a3.6731 3.6731 0 0 1-.4944-1.8467C5.5378 1.6522 7.191 0 9.23 0c2.04 0 3.6933 1.6522 3.6933 3.6911a3.674 3.674 0 0 1-.4944 1.8467h4.6989c.7366 0 1.3333.5966 1.3333 1.3333V11.57z" fill-rule="evenodd"/></svg>