<svg viewBox="0 0 24 24"><path d="M10.1272 9.4927l.361-.093v-8.176h-.481c-.072 0-.13-.058-.13-.13a.13.13 0 0 1 .13-.131h3.671a.1306.1306 0 0 1 0 .261h-.481v8.176l.361.093c2.937.755 5 3.342 5.138 6.35-.466.161-1.273.362-2.48.411-1.195.048-2.373-.628-4.39-.628-1.664 0-2.989.676-4.071.676-1.342 0-2.255-.249-2.768-.444.132-3.014 2.198-5.609 5.14-6.365m3.196 8.519c.007-.195.096-.393.242-.529.152-.141.351-.209.551-.208.206.008.398.103.534.249.136.147.215.345.208.551-.015.401-.393.751-.793.736-.207-.007-.4-.09-.541-.243-.141-.151-.209-.349-.201-.556m-3.423.973c.5-.465 1.283-.435 1.747.066.464.5.435 1.282-.065 1.747-.501.464-1.283.434-1.747-.067-.465-.5-.436-1.282.065-1.746m4.259-10.321v-6.59c.363-.178.612-.551.612-.98 0-.603-.49-1.094-1.093-1.094h-3.671c-.603 0-1.093.491-1.093 1.094 0 .429.25.802.612.98v6.59c-3.272 1.007-5.526 4.037-5.526 7.494 0 4.323 3.518 7.842 7.843 7.842 4.324 0 7.842-3.519 7.842-7.842 0-3.457-2.254-6.487-5.526-7.494" fill-rule="evenodd"/></svg>