<svg viewBox="0 0 24 24"><path d="M12 16.4035c-2.4313 0-4.4024-1.9712-4.4024-4.4035 0-2.4313 1.9711-4.4014 4.4024-4.4014 2.4323 0 4.4035 1.9701 4.4035 4.4014 0 2.4323-1.9712 4.4035-4.4035 4.4035m11.1652-6.1816l-1.6716-.5572c-.5333-.1774-.96-.5791-1.175-1.0977-.002-.0053-.0042-.0115-.0063-.0157-.217-.5207-.2003-1.1071.0522-1.6111l.7878-1.5767a1.2238 1.2238 0 0 0-.2285-1.4108l-.8765-.8755a1.2205 1.2205 0 0 0-1.4097-.2285l-1.5767.7878c-.504.2525-1.0905.2682-1.6112.0512-.0052-.0021-.0104-.0032-.0156-.0053a1.9398 1.9398 0 0 1-1.0988-1.1739L13.7791.8358A1.2232 1.2232 0 0 0 12.6198 0h-1.2396c-.526 0-.9924.337-1.1583.8358l-.5572 1.6727a1.9398 1.9398 0 0 1-1.0988 1.174c-.0042.002-.0104.003-.0156.0052-.5197.217-1.1072.2013-1.6112-.0512l-1.5767-.7878c-.4695-.2358-1.0372-.143-1.4097.2285l-.8765.8755a1.2238 1.2238 0 0 0-.2285 1.4108l.7878 1.5767c.2525.504.2692 1.0904.0522 1.6111-.0021.0042-.0042.0104-.0063.0157-.215.5186-.6417.9203-1.174 1.0977l-1.6726.5572A1.2213 1.2213 0 0 0 0 11.3812v1.2386c0 .526.336.9924.8348 1.1583l1.6727.5582c.5322.1774.959.5792 1.1739 1.0978l.0063.0156c.217.5207.2003 1.1072-.0522 1.6122l-.7878 1.5767a1.2206 1.2206 0 0 0 .2285 1.4087l.8765.8765a1.2244 1.2244 0 0 0 1.4097.2296l1.5767-.7889c.504-.2515 1.0905-.2682 1.6112-.0522a.225.225 0 0 1 .0156.0074c.5197.215.9204.6406 1.0988 1.1739l.5572 1.6716A1.22 1.22 0 0 0 11.3802 24h1.2396c.526 0 .9924-.336 1.1593-.8348l.5562-1.6716c.1784-.5333.5791-.959 1.0988-1.174.0052-.002.0104-.0052.0156-.0073.5207-.216 1.1072-.1993 1.6112.0522l1.5767.7889a1.224 1.224 0 0 0 1.4097-.2296l.8765-.8765a1.2206 1.2206 0 0 0 .2285-1.4087l-.7878-1.5767c-.2525-.505-.2692-1.0915-.0522-1.6122l.0063-.0156c.215-.5186.6417-.9204 1.175-1.0978l1.6716-.5582A1.22 1.22 0 0 0 24 12.6198v-1.2386c0-.5259-.336-.9934-.8348-1.1593" fill-rule="evenodd"/></svg>