<svg viewBox="0 0 24 24"><path d="M10.3953 11.056V1.4395h-.48a.24.24 0 0 1-.24-.24c0-.1315.1075-.24.24-.24h4.32c.1324 0 .24.1085.24.24a.24.24 0 0 1-.24.24h-.48v9.6163l3.817 5.7917c-.6.1661-1.6724.4157-2.713.4157-1.681 0-3.4916-.8851-5.2906-.8851-.9389 0-2.1178.1353-2.833.2304l3.6596-5.5527zm2.9817 8.6303c.4992-.5376 1.3411-.5702 1.8807-.07.5385.5001.5702 1.342.071 1.8806-.5002.5395-1.342.5702-1.8816.07-.5386-.4991-.5702-1.341-.07-1.8806zm-3.6845-.9302c-.0105-.265.0922-.5194.266-.7066.1747-.1881.4204-.309.6854-.3196.2582-.002.5117.0854.7085.2668.1872.1738.3005.4282.31.6788.0106.264-.0777.5193-.2591.7142-.1805.1949-.4282.3014-.6922.311-.5155.0192-.9994-.429-1.0186-.9446zm11.017 1.106l-5.9942-9.0951V2.2998c.4233-.1853.72-.6087.72-1.1002 0-.6614-.5386-1.2-1.2-1.2h-4.32c-.6615 0-1.2.5386-1.2 1.2 0 .4915.2966.9149.72 1.1002v8.4672L3.442 19.862c-.5434.8237-.5885 1.8355-.12 2.7043.4685.8698 1.3363 1.3892 2.3241 1.3892h12.8583c.9878 0 1.8557-.5194 2.3241-1.3892.4685-.8688.4244-1.8806-.119-2.7043z" fill-rule="evenodd"/></svg>