<svg viewBox="0 0 24 24"><path d="M23.2576 13.153h-5.217a.4844.4844 0 0 1-.484-.484v-2.438c0-.267.217-.484.484-.484h2.714c.163 0 .315.082.404.218l2.1 3.185c.001.001 0 .003-.001.003zm-5.1607 3.285h-6.6264c-.1258.868-.8726 1.5353-1.7754 1.5353s-1.6496-.6673-1.7754-1.5353H5.5906c-.498 0-.901-.403-.901-.9V6.901c0-.498.403-.901.901-.901h10.85c.498 0 .901.403.901.901v2.231h3.762c.184 0 .356.092.458.246l2.38 3.609c0 .001 0 .003-.002.003h.004v2.901c0 .303-.245.547-.547.547h-1.749c-.1257.868-.8725 1.5353-1.7753 1.5353s-1.6496-.6673-1.7754-1.5353zM3.5896 14.1638h-.003l-1.528-.009a.5337.5337 0 0 1-.532-.538c.002-.295.241-.533.535-.533h.004l1.527.009c.296.002.535.243.532.539a.5356.5356 0 0 1-.535.532zm0-2.7139h-.001l-3.054-.008c-.296-.002-.536-.241-.535-.538a.536.536 0 0 1 .536-.533h.001l3.054.008c.296.001.536.241.534.537a.5354.5354 0 0 1-.535.534z" fill-rule="evenodd"/></svg>