<svg viewBox="0 0 24 24"><path d="M14.4214 9.8716l-1.917 3.426a.4991.4991 0 0 1-.436.256h-2.156c-.276 0-.5-.224-.5-.5 0-.277.224-.5.5-.5h1.863l1.773-3.17c.134-.242.438-.328.681-.193.24.135.327.44.192.681m2.039-3.82c.794 0 1.438.642 1.438 1.436v9.024c0 .794-.644 1.437-1.438 1.437h-9.023c-.794 0-1.437-.643-1.437-1.437v-9.024c0-.794.643-1.436 1.437-1.436h9.023zM7.4673 22.563s-.16-3.953-.459-4.073h9.882c-.21.21-.4 4.073-.4 4.073 0 .793-.643 1.437-1.438 1.437h-6.148c-.794 0-1.437-.644-1.437-1.437zm8.9628-21.126s.159 3.953.459 4.073h-9.882c.21-.21.4-4.073.4-4.073 0-.794.642-1.437 1.437-1.437h6.149c.793 0 1.437.643 1.437 1.437z" fill-rule="evenodd"/></svg>