<svg viewBox="0 0 24 24"><path d="M15.675 9.91a.5.5 0 1 1 0-1h4.275a.5.5 0 0 1 .427.24l2.375 3.898a.5.5 0 0 1 .073.26v2.923a.5.5 0 0 1-.5.5h-2.458a.5.5 0 1 1 0-1h1.958v-2.283L19.669 9.91h-3.994z"/><path d="M15.176 6.987h-9.95a.5.5 0 1 1 0-1h10.449a.5.5 0 0 1 .5.5l.01 9.743a.5.5 0 0 1-.5.5h-5.318a.5.5 0 1 1 0-1h4.818l-.01-8.743z"/><path d="M7.683 15.73a.5.5 0 0 1 0 1H5.225a.5.5 0 0 1-.5-.5V6.619a.5.5 0 0 1 1 0v9.113h1.958zm10.842 2.95c-1.066 0-1.925-.882-1.925-1.962s.859-1.962 1.925-1.962 1.925.881 1.925 1.962c0 1.08-.859 1.961-1.925 1.961zm0-1c.508 0 .925-.428.925-.962s-.417-.962-.925-.962-.925.428-.925.962.417.961.925.961z"/><path d="M9.025 18.68c-1.066 0-1.925-.882-1.925-1.962s.859-1.962 1.925-1.962 1.925.881 1.925 1.962c0 1.08-.859 1.961-1.925 1.961zm0-1c.508 0 .925-.428.925-.962s-.417-.962-.925-.962-.925.428-.925.962.417.961.925.961zM.474 11.566a.5.5 0 0 1 .002-1l2.85.007a.5.5 0 0 1-.002 1l-2.85-.007zM1.897 14.1a.5.5 0 1 1 .006-1l1.425.008a.5.5 0 1 1-.006 1L1.897 14.1zm20.134-1.588a.5.5 0 1 1 0 1h-5.666a.5.5 0 1 1 0-1h5.666zm-6.346 4.121a.5.5 0 1 1 0-1h1.503a.5.5 0 0 1 0 1h-1.503z"/></svg>