<svg viewBox="0 0 20 20"><path fill-rule="evenodd" d="M7.6917 0h4.6166c2.6746 0 3.6445.2785 4.6222.8014.9778.523 1.7452 1.2903 2.2681 2.268.523.9778.8014 1.9477.8014 4.6223v4.6166c0 2.6746-.2785 3.6445-.8014 4.6222-.523.9778-1.2903 1.7452-2.268 2.2681-.9778.523-1.9477.8014-4.6223.8014H7.6917c-2.6746 0-3.6445-.2785-4.6222-.8014-.9778-.523-1.7452-1.2903-2.2681-2.268C.2784 15.9527 0 14.9828 0 12.3082V7.6917C0 5.017.2785 4.0472.8014 3.0695c.523-.9778 1.2903-1.7452 2.268-2.2681C4.0473.2784 5.0172 0 7.6918 0zm.9906 11.4667L6.3016 9.0214a.7.7 0 1 0-1.0032.9766l2.8627 2.9403a.7.7 0 0 0 .9832.0197l5.5373-5.25a.7.7 0 1 0-.9632-1.016l-5.036 4.7747z"/></svg>