<svg viewBox="0 0 20 20"><path fill-rule="evenodd" d="M3.4826 15.4568L8.9393 10 3.4826 4.5432C2.245 6.0197 1.5 7.9228 1.5 10c0 2.0772.745 3.9803 1.9826 5.4568zm1.0606 1.0606C6.0197 17.755 7.9228 18.5 10 18.5c2.0772 0 3.9803-.745 5.4568-1.9826L10 11.0607l-5.4568 5.4567zM15.4568 3.4826C13.9803 2.245 12.0772 1.5 10 1.5c-2.0772 0-3.9803.745-5.4568 1.9826L10 8.9393l5.4568-5.4567zm1.0606 1.0606L11.0607 10l5.4567 5.4568C17.755 13.9803 18.5 12.0772 18.5 10c0-2.0772-.745-3.9803-1.9826-5.4568zM10 20C4.4772 20 0 15.5228 0 10S4.4772 0 10 0s10 4.4772 10 10-4.4772 10-10 10z"/></svg>