<svg viewBox="0 0 4 14"><path d="M3.0825 4.167V13.5h-2.79V4.167h2.79zm.324-2.556c0 .222-.045.4305-.135.6255-.09.195-.213.366-.369.513-.156.147-.3375.264-.5445.351-.207.087-.4275.1305-.6615.1305-.228 0-.441-.0435-.639-.1305a1.7963 1.7963 0 0 1-.5265-.351 1.6198 1.6198 0 0 1-.36-.513C.084 2.0415.0405 1.833.0405 1.611c0-.228.0435-.441.1305-.639C.258.774.378.6.531.45.684.3.8595.183 1.0575.099c.198-.084.411-.126.639-.126.234 0 .4545.042.6615.126.207.084.3885.201.5445.351.156.15.279.324.369.522.09.198.135.411.135.639z" fill-rule="evenodd"/></svg>