<svg viewBox="0 0 24 24"><path d="M19.7 6.955a.5.5 0 1 1-1 0V6a.7.7 0 0 0-.7-.7H3.6a.7.7 0 0 0-.7.7v8.4a.7.7 0 0 0 .7.7h9.584a.5.5 0 1 1 0 1H3.6a1.7 1.7 0 0 1-1.7-1.7V6a1.7 1.7 0 0 1 1.7-1.7H18A1.7 1.7 0 0 1 19.7 6v.955zM1.7 18.5v.7a.7.7 0 0 0 .7.7h10.713a.5.5 0 0 1 0 1H2.4a1.7 1.7 0 0 1-1.7-1.7v-.96a.74.74 0 0 1 .74-.74H13.2a.5.5 0 1 1 0 1H1.7z"/><path d="M15.1 10.8a1.7 1.7 0 0 1 1.7-1.7h4.8a1.7 1.7 0 0 1 1.7 1.7v8.4a1.7 1.7 0 0 1-1.7 1.7h-4.8a1.7 1.7 0 0 1-1.7-1.7v-8.4zm1 0v8.4a.7.7 0 0 0 .7.7h4.8a.7.7 0 0 0 .7-.7v-8.4a.7.7 0 0 0-.7-.7h-4.8a.7.7 0 0 0-.7.7z"/><path d="M16.2 18.02a.5.5 0 1 1 0-1h6a.5.5 0 1 1 0 1h-6z"/></svg>