<svg viewBox="0 0 24 24"><path d="M1.7 21.6a.7.7 0 0 0 .7.7h14.215a.7.7 0 0 0 .7-.7v-4.23a.5.5 0 0 1 .75-.432 2.823 2.823 0 1 0 0-4.891.5.5 0 0 1-.75-.433v-4.23a.7.7 0 0 0-.7-.7h-4.229a.5.5 0 0 1-.433-.75 2.823 2.823 0 1 0-4.891 0 .5.5 0 0 1-.433.75H2.4a.7.7 0 0 0-.7.7v3.308a3.823 3.823 0 1 1 0 7.6V21.6zm17.777-10.93a3.823 3.823 0 1 1-1.162 7.466V21.6a1.7 1.7 0 0 1-1.7 1.7H2.4a1.7 1.7 0 0 1-1.7-1.7v-3.914a.5.5 0 0 1 .639-.48 2.825 2.825 0 0 0 3.607-2.714A2.823 2.823 0 0 0 1.34 11.78a.5.5 0 0 1-.64-.48V7.384a1.7 1.7 0 0 1 1.7-1.7h3.464a3.823 3.823 0 1 1 7.287 0h3.464a1.7 1.7 0 0 1 1.7 1.7v3.464a3.84 3.84 0 0 1 1.162-.18z"/></svg>