<svg viewBox="0 0 24 24"><path d="M8 6.725c-3.837 0-6.875-.81-6.875-2.2 0-1.39 3.038-2.2 6.875-2.2s6.875.81 6.875 2.2c0 1.39-3.038 2.2-6.875 2.2zm0-1c3.204 0 5.875-.712 5.875-1.2s-2.67-1.2-5.875-1.2c-3.204 0-5.875.712-5.875 1.2s2.67 1.2 5.875 1.2z"/><path d="M13.875 4.525a.5.5 0 1 1 1 0v2.55c0 1.39-3.037 2.2-6.875 2.2s-6.875-.81-6.875-2.2v-2.55a.5.5 0 0 1 1 0v2.55c0 .488 2.67 1.2 5.875 1.2s5.875-.712 5.875-1.2v-2.55z"/><path d="M13.875 7.075a.5.5 0 1 1 1 0v2.55c0 1.39-3.037 2.2-6.875 2.2s-6.875-.81-6.875-2.2v-2.55a.5.5 0 0 1 1 0v2.55c0 .488 2.67 1.2 5.875 1.2s5.875-.712 5.875-1.2v-2.55zm.925 10.7c-3.837 0-6.875-.81-6.875-2.2 0-1.39 3.038-2.2 6.875-2.2s6.875.81 6.875 2.2c0 1.39-3.038 2.2-6.875 2.2zm0-1c3.204 0 5.875-.712 5.875-1.2s-2.67-1.2-5.875-1.2c-3.204 0-5.875.712-5.875 1.2s2.67 1.2 5.875 1.2z"/><path d="M20.675 15.575a.5.5 0 1 1 1 0v2.55c0 1.39-3.037 2.2-6.875 2.2s-6.875-.81-6.875-2.2v-2.55a.5.5 0 1 1 1 0v2.55c0 .488 2.67 1.2 5.875 1.2s5.875-.712 5.875-1.2v-2.55z"/><path d="M20.675 18.125a.5.5 0 1 1 1 0v2.55c0 1.39-3.037 2.2-6.875 2.2s-6.875-.81-6.875-2.2v-2.55a.5.5 0 1 1 1 0v2.55c0 .488 2.67 1.2 5.875 1.2s5.875-.712 5.875-1.2v-2.55zm-6.8-8.5a.5.5 0 1 1 1 0v2.55c0 1.39-3.037 2.2-6.875 2.2s-6.875-.81-6.875-2.2v-2.55a.5.5 0 0 1 1 0v2.55c0 .488 2.67 1.2 5.875 1.2s5.875-.712 5.875-1.2v-2.55z"/><path d="M1.125 12.175a.5.5 0 0 1 1 0v2.55c0 .488 2.67 1.2 5.875 1.2h.425a.5.5 0 1 1 0 1H8c-3.838 0-6.875-.81-6.875-2.2v-2.55z"/><path d="M1.125 14.725a.5.5 0 1 1 1 0v2.55c0 .488 2.67 1.2 5.875 1.2h.425a.5.5 0 1 1 0 1H8c-3.838 0-6.875-.81-6.875-2.2v-2.55zm13.75-.902a.5.5 0 0 1-1 0v-1.359a.5.5 0 1 1 1 0v1.359z"/></svg>