<svg viewBox="0 0 24 24"><path d="M6.299 12.363a.5.5 0 0 1 .866-.5l3.282 5.685a5.074 5.074 0 0 0 4.696 2.527.5.5 0 1 1 .059.998 6.074 6.074 0 0 1-5.621-3.025l-3.282-5.685z"/><path d="M4.482 12.835c4.373-2.525 6.334-4.424 8.857-7.97.069-.095.615-.868.84-1.167l-.06.069a.5.5 0 0 1 .84.04l6.158 10.668a.5.5 0 0 1-.384.747l-1.368.129c-4.31.411-6.94 1.164-11.304 3.683l-.666.385a2.81 2.81 0 0 1-3.838-1.028l-.77-1.333a2.81 2.81 0 0 1 1.028-3.838l.667-.385zm9.672-7.39C11.553 9.1 9.489 11.1 4.982 13.701l-.667.385a1.81 1.81 0 0 0-.662 2.472l.77 1.333a1.81 1.81 0 0 0 2.472.662l.666-.385c4.498-2.597 7.265-3.389 11.71-3.813l.59-.055-5.379-9.318-.328.463z"/></svg>