<svg viewBox="0 0 24 24"><path d="M6.577 22.728a.5.5 0 1 1 0-1h15.362a.5.5 0 1 1 0 1H6.577z"/><path d="M7.954 21.9a.5.5 0 1 1-1 0v-4.385a.5.5 0 0 1 .5-.5h2.63a.5.5 0 0 1 .5.5V21.9a.5.5 0 1 1-1 0v-3.885h-1.63V21.9zm5.261 0a.5.5 0 1 1-1 0v-5.192a.5.5 0 0 1 .5-.5h2.631a.5.5 0 0 1 .5.5V21.9a.5.5 0 1 1-1 0v-4.692h-1.63V21.9zm5.7-13.092v12.654a.5.5 0 0 1-1 0V8.308a.5.5 0 0 1 .5-.5h2.631a.5.5 0 0 1 .5.5v13.154a.5.5 0 0 1-1 0V8.808h-1.63zM4.834 6.575a.5.5 0 1 1 .767.642l-2.009 2.4a.5.5 0 0 1-.805-.052l-1.722-2.7a.5.5 0 0 1 .844-.537l1.354 2.124 1.571-1.877z"/><path d="M8.66 14.6a.5.5 0 1 1 0-1c2.731 0 4.953-2.323 4.953-5.2 0-2.877-2.222-5.2-4.952-5.2S3.709 5.523 3.709 8.4v.896a.5.5 0 1 1-1 0V8.4c0-3.42 2.66-6.2 5.952-6.2s5.952 2.78 5.952 6.2c0 3.42-2.66 6.2-5.952 6.2z"/></svg>