<svg viewBox="0 0 40 40"><path fill-rule="evenodd" d="M14.59 17.54v5.98h-1.248v-5.98h-2.066v-1.23h5.378v1.229H14.59zM7 11.407v17.186L20.848 31V9L7 11.407zm22.969 2.178c1.31 0 2.37 1.05 2.37 2.348a2.36 2.36 0 0 1-2.37 2.347 2.359 2.359 0 0 1-2.37-2.347 2.358 2.358 0 0 1 2.37-2.348zm2.983 5.8h-5.207v6.346a2.987 2.987 0 0 0 2.273 1.042c.797 0 1.56-.315 2.12-.876.56-.561.87-1.321.862-2.11l-.048-4.401zm-9.214-2.656c1.322 0 2.396-1.062 2.396-2.374 0-1.31-1.073-2.373-2.396-2.373-.77 0-1.456.36-1.894.92v2.907c.438.56 1.123.92 1.894.92zm-1.894 10.625a3.02 3.02 0 0 0 1.894.664c1.664 0 3.014-1.338 3.014-2.988v-7.183h-4.908v9.507z"/></svg>