<svg viewBox="0 0 40 40"><path fill-rule="evenodd" d="M33 12.366c-.92.401-1.907.674-2.945.796a5.086 5.086 0 0 0 2.255-2.793c-.994.578-2.091.998-3.259 1.226A5.154 5.154 0 0 0 25.307 10c-2.832 0-5.128 2.262-5.128 5.05 0 .395.045.782.133 1.15a14.635 14.635 0 0 1-10.57-5.276 4.95 4.95 0 0 0-.693 2.538 5.03 5.03 0 0 0 2.28 4.203 5.189 5.189 0 0 1-2.323-.634v.064c0 2.446 1.769 4.488 4.113 4.952-.429.114-.882.177-1.351.177a4.98 4.98 0 0 1-.966-.094c.653 2.008 2.547 3.468 4.791 3.508a10.398 10.398 0 0 1-6.37 2.16c-.413 0-.821-.026-1.223-.07A14.66 14.66 0 0 0 15.862 30c9.433 0 14.59-7.696 14.59-14.37l-.017-.655A10.137 10.137 0 0 0 33 12.366"/></svg>