<svg viewBox="0 0 40 40"><path fill-rule="evenodd" d="M30.358 8.755c.106-.203.106-.383 0-.537-.087-.145-.237-.218-.45-.218h-3.497c-.377 0-.687.218-.928.653l-7.706 13.668 4.919 9.026c.232.435.552.653.958.653h3.468c.213 0 .367-.072.465-.218.096-.164.091-.342-.015-.537l-4.876-8.924v-.013l7.662-13.553zm-14.075 4.628c-.252-.436-.571-.653-.958-.653h-3.468c-.222 0-.377.073-.464.217-.106.146-.101.325.015.537l2.336 4.049c.009.01.009.015 0 .015l-3.672 6.5c-.096.185-.096.358 0 .522a.487.487 0 0 0 .451.247h3.467c.368 0 .682-.222.943-.667a6468.93 6468.93 0 0 0 3.73-6.617l-2.38-4.15z"/></svg>